<?xml version="1.0" encoding="UTF-8"?>
<svg width="48px" height="48px" viewBox="0 0 48 48" version="1.1" xmlns="http://www.w3.org/2000/svg" xmlns:xlink="http://www.w3.org/1999/xlink">
    <!-- Generator: Sketch 46.2 (44496) - http://www.bohemiancoding.com/sketch -->
    <title>Greenfield</title>
    <desc>Created with Sketch.</desc>
    <defs></defs>
    <g id="home-page" stroke="none" stroke-width="1" fill="none" fill-rule="evenodd">
        <g id="Icons" transform="translate(-68.000000, -151.000000)">
            <g id="Greenfield" transform="translate(68.000000, 151.000000)">
                <circle id="Oval" fill="#ECECEC" fill-rule="nonzero" cx="24" cy="24" r="24"></circle>
                <path d="M25.695202,32.8538036 C26.6553209,31.367234 27.8886611,28.7631741 28.0921673,25.0518762 L32.4247488,25.0518762 C32.0956531,28.9323355 29.3147427,32.0900144 25.695202,32.8538036 Z M15.5757638,25.0518762 L19.9637072,25.0518762 C20.1636252,28.8246873 21.3416034,31.3826123 22.2817306,32.8486775 C18.6739799,32.0797621 15.9038343,28.9220832 15.5757638,25.0518762 Z M22.2309822,15.7377486 C21.2442075,17.2191921 20.0329096,19.7924954 19.944228,23.5140455 L15.5757638,23.5140455 C15.9017839,19.6694689 18.6483494,16.5271683 22.2309822,15.7377486 Z M21.4784704,23.5140455 C21.5840681,19.5054337 23.1567562,16.9885175 23.9974369,15.9274144 C24.8499077,17.0038958 26.4528399,19.5515686 26.5758663,23.5140455 L21.4784704,23.5140455 Z M23.9917982,32.6077507 C23.1875128,31.5312692 21.7383637,29.060488 21.5041009,25.0518762 L26.5522862,25.0518762 C26.3139225,28.9528399 24.8119746,31.4953865 23.9917982,32.6077507 Z M32.4247488,23.5140455 L28.1095961,23.5140455 C28.0060488,19.8335042 26.7573303,17.2294443 25.7572278,15.7326225 C29.3460119,16.5169161 32.0977035,19.6643428 32.4247488,23.5140455 Z M24.009227,14 C24.0076892,14 24.0061513,14 24.0046135,14 C24.0030757,14 24.0015378,14 24,14 C18.485852,14 14,18.6134919 14,24.2829608 C14,29.9575559 18.485852,34.5710478 24,34.5710478 C29.514148,34.5710478 34,29.9575559 34,24.2829608 C34,18.618618 29.5192741,14.0051261 24.009227,14 L24.009227,14 Z" id="6I" fill="#7B7B7B"></path>
            </g>
        </g>
    </g>
</svg>