<?xml version="1.0" encoding="utf-8"?>
<!-- Generator: Adobe Illustrator 19.0.1, SVG Export Plug-In . SVG Version: 6.00 Build 0)  -->
<!DOCTYPE svg PUBLIC "-//W3C//DTD SVG 1.1//EN" "http://www.w3.org/Graphics/SVG/1.1/DTD/svg11.dtd">
<svg version="1.1" id="Layer_1" xmlns="http://www.w3.org/2000/svg" xmlns:xlink="http://www.w3.org/1999/xlink" x="0px" y="0px"
	 viewBox="0 0 300 300" style="enable-background:new 0 0 300 300;" xml:space="preserve">
<style type="text/css">
	.st0{fill:#283892;}
</style>
<g>
	<path class="st0" d="M150.3,0.1c-82.7,0-150,67.3-150,150c0,82.7,67.3,150,150,150s150-67.3,150-150C300.3,67.3,233,0.1,150.3,0.1z
		 M150.3,272.9c-67.7,0-122.9-55.1-122.9-122.9c0-67.7,55.1-122.9,122.9-122.9s122.9,55.1,122.9,122.9
		C273.2,217.8,218,272.9,150.3,272.9z"/>
	<path class="st0" d="M240.3,136H163V60.7c0-7.5-6-13.6-13.5-13.6S136,53.2,136,60.7v90c0,0,0.4,0.1,0.4,0.1c0,0,0.2-0.2,0.2-0.1
		c0,7.5,6.3,13.3,13.8,13.3h90c7.5,0,13.6-6.5,13.6-14C253.8,142.5,247.8,136,240.3,136z"/>
</g>
</svg>
