<?xml version="1.0" encoding="utf-8"?>
<!-- Generator: Adobe Illustrator 19.0.1, SVG Export Plug-In . SVG Version: 6.00 Build 0)  -->
<!DOCTYPE svg PUBLIC "-//W3C//DTD SVG 1.1//EN" "http://www.w3.org/Graphics/SVG/1.1/DTD/svg11.dtd">
<svg version="1.1" id="Layer_1" xmlns="http://www.w3.org/2000/svg" xmlns:xlink="http://www.w3.org/1999/xlink" x="0px" y="0px"
	 viewBox="0 0 300 300" style="enable-background:new 0 0 300 300;" xml:space="preserve">
<style type="text/css">
	.st0{fill:#379D4F;}
</style>
<path class="st0" d="M150,300.3c-82.7,0-150-67.3-150-150c0-82.7,67.3-150,150-150c82.7,0,150,67.3,150,150
	C300,233,232.8,300.3,150,300.3z M150,8C71.6,8,7.7,71.9,7.7,150.3S71.6,292.7,150,292.7c78.5,0,142.3-63.9,142.3-142.3
	S228.5,8,150,8z"/>
<polygon class="st0" points="126.5,200.2 80.7,154.4 86.1,149 126.6,189.4 214,103.1 219.4,108.6 "/>
</svg>
