<?xml version="1.0" encoding="UTF-8"?>
<svg width="48px" height="48px" viewBox="0 0 48 48" version="1.1" xmlns="http://www.w3.org/2000/svg" xmlns:xlink="http://www.w3.org/1999/xlink">
    <!-- Generator: Sketch 46.2 (44496) - http://www.bohemiancoding.com/sketch -->
    <title>Group 6</title>
    <desc>Created with Sketch.</desc>
    <defs></defs>
    <g id="home-page" stroke="none" stroke-width="1" fill="none" fill-rule="evenodd">
        <g id="$large-1140-Projects" transform="translate(-469.000000, -1527.000000)">
            <g id="Open-Cellular-Copy" transform="translate(469.000000, 1527.000000)">
                <g id="Group-6">
                    <circle id="Oval-Copy" fill="#ECECEC" cx="24" cy="24" r="24"></circle>
                    <g id="ic_past_orders" transform="translate(12.000000, 16.000000)" stroke-linecap="round" stroke-width="2" stroke="#7B7B7B" stroke-linejoin="round">
                        <g id="Group">
                            <path d="M7,8.16666667 L7,0 L7,0 L16.3333333,0 L16.3333333,1.16666667 M16.3333333,8.16666667 L16.3333333,16.3333333 L7,16.3333333 L7,15.1666667" id="Rectangle-2"></path>
                            <polyline id="Path-2" points="19.8333333 0 23.3333333 4.66666667 19.8333333 9.33333333"></polyline>
                            <path d="M23.3333333,4.66666667 L11.6666667,4.66666667" id="Line"></path>
                            <polyline id="Path-2-Copy" transform="translate(1.750000, 11.666667) scale(-1, 1) translate(-1.750000, -11.666667) " points="0 7 3.5 11.6666667 0 16.3333333"></polyline>
                            <path d="M11.6666667,11.6666667 L0,11.6666667" id="Line-Copy" transform="translate(5.833333, 12.250000) scale(-1, 1) translate(-5.833333, -12.250000) "></path>
                        </g>
                    </g>
                </g>
            </g>
        </g>
    </g>
</svg>