<?xml version="1.0" encoding="UTF-8"?>
<svg width="48px" height="48px" viewBox="0 0 48 48" version="1.1" xmlns="http://www.w3.org/2000/svg" xmlns:xlink="http://www.w3.org/1999/xlink">
    <!-- Generator: Sketch 46.2 (44496) - http://www.bohemiancoding.com/sketch -->
    <title>router icon alp</title>
    <desc>Created with Sketch.</desc>
    <defs></defs>
    <g id="home-page" stroke="none" stroke-width="1" fill="none" fill-rule="evenodd">
        <g id="Icons" transform="translate(-171.000000, -203.000000)">
            <g id="router-icon-alp" transform="translate(171.000000, 203.000000)">
                <circle id="Oval" fill="#ECECEC" fill-rule="nonzero" cx="24" cy="24" r="24"></circle>
                <path d="M23.6693748,14 C19.8653748,14 16.1160415,15.8086667 13.7493748,18.7853333 C13.6682316,18.8778745 13.6446849,19.0075985 13.6881283,19.1227539 C13.7315718,19.2379092 13.8349353,19.3197552 13.9569834,19.3356404 C14.0790316,19.3515257 14.1999019,19.298865 14.2713748,19.1986667 C16.5067082,16.388 20.0780415,14.6653333 23.6713748,14.6653333 C27.2647082,14.6653333 30.8360415,16.388 33.0713748,19.1986667 C33.1421513,19.3006971 33.2637754,19.3549279 33.3869747,19.3393891 C33.510174,19.3238503 33.6145233,19.2411181 33.6577487,19.124709 C33.7009741,19.0082998 33.6759091,18.8775132 33.5927082,18.7853333 C31.2240415,15.8086667 27.4760415,14 23.6707082,14 L23.6693748,14 Z M23.6693748,18 C21.0727082,18 18.5327082,19.3366667 17.0627082,21.476 C16.9915603,21.5740492 16.9792087,21.7029799 17.0304471,21.8127537 C17.0816854,21.9225275 17.1884464,21.9958609 17.3092957,22.0042929 C17.430145,22.0127249 17.5460553,21.954928 17.6120415,21.8533333 C18.9520415,19.904 21.3027082,18.6666667 23.6693748,18.6666667 C26.0360415,18.6666667 28.3873748,19.904 29.7267082,21.8533333 C29.7926943,21.954928 29.9086047,22.0127249 30.029454,22.0042929 C30.1503033,21.9958609 30.2570643,21.9225275 30.3083026,21.8127537 C30.3595409,21.7029799 30.3471893,21.5740492 30.2760415,21.476 C28.8060415,19.336 26.2660415,18 23.6693748,18 Z M23.6693748,22 C22.4467082,22 21.2467082,22.532 20.4273748,23.4386667 C20.3389989,23.5253635 20.3059515,23.653898 20.3415509,23.77247 C20.3771504,23.891042 20.4755318,23.9801171 20.5970468,24.0037973 C20.7185617,24.0274775 20.843191,23.9818617 20.9207082,23.8853333 C21.6093748,23.1226667 22.6420415,22.6653333 23.6693748,22.6653333 C24.6960415,22.6653333 25.7293748,23.1226667 26.4173748,23.8853333 C26.494892,23.9818617 26.6195213,24.0274775 26.7410362,24.0037973 C26.8625512,23.9801171 26.9609326,23.891042 26.996532,23.77247 C27.0321315,23.653898 26.9990841,23.5253635 26.9107082,23.4386667 C26.0927082,22.532 24.8927082,22 23.6693748,22 Z" id="Shape" stroke="#7B7B7B" fill="#7B7B7B" fill-rule="nonzero"></path>
                <path d="M15,26 L33,26 C35.209139,26 37,27.790861 37,30 L37,30 C37,32.209139 35.209139,34 33,34 L15,34 C12.790861,34 11,32.209139 11,30 L11,30 L11,30 C11,27.790861 12.790861,26 15,26 L15,26 Z M16.3333333,31.3333333 C17.069713,31.3333333 17.6666667,30.7363797 17.6666667,30 C17.6666667,29.2636203 17.069713,28.6666667 16.3333333,28.6666667 C15.5969537,28.6666667 15,29.2636203 15,30 C15,30.7363797 15.5969537,31.3333333 16.3333333,31.3333333 Z" id="Combined-Shape" fill="#7B7B7B"></path>
            </g>
        </g>
    </g>
</svg>