<?xml version="1.0" encoding="UTF-8"?>
<svg width="48px" height="48px" viewBox="0 0 48 48" version="1.1" xmlns="http://www.w3.org/2000/svg" xmlns:xlink="http://www.w3.org/1999/xlink">
    <!-- Generator: Sketch 46.2 (44496) - http://www.bohemiancoding.com/sketch -->
    <title>Core Network</title>
    <desc>Created with Sketch.</desc>
    <defs></defs>
    <g id="home-page" stroke="none" stroke-width="1" fill="none" fill-rule="evenodd">
        <g id="Icons" transform="translate(-325.000000, -135.000000)">
            <g id="Core-Network" transform="translate(325.000000, 135.000000)">
                <circle id="Oval-Copy-3" fill="#ECECEC" cx="24" cy="24" r="24"></circle>
                <g id="frequency-antenna" transform="translate(14.000000, 10.000000)" fill="#7B7B7B">
                    <path d="M11.4353883,7.14455478 C11.8349225,6.80026046 12.0603983,6.34225948 12.0603983,5.85918932 C12.0603983,4.83379456 11.0603432,4 9.83237315,4 C8.60381768,4 7.6049334,4.83379456 7.6049334,5.85918932 C7.6049334,6.43692007 7.91802382,6.96426827 8.455029,7.31417874 L0.95071327,28.6217646 L2.49762773,29 L3.22498487,26.9379782 L13.9258669,18.9860003 L17.3057603,28.5836725 L17.454549,28.9995116 L19,28.6212762 L11.4353883,7.14455478 Z M8.86832006,10.9116067 L9.97530785,7.77014488 L10.6215873,9.60638125 L8.86832006,10.9116067 Z M8.53961903,12.9584893 L11.1241516,11.034755 L12.8313676,15.8828748 L8.53961903,12.9584893 Z M13.0962602,17.8003419 L4.08386144,24.4971512 L7.73030616,14.1427641 L13.0962602,17.8003419 Z" id="Shape" fill-rule="nonzero"></path>
                    <path d="M13.740203,5.97502538 C13.740203,6.38741117 13.6317766,6.79583756 13.4298477,7.15583756 L13.3951269,7.27411168 L13.7852792,7.73228426 L13.893198,7.55482234 C14.1882234,7.0777665 14.3431472,6.53035533 14.3431472,5.97502538 C14.3431472,5.44619289 14.2011168,4.92426396 13.9327919,4.46406091 L13.8595939,4.33928934 L13.7327919,4.41035533 C13.6499492,4.45614213 13.5639594,4.49532995 13.4756345,4.52893401 L13.3085279,4.59025381 L13.3993909,4.74324873 C13.6219289,5.11604061 13.740203,5.54152284 13.740203,5.97502538 Z" id="Shape" fill-rule="nonzero"></path>
                    <path d="M14.7291371,8.94385787 C14.7516751,8.96700508 14.7742132,8.98862944 14.7961421,9.01248731 L14.9107614,9.13928934 L15.0192893,9.0057868 C15.7245685,8.14873096 16.1123858,7.07177665 16.1123858,5.97563452 C16.1123858,4.97857868 15.8015228,4.01847716 15.213198,3.19634518 L15.0937056,3.03086294 L14.9729949,3.19522843 C14.9102538,3.28121827 14.8461929,3.3680203 14.779797,3.4506599 L14.7108629,3.53604061 L14.7729949,3.62598985 C15.2552284,4.32700508 15.5094416,5.13786802 15.5094416,5.97522843 C15.5094416,6.93502538 15.1900508,7.83969543 14.5864975,8.59258883 L14.5145178,8.68192893 L14.6401015,8.85106599 C14.6693401,8.88253807 14.6991878,8.91390863 14.7291371,8.94385787 Z" id="Shape" fill-rule="nonzero"></path>
                    <path d="M17.4321827,5.97502538 C17.4321827,7.42071066 16.9054822,8.82954315 15.9526904,9.94152284 L15.8581726,10.0518782 L15.966599,10.1485279 C16.020203,10.1954315 16.0750254,10.2418274 16.1288325,10.286599 L16.3171574,10.4462944 L16.4127919,10.3347208 C17.4595939,9.11482234 18.035533,7.56609137 18.035533,5.97553299 C18.035533,4.33167513 17.4284264,2.74659898 16.3298477,1.51461929 L16.2085279,1.37532995 L16.1007107,1.52588832 C16.0385787,1.61126904 15.9781726,1.69989848 15.9166497,1.79106599 L15.8513706,1.88406091 L15.9262944,1.97035533 C16.8981726,3.08314721 17.4321827,4.50395939 17.4321827,5.97502538 Z" id="Shape" fill-rule="nonzero"></path>
                    <path d="M19.3536041,5.97502538 C19.3536041,7.87461929 18.6732995,9.72050761 17.4388832,11.1729949 L17.3407107,11.2897462 L17.4595939,11.384264 C17.5285279,11.4415228 17.5985787,11.5007107 17.666802,11.5595939 L17.8034518,11.6775635 L17.8996954,11.5638579 C19.2274112,10.0026396 19.9577665,8.01827411 19.9577665,5.9751269 C19.9577665,3.79390863 19.1390863,1.70954315 17.6527919,0.105685279 L17.5552284,0.000812182741 L17.446802,0.0953299492 C17.395533,0.138883249 17.344264,0.18680203 17.2943147,0.233096447 L17.1053807,0.405888325 L17.206599,0.516548223 C18.5915736,2.00690355 19.3536041,3.94548223 19.3536041,5.97502538 Z" id="Shape" fill-rule="nonzero"></path>
                    <path d="M6.20984772,7.73279188 L6.61736041,7.24964467 L6.56497462,7.15573604 C6.36192893,6.79634518 6.25472081,6.38791878 6.25472081,5.97492386 C6.25472081,5.54142132 6.37269036,5.11593909 6.59492386,4.74253807 L6.68598985,4.58944162 L6.51959391,4.52812183 C6.43147208,4.49461929 6.34456853,4.45472081 6.26172589,4.40964467 L6.13492386,4.33857868 L6.06243655,4.46324873 C5.79299492,4.9235533 5.65187817,5.44527919 5.65187817,5.9742132 C5.65187817,6.52954315 5.80730964,7.07705584 6.10111675,7.55411168 L6.20984772,7.73279188 Z" id="Shape" fill-rule="nonzero"></path>
                    <path d="M4.97563452,9.00568528 L5.0835533,9.13918782 L5.19908629,9.01238579 C5.22040609,8.98862944 5.24263959,8.96690355 5.2657868,8.94375635 C5.29593909,8.91390863 5.32588832,8.88243655 5.36213198,8.84010152 L5.48060914,8.68162437 L5.40994924,8.59228426 C4.80517766,7.83939086 4.4848731,6.93472081 4.4848731,5.97492386 C4.4848731,5.13756345 4.73969543,4.32619289 5.22162437,3.62568528 L5.28406091,3.53573604 L5.21522843,3.45035533 C5.1484264,3.36781726 5.08416244,3.28091371 5.02162437,3.19492386 L4.90121827,3.02994924 L4.78263959,3.19543147 C4.19340102,4.01756345 3.88192893,4.97766497 3.88192893,5.97472081 C3.88203046,7.07167513 4.27096447,8.14862944 4.97563452,9.00568528 Z" id="Shape" fill-rule="nonzero"></path>
                    <path d="M3.58294416,10.3341117 L3.67837563,10.4456853 L3.8657868,10.2859898 C3.92010152,10.2412183 3.97370558,10.1948223 4.02730964,10.1479188 L4.1364467,10.051269 L4.04101523,9.94060914 C3.08781726,8.82903553 2.56263959,7.42020305 2.56263959,5.97441624 C2.56263959,4.50335025 3.09786802,3.08263959 4.0684264,1.96913706 L4.14274112,1.88284264 L4.07908629,1.79116751 C4.0177665,1.7 3.95685279,1.61137056 3.89614213,1.52598985 L3.78822335,1.37543147 L3.66507614,1.51472081 C2.56527919,2.74741117 1.95969543,4.33238579 1.95969543,5.97563452 C1.95989848,7.56598985 2.53593909,9.1142132 3.58294416,10.3341117 Z" id="Shape" fill-rule="nonzero"></path>
                    <path d="M2.21532995,11.6560406 L2.32812183,11.5587817 C2.39705584,11.4998985 2.46619289,11.4408122 2.53664975,11.3834518 L2.65461929,11.288934 L2.55675127,11.1721827 C1.32071066,9.71979695 0.641015228,7.87380711 0.641015228,5.9742132 C0.641015228,3.94477157 1.40426396,2.00619289 2.78903553,0.515634518 L2.89025381,0.404974619 L2.70162437,0.232182741 C2.65035533,0.185888325 2.59918782,0.137969543 2.54862944,0.0941116751 L2.44,0 L2.34395939,0.104873096 C0.856142132,1.70944162 0.0371573604,3.79370558 0.0371573604,5.97431472 C0.0371573604,8.01746193 0.768121827,10.0012183 2.09583756,11.5630457 L2.21532995,11.6560406 Z" id="Shape" fill-rule="nonzero"></path>
                    <ellipse id="Oval-4" cx="9.97887712" cy="5.5" rx="2.4823976" ry="2.5"></ellipse>
                </g>
            </g>
        </g>
    </g>
</svg>