<?xml version="1.0" encoding="UTF-8"?>
<svg width="48px" height="48px" viewBox="0 0 48 48" version="1.1" xmlns="http://www.w3.org/2000/svg" xmlns:xlink="http://www.w3.org/1999/xlink">
    <!-- Generator: Sketch 46.2 (44496) - http://www.bohemiancoding.com/sketch -->
    <title>vRAN</title>
    <desc>Created with Sketch.</desc>
    <defs></defs>
    <g id="home-page" stroke="none" stroke-width="1" fill="none" fill-rule="evenodd">
        <g id="Icons" transform="translate(-168.000000, -291.000000)" fill-rule="nonzero">
            <g id="vRAN" transform="translate(168.000000, 291.000000)">
                <circle id="Oval-Copy-4" fill="#ECECEC" cx="24" cy="24" r="24"></circle>
                <g id="mbri-cloud" transform="translate(11.000000, 15.000000)" stroke="#7B7B7B" fill="#7B7B7B">
                    <path d="M14.3,0 C11.258,0.00416666667 8.50546667,1.64416667 7.08066667,4.20833333 C6.88826667,4.19166667 6.69586667,4.16666667 6.5,4.16666667 C2.90506667,4.16666667 0,6.97 0,10.4166667 C0,13.8633333 2.91546667,16.6666667 6.5,16.6666667 L21.6666667,16.6666667 C24.0552,16.6666667 26,14.7966667 26,12.5 C26,10.5016667 24.4972,8.85583333 22.4986667,8.47 C22.5125333,8.28666667 22.5333333,8.05833333 22.5333333,7.91666667 C22.5333333,3.56666667 18.8413333,0 14.3,0 Z M14.3,0.833333333 C18.3733333,0.833333333 21.6666667,4 21.6666667,7.91666667 C21.6649333,8.185 21.6476,8.4525 21.6146667,8.71916667 C21.5843333,8.9525 21.7594,9.16083333 22.0020667,9.18416667 C23.7813333,9.35 25.1333333,10.7816667 25.1333333,12.5 C25.1333333,14.3458333 23.5863333,15.8333333 21.6666667,15.8333333 L6.5,15.8333333 C3.38346667,15.8333333 0.866666667,13.4133333 0.866666667,10.4166667 C0.866666667,7.42166667 3.38173333,5.00166667 6.49653333,5 C6.74353333,5.00166667 6.99053333,5.01916667 7.23493333,5.0525 C7.4204,5.0775 7.6024,4.98583333 7.6856,4.8225 C8.9154,2.385 11.4807333,0.8375 14.3,0.833333333 Z" id="Shape"></path>
                </g>
            </g>
        </g>
    </g>
</svg>