<?xml version="1.0" encoding="UTF-8"?>
<svg width="48px" height="48px" viewBox="0 0 48 48" version="1.1" xmlns="http://www.w3.org/2000/svg" xmlns:xlink="http://www.w3.org/1999/xlink">
    <!-- Generator: Sketch 46.2 (44496) - http://www.bohemiancoding.com/sketch -->
    <title>Group 5</title>
    <desc>Created with Sketch.</desc>
    <defs></defs>
    <g id="home-page" stroke="none" stroke-width="1" fill="none" fill-rule="evenodd">
        <g id="Icons" transform="translate(-325.000000, 0.000000)">
            <g id="Group-5" transform="translate(325.000000, 0.000000)">
                <circle id="Oval" fill="#ECECEC" cx="24" cy="24" r="24"></circle>
                <g id="mbri-target" transform="translate(13.000000, 13.000000)" stroke="#7B7B7B" fill-rule="nonzero" fill="#7B7B7B">
                    <path d="M11,7.5862069 C9.11862069,7.5862069 7.5862069,9.11862069 7.5862069,11 C7.5862069,12.8813793 9.11862069,14.4137931 11,14.4137931 C12.8813793,14.4137931 14.4137931,12.8813793 14.4137931,11 C14.4137931,9.11862069 12.8813793,7.5862069 11,7.5862069 Z M11,8.34482759 C12.4717241,8.34482759 13.6551724,9.52827586 13.6551724,11 C13.6551724,12.4717241 12.4717241,13.6551724 11,13.6551724 C9.52827586,13.6551724 8.34482759,12.4717241 8.34482759,11 C8.34482759,9.52827586 9.52827586,8.34482759 11,8.34482759 Z M11,0 C10.7898621,0 10.6206897,0.169172414 10.6206897,0.379310345 L10.6206897,1.5362069 C5.69193103,1.73344828 1.73268966,5.69193103 1.5362069,10.6206897 L0.379310345,10.6206897 C0.169172414,10.6206897 0,10.7898621 0,11 C0,11.2101379 0.169172414,11.3793103 0.379310345,11.3793103 L1.5362069,11.3793103 C1.73344828,16.308069 5.69193103,20.2673103 10.6206897,20.4637931 L10.6206897,21.6206897 C10.6206897,21.8308276 10.7898621,22 11,22 C11.2101379,22 11.3793103,21.8308276 11.3793103,21.6206897 L11.3793103,20.4637931 C16.308069,20.2665517 20.2673103,16.308069 20.4637931,11.3793103 L21.6206897,11.3793103 C21.8308276,11.3793103 22,11.2101379 22,11 C22,10.7898621 21.8308276,10.6206897 21.6206897,10.6206897 L20.4637931,10.6206897 C20.2665517,5.69193103 16.308069,1.73268966 11.3793103,1.5362069 L11.3793103,0.379310345 C11.3793103,0.169172414 11.2101379,0 11,0 Z M10.6206897,2.29482759 L10.6206897,3.4137931 C10.6206897,3.62393103 10.7898621,3.79310345 11,3.79310345 C11.2101379,3.79310345 11.3793103,3.62393103 11.3793103,3.4137931 L11.3793103,2.29482759 C15.8976552,2.48827586 19.5117241,6.10310345 19.7051724,10.6206897 L18.5862069,10.6206897 C18.376069,10.6206897 18.2068966,10.7898621 18.2068966,11 C18.2068966,11.2101379 18.376069,11.3793103 18.5862069,11.3793103 L19.7051724,11.3793103 C19.5117241,15.8976552 15.8968966,19.5117241 11.3793103,19.7051724 L11.3793103,18.5862069 C11.3793103,18.376069 11.2101379,18.2068966 11,18.2068966 C10.7898621,18.2068966 10.6206897,18.376069 10.6206897,18.5862069 L10.6206897,19.7051724 C6.10234483,19.5117241 2.48827586,15.8968966 2.29482759,11.3793103 L3.4137931,11.3793103 C3.62393103,11.3793103 3.79310345,11.2101379 3.79310345,11 C3.79310345,10.7898621 3.62393103,10.6206897 3.4137931,10.6206897 L2.29482759,10.6206897 C2.48827586,6.10234483 6.10310345,2.48827586 10.6206897,2.29482759 Z" id="Shape"></path>
                </g>
            </g>
        </g>
    </g>
</svg>