<?xml version="1.0" encoding="utf-8"?>
<!-- Generator: Adobe Illustrator 21.0.2, SVG Export Plug-In . SVG Version: 6.00 Build 0)  -->
<svg version="1.1" id="Layer_1" xmlns="http://www.w3.org/2000/svg" xmlns:xlink="http://www.w3.org/1999/xlink" x="0px" y="0px"
	 viewBox="0 0 467.4 409.2" style="enable-background:new 0 0 467.4 409.2;" xml:space="preserve">
<style type="text/css">
	.st0{fill:#FFFFFF;}
	.st1{fill:none;stroke:#FFFFFF;stroke-linecap:square;}
</style>
<title>2017-Tip-Summit-Logo-square-white</title>
<desc>Created with Sketch.</desc>
<g id="_x32_017-Summit_1_">
	<g id="_x32_017-Tip-Summit-Logo-square-white">
		<g id="Tip-Summit-Logo-2" transform="translate(0.000000, 82.000000)">
			<g id="color" transform="translate(196.000000, 0.000000)">
				<polygon id="Fill-1" class="st0" points="37.6,44.9 40.4,47.8 84.2,4 78.5,4 				"/>
				<polygon id="Fill-2" class="st0" points="78.5,-5.7 84.2,-5.7 40.4,-49.5 37.6,-46.7 				"/>
				<polygon id="Fill-3" class="st0" points="8,-82 -68.3,-5.7 -62.5,-5.7 8,-76.2 34.7,-49.5 37.6,-52.4 				"/>
				<polygon id="Fill-4" class="st0" points="8,74.5 -62.5,4 -68.3,4 8,80.3 37.6,50.7 34.7,47.8 				"/>
				<polygon id="Fill-5" class="st0" points="67.1,74.5 40.4,47.8 37.6,44.9 -3.4,4 -9.1,4 34.7,47.8 37.6,50.7 67.1,80.3 143.4,4 
					137.6,4 				"/>
				<polygon id="Fill-6" class="st0" points="67.1,-82 37.6,-52.4 34.7,-49.5 -9.1,-5.7 -3.4,-5.7 37.6,-46.7 40.4,-49.5 
					67.1,-76.2 137.6,-5.7 143.4,-5.7 				"/>
			</g>
			<g id="Tip-Summit-Logo---2" transform="translate(0.000000, 188.000000)">
				<g id="horizontal" transform="translate(126.000000, 0.000000)">
					<polygon id="Fill-7" class="st0" points="-63,-62.9 -63,-78.6 -68.6,-78.6 -68.6,-81.5 -54.2,-81.5 -54.2,-78.6 -59.8,-78.6 
						-59.8,-62.9 					"/>
					<polygon id="Fill-8" class="st0" points="-50.5,-62.9 -50.5,-81.5 -37.9,-81.5 -37.9,-78.6 -47.3,-78.6 -47.3,-73.8 
						-38.1,-73.8 -38.1,-71 -47.3,-71 -47.3,-65.8 -37.9,-65.8 -37.9,-62.9 					"/>
					<polygon id="Fill-9" class="st0" points="-33.9,-62.9 -33.9,-81.5 -30.7,-81.5 -30.7,-65.8 -22.5,-65.8 -22.5,-62.9 					"/>
					<polygon id="Fill-10" class="st0" points="-18.8,-62.9 -18.8,-81.5 -6.2,-81.5 -6.2,-78.6 -15.6,-78.6 -15.6,-73.8 -6.4,-73.8 
						-6.4,-71 -15.6,-71 -15.6,-65.8 -6.2,-65.8 -6.2,-62.9 					"/>
					<path id="Fill-11" class="st0" d="M-2.8-72.2c0-5.7,4.2-9.6,9.7-9.6c3.7,0,6,1.9,7.4,4.1l-2.7,1.4c-0.9-1.6-2.7-2.7-4.7-2.7
						c-3.7,0-6.4,2.8-6.4,6.7c0,3.9,2.7,6.7,6.4,6.7c2,0,3.8-1.2,4.7-2.7l2.8,1.4c-1.4,2.2-3.7,4.2-7.4,4.2
						C1.5-62.6-2.8-66.5-2.8-72.2L-2.8-72.2z"/>
					<path id="Fill-13" class="st0" d="M32.6-72.2c0-3.8-2.4-6.7-6.1-6.7c-3.7,0-6.1,2.9-6.1,6.7c0,3.8,2.4,6.7,6.1,6.7
						C30.1-65.5,32.6-68.4,32.6-72.2 M17-72.2c0-5.5,3.9-9.6,9.4-9.6c5.5,0,9.4,4.1,9.4,9.6c0,5.5-3.9,9.6-9.4,9.6
						C20.9-62.6,17-66.7,17-72.2"/>
					<polygon id="Fill-15" class="st0" points="55.8,-62.9 55.8,-77.3 50.1,-62.9 48.8,-62.9 43.1,-77.3 43.1,-62.9 39.9,-62.9 
						39.9,-81.5 44.4,-81.5 49.5,-68.7 54.5,-81.5 59,-81.5 59,-62.9 					"/>
					<polygon id="Fill-17" class="st0" points="71.9,-62.9 75.1,-62.9 75.1,-81.5 71.9,-81.5 					"/>
					<polygon id="Fill-19" class="st0" points="92.8,-62.9 83.2,-76.2 83.2,-62.9 79.9,-62.9 79.9,-81.5 83.2,-81.5 92.7,-68.6 
						92.7,-81.5 95.9,-81.5 95.9,-62.9 					"/>
					<polygon id="Fill-20" class="st0" points="100.7,-62.9 100.7,-81.5 113.4,-81.5 113.4,-78.6 104,-78.6 104,-73.8 113.2,-73.8 
						113.2,-71 104,-71 104,-62.9 					"/>
					<path id="Fill-21" class="st0" d="M128-75.7c0-1.8-1.3-2.9-3.2-2.9h-4.5v5.9h4.5C126.7-72.7,128-73.9,128-75.7L128-75.7z
						 M127.7-62.9l-4.1-6.9h-3.2v6.9h-3.2v-18.6h8.1c3.7,0,6.1,2.4,6.1,5.8c0,3.3-2.2,5.1-4.4,5.5l4.5,7.3H127.7z"/>
					<path id="Fill-22" class="st0" d="M142.8-78.2l-3.3,8.9h6.6L142.8-78.2z M148.4-62.9l-1.4-3.6h-8.5l-1.4,3.6h-3.7l7.3-18.6h4
						l7.3,18.6H148.4z"/>
					<path id="Fill-23" class="st0" d="M174.2-76.1c0-2.3-1.6-4-4.1-4h-5.2v8h5.2C172.6-72.1,174.2-73.8,174.2-76.1L174.2-76.1z
						 M163.4-62.9v-18.6h6.9c3.5,0,5.6,2.5,5.6,5.4c0,2.9-2,5.4-5.6,5.4h-5.3v7.7H163.4z"/>
					<path id="Fill-24" class="st0" d="M190.9-76.1c0-2.3-1.6-4-4.1-4h-5.2v8h5.2C189.3-72.1,190.9-73.7,190.9-76.1L190.9-76.1z
						 M190.9-62.9l-5.2-7.7h-4.1v7.7h-1.6v-18.6h6.9c3.2,0,5.6,2,5.6,5.4c0,3.4-2.4,5.2-5.1,5.3l5.3,7.8H190.9z"/>
					<path id="Fill-25" class="st0" d="M213-72.2c0-4.7-2.9-8.2-7.3-8.2c-4.5,0-7.3,3.5-7.3,8.2c0,4.7,2.9,8.2,7.3,8.2
						C210.1-64,213-67.5,213-72.2 M196.7-72.2c0-5.4,3.5-9.6,9-9.6c5.4,0,9,4.2,9,9.6c0,5.4-3.6,9.6-9,9.6
						C200.2-62.6,196.7-66.8,196.7-72.2"/>
					<path id="Fill-26" class="st0" d="M216.9-64.9l1-1.2c0.8,1.1,2,2.1,3.7,2.1c2.5,0,4.1-1.8,4.1-4.3v-13.2h1.6v13.2
						c0,3.9-2.5,5.7-5.6,5.7C219.7-62.6,218.2-63.3,216.9-64.9"/>
					<polygon id="Fill-27" class="st0" points="232.7,-62.9 232.7,-81.5 244.4,-81.5 244.4,-80 234.3,-80 234.3,-73.2 244.2,-73.2 
						244.2,-71.7 234.3,-71.7 234.3,-64.4 244.4,-64.4 244.4,-62.9 					"/>
					<path id="Fill-28" class="st0" d="M248.5-72.2c0-5.7,4.1-9.6,9.4-9.6c2.9,0,5.2,1.3,6.7,3.3l-1.3,0.9c-1.2-1.6-3.2-2.7-5.4-2.7
						c-4.3,0-7.7,3.3-7.7,8.2c0,4.8,3.4,8.2,7.7,8.2c2.2,0,4.2-1.1,5.4-2.7l1.4,0.8c-1.7,2-3.8,3.3-6.8,3.3
						C252.7-62.6,248.5-66.5,248.5-72.2"/>
					<polygon id="Fill-29" class="st0" points="273.4,-62.9 273.4,-80 267.3,-80 267.3,-81.5 281,-81.5 281,-80 275,-80 275,-62.9 
											"/>
				</g>
				<path id="_x32_017-Summit" class="st0" d="M18.4-15.8C11.9-15.8,5.5-13,0-8.6L3.4-2c4.2-3.9,9.4-6.3,13.8-6.3
					c5.3,0,8.4,2.4,8.4,6.5c0,2.9-2.4,7-6.1,10.7L0.9,28.8V35h35.9v-7.6H12.1l13.1-13.9C30.5,7.7,34.4,2,34.4-3.1
					C34.4-10.8,27.9-15.8,18.4-15.8z M64.9-15.6c13.8,0,21.4,9.1,21.4,25.4s-7.6,25.4-21.4,25.4c-13.8,0-21.5-9.1-21.5-25.4
					S51-15.6,64.9-15.6z M64.9-8.9C56.4-8.9,52.1-3,52.1,9.8c0,12.7,4.2,18.7,12.7,18.7c8.4,0,12.7-6,12.7-18.7
					C77.5-3,73.3-8.9,64.9-8.9z M109,35v-50.4H90.6v7.6h9.9V35H109z M156.9-8.9v-6.5h-36.6v14.7h7.5l0.1-7.1h19.6L127.8,35h9
					L156.9-8.9z M200.4-15.8c-10.9,0-18.4,5.4-18.4,14c0,17.9,27.2,11.7,27.2,22.9c0,3.9-3.5,6.1-9.4,6.1c-5.4,0-11.9-2.6-17.1-7.3
					l-3.7,7.3c5.2,4.8,12.7,8,20.6,8c11.1,0,19-5.5,19-14.5c0.1-18.1-27.1-12.2-27.1-23.3c0-3.4,3.2-5.3,8.2-5.3
					c3.8,0,9.3,1.4,14.8,4.7l3.5-7.5C213.3-13.7,206.9-15.8,200.4-15.8z M262.9-3.3h-8.3v18.9c0,6.7-3.9,11.8-10.5,12
					c-5.5,0-8.9-3.5-8.9-9.3V-3.3h-8.3v23.8c0,9.1,5.3,14.8,14,14.8c6.3-0.1,11.1-2.4,13.7-7.8V35h8.3V-3.3z M325.1-3.6
					c-7,0-12.1,2.8-14.5,9.2c-1.8-5.8-6.5-9.2-13.3-9.2c-6.3,0-11.2,2.3-13.9,7.7v-7.4h-8.2V35h8.2V16.1c0-6.7,4-11.7,10.7-12
					c5.6,0,9,3.5,9,9.4V35h8.3V16.1c0-6.7,4-11.7,10.5-12c5.6,0,9.1,3.5,9.1,9.4V35h8.3V11.2C339.1,2,333.9-3.6,325.1-3.6z
					 M400.2-3.6c-7,0-12.1,2.8-14.5,9.2c-1.8-5.8-6.5-9.2-13.3-9.2c-6.3,0-11.2,2.3-13.9,7.7v-7.4h-8.2V35h8.2V16.1
					c0-6.7,4-11.7,10.7-12c5.6,0,9,3.5,9,9.4V35h8.3V16.1c0-6.7,4-11.7,10.5-12c5.6,0,9.1,3.5,9.1,9.4V35h8.3V11.2
					C414.2,2,409-3.6,400.2-3.6z M429.4-19.3c-2.7,0-4.8,2.1-4.8,5c0,2.9,2.1,5,4.8,5c2.7,0,4.8-2.1,4.8-5
					C434.2-17.2,432.1-19.3,429.4-19.3z M433.5,35V-3.3h-8.2V35H433.5z M465.3,26.2c-2.2,1.1-4,1.7-5.8,1.7c-2.6,0-4.1-1.2-4.1-5.2
					V4.3h11.3v-6.2h-11.3v-10.5h-8.2v10.5h-5.4v6.2h5.4v19.9c0,7.8,5,11.2,10.7,11.2c3.2,0,6.4-1,9.4-2.8L465.3,26.2z"/>
				<path id="Santa-Clara_x2C_-Ca" class="st0" d="M85.6,111.8c-5,0-8.3,2.3-8.3,6c0,9.1,14.8,5,14.7,12.9c0,3-2.8,4.8-7.1,4.8
					c-3,0-6.2-1.3-8.2-3.4l-0.8,1.3c2.2,2.2,5.6,3.6,9,3.6c5.3,0,8.7-2.5,8.7-6.4c0.1-9.3-14.7-5.3-14.7-13c0-2.6,2.6-4.3,6.6-4.3
					c2.2,0,4.7,0.6,6.6,1.8l0.7-1.4C91,112.6,88.2,111.8,85.6,111.8z M116.1,129.8h-14.7l-3.2,7.2h-1.7l11.4-25.2h1.6L121,137h-1.7
					L116.1,129.8z M115.4,128.3l-6.7-14.8l-6.7,14.8H115.4z M145.7,137v-25.2h-1.5v22.9l-16.8-22.9h-1.8V137h1.5v-22.9l16.8,22.9
					H145.7z M168.9,113.3v-1.5h-18.5v1.5h8.5V137h1.5v-23.7H168.9z M189.3,129.8h-14.7l-3.2,7.2h-1.7l11.4-25.2h1.6l11.5,25.2h-1.7
					L189.3,129.8z M188.6,128.3l-6.7-14.8l-6.7,14.8H188.6z M219.6,111.8c-7.2,0-13,5.6-13,12.6c0,7,5.8,12.6,13,12.6
					c3.3,0,6.6-1.3,8.9-3.5l-0.9-1c-2.1,1.9-4.9,3.1-7.9,3.1c-6.4,0-11.5-5-11.5-11.2c0-6.2,5.1-11.1,11.5-11.1c3,0,5.8,1.2,7.9,3.1
					l0.9-1.2C226.1,113.1,223,111.8,219.6,111.8z M236.1,135.5v-23.7h-1.5V137h12.7v-1.5H236.1z M268.2,129.8h-14.7l-3.2,7.2h-1.7
					l11.4-25.2h1.6l11.5,25.2h-1.7L268.2,129.8z M267.5,128.3l-6.7-14.8l-6.7,14.8H267.5z M294.7,137l-5.9-8.5
					c-0.7,0.1-1.4,0.1-2.1,0.1h-7.4v8.4h-1.5v-25.2h8.9c6.2,0,9.8,3,9.8,8.3c0,4.3-2.2,7.1-6.2,8.1l6.3,8.8H294.7z M279.3,127.1h7.4
					c5.3,0,8.2-2.5,8.2-7c0-4.4-3-6.8-8.2-6.8h-7.4V127.1z M319.3,129.8h-14.7l-3.2,7.2h-1.7l11.4-25.2h1.6l11.5,25.2h-1.7
					L319.3,129.8z M318.7,128.3l-6.7-14.8l-6.7,14.8H318.7z M327.9,134.7c-0.7,0-1.2,0.5-1.2,1.3c0,0.5,0.2,0.9,0.7,1.2l-1,2.1h1
					l1.3-2.1c0.3-0.4,0.4-0.7,0.4-1.2C329.1,135.2,328.5,134.7,327.9,134.7z M356.2,111.8c-7.2,0-13,5.6-13,12.6
					c0,7,5.8,12.6,13,12.6c3.3,0,6.6-1.3,8.9-3.5l-0.9-1c-2.1,1.9-4.9,3.1-7.9,3.1c-6.4,0-11.5-5-11.5-11.2
					c0-6.2,5.1-11.1,11.5-11.1c3,0,5.8,1.2,7.9,3.1l0.9-1.2C362.7,113.1,359.5,111.8,356.2,111.8z M386.7,129.8H372l-3.2,7.2h-1.7
					l11.4-25.2h1.6l11.5,25.2H390L386.7,129.8z M386,128.3l-6.7-14.8l-6.7,14.8H386z"/>
				<path id="Line" class="st1" d="M41.6,75.5h384.2"/>
			</g>
		</g>
	</g>
</g>
</svg>
