<?xml version="1.0" encoding="UTF-8"?>
<svg width="600px" height="600px" viewBox="0 0 600 600" version="1.1" xmlns="http://www.w3.org/2000/svg" xmlns:xlink="http://www.w3.org/1999/xlink">
    <!-- Generator: Sketch 46.2 (44496) - http://www.bohemiancoding.com/sketch -->
    <title>2017-Tip-Summit-Logo-square-white</title>
    <desc>Created with Sketch.</desc>
    <defs></defs>
    <g id="2017-Summit" stroke="none" stroke-width="1" fill="none" fill-rule="evenodd">
        <g id="2017-Tip-Summit-Logo-square-white">
            <g id="Tip-Summit-Logo-2" transform="translate(0.000000, 82.000000)">
                <g id="color" transform="translate(196.000000, 0.000000)" fill="#FFFFFF">
                    <polygon id="Fill-1" points="106.473375 126.944185 109.351259 129.822069 153.147397 86.0267261 147.390834 86.0267261"></polygon>
                    <polygon id="Fill-2" points="147.390993 76.2567817 153.147556 76.2567817 109.351418 32.463028 106.473534 35.3409123"></polygon>
                    <polygon id="Fill-3" points="76.8868007 0 0.626442537 76.2563843 6.38300597 76.2563843 76.8868007 5.75576866 103.595252 32.4634254 106.473931 29.5847463"></polygon>
                    <polygon id="Fill-4" points="76.8871187 156.530441 6.38332388 86.0266466 0.626760448 86.0266466 76.8871187 162.287005 106.473454 132.700669 103.59557 129.82199"></polygon>
                    <polygon id="Fill-5" points="136.059631 156.530441 109.35118 129.82199 106.473296 126.944106 65.5558366 86.0266466 59.7992731 86.0266466 103.595411 129.82199 106.473296 132.700669 136.059631 162.287005 212.31999 86.0266466 206.563426 86.0266466"></polygon>
                    <polygon id="Fill-6" points="136.05987 0 106.473534 29.5847463 103.59565 32.4634254 59.7995116 76.2563843 65.556075 76.2563843 106.473534 35.3413097 109.351418 32.4634254 136.05987 5.75576866 206.56287 76.2563843 212.320228 76.2563843"></polygon>
                </g>
                <g id="Tip-Summit-Logo---2" transform="translate(0.000000, 188.000000)">
                    <g id="horizontal" transform="translate(126.000000, 0.000000)" fill="#FFFFFF">
                        <polygon id="Fill-7" points="5.92275914 19.0719816 5.92275914 3.37216776 0.331038187 3.37216776 0.331038187 0.504981874 14.7511364 0.504981874 14.7511364 3.37216776 9.16097303 3.37216776 9.16097303 19.0719816"></polygon>
                        <polygon id="Fill-8" points="18.3721002 19.0719816 18.3721002 0.504981874 31.0212272 0.504981874 31.0212272 3.37216776 21.6103141 3.37216776 21.6103141 8.16090601 30.8275678 8.16090601 30.8275678 11.0280919 21.6103141 11.0280919 21.6103141 16.2047957 31.0212272 16.2047957 31.0212272 19.0719816"></polygon>
                        <polygon id="Fill-9" points="35.0022002 19.0719816 35.0022002 0.504981874 38.2404141 0.504981874 38.2404141 16.2047957 46.3767056 16.2047957 46.3767056 19.0719816"></polygon>
                        <polygon id="Fill-10" points="50.1086212 19.0719816 50.1086212 0.504981874 62.7577482 0.504981874 62.7577482 3.37216776 53.3468351 3.37216776 53.3468351 8.16090601 62.5640887 8.16090601 62.5640887 11.0280919 53.3468351 11.0280919 53.3468351 16.2047957 62.7577482 16.2047957 62.7577482 19.0719816"></polygon>
                        <path d="M66.1562892,9.80205794 C66.1562892,4.06820833 70.3913558,0.198473385 75.8434136,0.198473385 C79.5530557,0.198473385 81.8780071,2.12054791 83.233623,4.34704229 L80.4938355,5.79342817 C79.6086095,4.235822 77.810121,3.09437812 75.8434136,3.09437812 C72.1908828,3.09437812 69.4786125,5.87801825 69.4786125,9.80205794 C69.4786125,13.6717929 72.1908828,16.5113042 75.8434136,16.5113042 C77.810121,16.5113042 79.6086095,15.3411415 80.4938355,13.8106877 L83.2621787,15.2022467 C81.8494514,17.4292632 79.5530557,19.4056425 75.8434136,19.4056425 C70.3913558,19.4056425 66.1562892,15.5087552 66.1562892,9.80205794 L66.1562892,9.80205794 Z" id="Fill-11"></path>
                        <path d="M101.468604,9.80205794 C101.468604,5.96104185 99.0605816,3.09437812 95.3530162,3.09437812 C91.6148184,3.09437812 89.2353516,5.96104185 89.2353516,9.80205794 C89.2353516,13.6159217 91.6148184,16.5113042 95.3530162,16.5113042 C99.0605816,16.5113042 101.468604,13.6159217 101.468604,9.80205794 M85.9135475,9.80205794 C85.9135475,4.26297437 89.8163299,0.198473385 95.3530162,0.198473385 C100.860628,0.198473385 104.790927,4.26297437 104.790927,9.80205794 C104.790927,15.3411415 100.860628,19.4056425 95.3530162,19.4056425 C89.8163299,19.4056425 85.9135475,15.3411415 85.9135475,9.80205794" id="Fill-13"></path>
                        <polygon id="Fill-15" points="124.71142 19.0719816 124.71142 4.73657437 119.065703 19.0719816 117.681532 19.0719816 112.00674 4.73657437 112.00674 19.0719816 108.769045 19.0719816 108.769045 0.504981874 113.335357 0.504981874 118.373617 13.2551084 123.382803 0.504981874 127.949634 0.504981874 127.949634 19.0719816"></polygon>
                        <polygon id="Fill-17" points="140.783127 19.0719294 144.021341 19.0719294 144.021341 0.504929658 140.783127 0.504929658"></polygon>
                        <polygon id="Fill-19" points="161.705094 19.0719816 152.071965 5.79342817 152.071965 19.0719816 148.833751 19.0719816 148.833751 0.504981874 152.156075 0.504981874 161.593986 13.3652844 161.593986 0.504981874 164.8322 0.504981874 164.8322 19.0719816"></polygon>
                        <polygon id="Fill-20" points="169.641859 19.0719816 169.641859 0.504981874 182.290986 0.504981874 182.290986 3.37216776 172.880073 3.37216776 172.880073 8.16090601 182.097326 8.16090601 182.097326 11.0280919 172.880073 11.0280919 172.880073 19.0719816"></polygon>
                        <path d="M196.954378,6.29485935 C196.954378,4.51324613 195.62576,3.37180225 193.798716,3.37180225 L189.341954,3.37180225 L189.341954,9.27378769 L193.798716,9.27378769 C195.62576,9.27378769 196.954378,8.10519144 196.954378,6.29485935 L196.954378,6.29485935 Z M196.649611,19.0721383 L192.580168,12.1404514 L189.341954,12.1404514 L189.341954,19.0721383 L186.10374,19.0721383 L186.10374,0.505138522 L194.213033,0.505138522 C197.867122,0.505138522 200.275144,2.87052771 200.275144,6.32357821 C200.275144,9.60744855 198.116335,11.4172585 195.874974,11.7780717 L200.41325,19.0721383 L196.649611,19.0721383 Z" id="Fill-21"></path>
                        <path d="M211.756032,3.76149098 L208.435266,12.6147302 L215.078356,12.6147302 L211.756032,3.76149098 Z M217.347753,19.0717728 L215.991099,15.4819161 L207.520966,15.4819161 L206.165869,19.0717728 L202.484782,19.0717728 L209.736886,0.504773009 L213.776736,0.504773009 L221.02884,19.0717728 L217.347753,19.0717728 Z" id="Fill-22"></path>
                        <path d="M243.10674,5.93253186 C243.10674,3.59533936 241.501911,1.95262095 239.038335,1.95262095 L233.862488,1.95262095 L233.862488,9.91400925 L239.038335,9.91400925 C241.501911,9.91400925 243.10674,8.24413847 243.10674,5.93253186 L243.10674,5.93253186 Z M232.284657,19.0721905 L232.284657,0.505190738 L239.204996,0.505190738 C242.747977,0.505190738 244.76868,3.01104123 244.76868,5.93253186 C244.76868,8.85558896 242.719421,11.3614395 239.204996,11.3614395 L233.862488,11.3614395 L233.862488,19.0721905 L232.284657,19.0721905 Z" id="Fill-23"></path>
                        <path d="M259.819392,5.93253186 C259.819392,3.59533936 258.186007,1.95262095 255.722431,1.95262095 L250.546584,1.95262095 L250.546584,9.94220594 L255.722431,9.94220594 C258.186007,9.94220594 259.819392,8.27129084 259.819392,5.93253186 L259.819392,5.93253186 Z M259.790836,19.0721905 L254.616547,11.3885918 L250.546584,11.3885918 L250.546584,19.0721905 L248.968753,19.0721905 L248.968753,0.505190738 L255.860537,0.505190738 C259.044754,0.505190738 261.479775,2.53691907 261.479775,5.93253186 C261.479775,9.30099227 259.127306,11.1666734 256.358963,11.2768494 L261.70199,19.0721905 L259.790836,19.0721905 Z" id="Fill-24"></path>
                        <path d="M281.874811,9.80205794 C281.874811,5.0973876 278.99536,1.64642575 274.567154,1.64642575 C270.111429,1.64642575 267.260534,5.0973876 267.260534,9.80205794 C267.260534,14.4790537 270.111429,17.9592566 274.567154,17.9592566 C278.99536,17.9592566 281.874811,14.4790537 281.874811,9.80205794 M265.599113,9.80205794 C265.599113,4.37471682 269.141575,0.198473385 274.567154,0.198473385 C279.963658,0.198473385 283.535194,4.37471682 283.535194,9.80205794 C283.535194,15.2309655 279.963658,19.4056425 274.567154,19.4056425 C269.141575,19.4056425 265.599113,15.2309655 265.599113,9.80205794" id="Fill-25"></path>
                        <path d="M285.852929,17.1229114 L286.821226,15.8984439 C287.652975,17.0127354 288.786376,17.9594133 290.503351,17.9594133 C293.020923,17.9594133 294.598754,16.2049524 294.598754,13.7001462 L294.598754,0.505138522 L296.176585,0.505138522 L296.176585,13.7001462 C296.176585,17.5683147 293.659013,19.4057991 290.585902,19.4057991 C288.592716,19.4057991 287.070439,18.7097586 285.852929,17.1229114" id="Fill-26"></path>
                        <polygon id="Fill-27" points="301.652889 19.0719816 301.652889 0.504981874 313.360717 0.504981874 313.360717 1.95293424 303.23072 1.95293424 303.23072 8.82822773 313.167058 8.82822773 313.167058 10.2761801 303.23072 10.2761801 303.23072 17.6240293 313.360717 17.6240293 313.360717 19.0719816"></polygon>
                        <path d="M317.451344,9.80205794 C317.451344,4.09692718 321.576341,0.198473385 326.806703,0.198473385 C329.741708,0.198473385 331.98255,1.50753094 333.533383,3.48391021 L332.204765,4.34704229 C331.04177,2.73199841 329.021066,1.64642575 326.806703,1.64642575 C322.489085,1.64642575 319.113284,4.95849278 319.113284,9.80205794 C319.113284,14.5907962 322.489085,17.9592566 326.806703,17.9592566 C329.021066,17.9592566 331.04177,16.8721175 332.204765,15.2581179 L333.560381,16.0930533 C331.899998,18.1253038 329.741708,19.4056425 326.806703,19.4056425 C321.576341,19.4056425 317.451344,15.5087552 317.451344,9.80205794" id="Fill-28"></path>
                        <polygon id="Fill-29" points="342.300391 19.0719816 342.300391 1.95293424 336.265798 1.95293424 336.265798 0.504981874 349.938256 0.504981874 349.938256 1.95293424 343.90522 1.95293424 343.90522 19.0719816"></polygon>
                    </g>
                    <path d="M87.2772656,66.24 C80.7972656,66.24 74.3892656,68.976 68.9172656,73.44 L72.3012656,79.992 C76.5492656,76.104 81.6612656,73.656 86.0532656,73.656 C91.3092656,73.656 94.4772656,76.104 94.4772656,80.136 C94.4772656,83.016 92.0292656,87.12 88.3572656,90.864 L69.7812656,110.808 L69.7812656,117 L105.637266,117 L105.637266,109.368 L81.0132656,109.368 L94.1172656,95.472 C99.4452656,89.712 103.333266,84.024 103.333266,78.912 C103.333266,71.208 96.7812656,66.24 87.2772656,66.24 Z M133.789266,66.384 C147.541266,66.384 155.173266,75.456 155.173266,91.8 C155.173266,108.144 147.541266,117.216 133.789266,117.216 C119.965266,117.216 112.333266,108.144 112.333266,91.8 C112.333266,75.456 119.965266,66.384 133.789266,66.384 Z M133.789266,73.08 C125.293266,73.08 121.045266,78.984 121.045266,91.8 C121.045266,104.544 125.293266,110.52 133.789266,110.52 C142.213266,110.52 146.461266,104.544 146.461266,91.8 C146.461266,78.984 142.213266,73.08 133.789266,73.08 Z M177.925266,117 L177.925266,66.6 L159.565266,66.6 L159.565266,74.16 L169.429266,74.16 L169.429266,117 L177.925266,117 Z M225.805266,73.08 L225.805266,66.6 L189.157266,66.6 L189.157266,81.288 L196.645266,81.288 L196.717266,74.232 L216.301266,74.232 L196.717266,117 L205.717266,117 L225.805266,73.08 Z M269.293266,66.24 C258.349266,66.24 250.933266,71.64 250.933266,80.28 C250.933266,98.208 278.149266,91.944 278.149266,103.176 C278.149266,107.064 274.621266,109.296 268.717266,109.296 C263.317266,109.296 256.837266,106.704 251.653266,101.952 L247.981266,109.296 C253.165266,114.048 260.653266,117.288 268.573266,117.288 C279.661266,117.288 287.581266,111.744 287.581266,102.744 C287.653266,84.6 260.437266,90.504 260.437266,79.488 C260.437266,76.104 263.677266,74.232 268.645266,74.232 C272.461266,74.232 277.933266,75.6 283.405266,78.912 L286.933266,71.424 C282.253266,68.328 275.845266,66.24 269.293266,66.24 Z M331.789266,78.696 L323.509266,78.696 L323.509266,97.56 C323.509266,104.256 319.621266,109.368 312.997266,109.512 C307.453266,109.512 304.069266,105.984 304.069266,100.224 L304.069266,78.696 L295.789266,78.696 L295.789266,102.528 C295.789266,111.672 301.045266,117.288 309.829266,117.288 C316.093266,117.216 320.917266,114.84 323.509266,109.512 L323.509266,117 L331.789266,117 L331.789266,78.696 Z M393.997266,78.408 C387.013266,78.408 381.901266,81.216 379.453266,87.624 C377.653266,81.792 372.973266,78.408 366.133266,78.408 C359.797266,78.408 354.901266,80.712 352.237266,86.112 L352.237266,78.696 L344.029266,78.696 L344.029266,117 L352.237266,117 L352.237266,98.064 C352.237266,91.368 356.269266,86.328 362.893266,86.112 C368.509266,86.112 371.893266,89.64 371.893266,95.472 L371.893266,117 L380.173266,117 L380.173266,98.064 C380.173266,91.368 384.133266,86.328 390.685266,86.112 C396.301266,86.112 399.757266,89.64 399.757266,95.472 L399.757266,117 L408.037266,117 L408.037266,93.168 C408.037266,84.024 402.781266,78.408 393.997266,78.408 Z M469.093266,78.408 C462.109266,78.408 456.997266,81.216 454.549266,87.624 C452.749266,81.792 448.069266,78.408 441.229266,78.408 C434.893266,78.408 429.997266,80.712 427.333266,86.112 L427.333266,78.696 L419.125266,78.696 L419.125266,117 L427.333266,117 L427.333266,98.064 C427.333266,91.368 431.365266,86.328 437.989266,86.112 C443.605266,86.112 446.989266,89.64 446.989266,95.472 L446.989266,117 L455.269266,117 L455.269266,98.064 C455.269266,91.368 459.229266,86.328 465.781266,86.112 C471.397266,86.112 474.853266,89.64 474.853266,95.472 L474.853266,117 L483.133266,117 L483.133266,93.168 C483.133266,84.024 477.877266,78.408 469.093266,78.408 Z M498.325266,62.712 C495.589266,62.712 493.501266,64.8 493.501266,67.752 C493.501266,70.632 495.589266,72.72 498.325266,72.72 C501.061266,72.72 503.149266,70.632 503.149266,67.752 C503.149266,64.8 501.061266,62.712 498.325266,62.712 Z M502.429266,117 L502.429266,78.696 L494.221266,78.696 L494.221266,117 L502.429266,117 Z M534.253266,108.216 C532.021266,109.296 530.221266,109.872 528.493266,109.872 C525.901266,109.872 524.389266,108.648 524.389266,104.688 L524.389266,86.328 L535.693266,86.328 L535.693266,80.136 L524.389266,80.136 L524.389266,69.624 L516.181266,69.624 L516.181266,80.136 L510.781266,80.136 L510.781266,86.328 L516.181266,86.328 L516.181266,106.2 C516.181266,114.048 521.149266,117.36 526.909266,117.36 C530.149266,117.36 533.317266,116.352 536.341266,114.552 L534.253266,108.216 Z" id="2017-Summit" fill="#FFFFFF"></path>
                    <path d="M154.543266,193.764 C149.575266,193.764 146.263266,196.104 146.263266,199.74 C146.263266,208.812 161.059266,204.78 160.987266,212.664 C160.987266,215.616 158.215266,217.488 153.895266,217.488 C150.943266,217.488 147.739266,216.192 145.687266,214.068 L144.895266,215.4 C147.091266,217.56 150.511266,219.036 153.859266,219.036 C159.115266,219.036 162.607266,216.516 162.607266,212.628 C162.679266,203.34 147.883266,207.3 147.883266,199.632 C147.883266,197.004 150.475266,195.348 154.471266,195.348 C156.631266,195.348 159.187266,195.96 161.059266,197.184 L161.743266,195.816 C159.871266,194.592 157.099266,193.764 154.543266,193.764 Z M184.999266,211.836 L170.275266,211.836 L167.035266,219 L165.379266,219 L176.791266,193.836 L178.411266,193.836 L189.931266,219 L188.275266,219 L184.999266,211.836 Z M184.315266,210.324 L177.583266,195.564 L170.923266,210.324 L184.315266,210.324 Z M214.591266,219 L214.591266,193.836 L213.115266,193.836 L213.115266,216.696 L196.303266,193.836 L194.539266,193.836 L194.539266,219 L196.051266,219 L196.051266,196.14 L212.827266,219 L214.591266,219 Z M237.847266,195.312 L237.847266,193.836 L219.343266,193.836 L219.343266,195.312 L227.839266,195.312 L227.839266,219 L229.351266,219 L229.351266,195.312 L237.847266,195.312 Z M258.187266,211.836 L243.463266,211.836 L240.223266,219 L238.567266,219 L249.979266,193.836 L251.599266,193.836 L263.119266,219 L261.463266,219 L258.187266,211.836 Z M257.503266,210.324 L250.771266,195.564 L244.111266,210.324 L257.503266,210.324 Z M288.535266,193.8 C281.371266,193.8 275.539266,199.416 275.539266,206.4 C275.539266,213.384 281.371266,219.036 288.535266,219.036 C291.883266,219.036 295.087266,217.704 297.427266,215.544 L296.491266,214.5 C294.367266,216.408 291.559266,217.56 288.571266,217.56 C282.199266,217.56 277.051266,212.556 277.051266,206.364 C277.051266,200.208 282.199266,195.24 288.571266,195.24 C291.559266,195.24 294.403266,196.392 296.491266,198.336 L297.391266,197.184 C295.051266,195.096 291.919266,193.8 288.535266,193.8 Z M305.023266,217.524 L305.023266,193.836 L303.511266,193.836 L303.511266,219 L316.219266,219 L316.219266,217.524 L305.023266,217.524 Z M337.135266,211.836 L322.411266,211.836 L319.171266,219 L317.515266,219 L328.927266,193.836 L330.547266,193.836 L342.067266,219 L340.411266,219 L337.135266,211.836 Z M336.451266,210.324 L329.719266,195.564 L323.059266,210.324 L336.451266,210.324 Z M363.631266,219 L357.691266,210.468 C357.007266,210.576 356.323266,210.612 355.567266,210.612 L348.187266,210.612 L348.187266,219 L346.675266,219 L346.675266,193.836 L355.567266,193.836 C361.795266,193.836 365.323266,196.86 365.323266,202.116 C365.323266,206.4 363.127266,209.208 359.131266,210.216 L365.431266,219 L363.631266,219 Z M348.187266,209.136 L355.603266,209.136 C360.859266,209.136 363.847266,206.652 363.847266,202.152 C363.847266,197.724 360.859266,195.312 355.603266,195.312 L348.187266,195.312 L348.187266,209.136 Z M388.255266,211.836 L373.531266,211.836 L370.291266,219 L368.635266,219 L380.047266,193.836 L381.667266,193.836 L393.187266,219 L391.531266,219 L388.255266,211.836 Z M387.571266,210.324 L380.839266,195.564 L374.179266,210.324 L387.571266,210.324 Z M396.787266,216.696 C396.103266,216.696 395.563266,217.236 395.563266,217.992 C395.563266,218.496 395.779266,218.928 396.247266,219.144 L395.239266,221.196 L396.247266,221.196 L397.579266,219.144 C397.831266,218.748 398.011266,218.424 398.011266,217.992 C398.011266,217.236 397.435266,216.696 396.787266,216.696 Z M425.083266,193.8 C417.919266,193.8 412.087266,199.416 412.087266,206.4 C412.087266,213.384 417.919266,219.036 425.083266,219.036 C428.431266,219.036 431.635266,217.704 433.975266,215.544 L433.039266,214.5 C430.915266,216.408 428.107266,217.56 425.119266,217.56 C418.747266,217.56 413.599266,212.556 413.599266,206.364 C413.599266,200.208 418.747266,195.24 425.119266,195.24 C428.107266,195.24 430.951266,196.392 433.039266,198.336 L433.939266,197.184 C431.599266,195.096 428.467266,193.8 425.083266,193.8 Z M455.647266,211.836 L440.923266,211.836 L437.683266,219 L436.027266,219 L447.439266,193.836 L449.059266,193.836 L460.579266,219 L458.923266,219 L455.647266,211.836 Z M454.963266,210.324 L448.231266,195.564 L441.571266,210.324 L454.963266,210.324 Z" id="Santa-Clara,-Ca" fill="#FFFFFF"></path>
                    <path d="M110.5,157.5 L494.673138,157.5" id="Line" stroke="#FFFFFF" stroke-linecap="square"></path>
                </g>
            </g>
        </g>
    </g>
</svg>