<?xml version="1.0" encoding="UTF-8"?>
<svg width="27px" height="26px" viewBox="0 0 27 26" version="1.1" xmlns="http://www.w3.org/2000/svg" xmlns:xlink="http://www.w3.org/1999/xlink">
    <!-- Generator: Sketch 47 (45396) - http://www.bohemiancoding.com/sketch -->
    <title>Twitter</title>
    <desc>Created with Sketch.</desc>
    <defs></defs>
    <g id="Footer" stroke="none" stroke-width="1" fill="none" fill-rule="evenodd">
        <g id="Footer-#1-" transform="translate(-1134.000000, -112.000000)" fill="#FFFFFF">
            <g id="4" transform="translate(1038.000000, -53.000000)">
                <g id="Social" transform="translate(1.000000, 165.000000)">
                    <g id="Twitter" transform="translate(95.000000, 0.000000)">
                        <path d="M13.051,26 C5.843,26 0,20.18 0,13 C0,5.82 5.843,0 13.051,0 C20.259,0 26.102,5.82 26.102,13 C26.102,20.18 20.259,26 13.051,26 L13.051,26 Z M20.455,7.649 C19.833,7.992 19.145,8.242 18.413,8.377 C17.827,7.793 16.992,7.43 16.067,7.43 C14.292,7.43 12.853,8.773 12.853,10.43 C12.853,10.665 12.881,10.895 12.936,11.113 C10.265,10.988 7.896,9.794 6.311,7.978 C6.034,8.422 5.876,8.937 5.876,9.487 C5.876,10.528 6.443,11.447 7.306,11.985 C6.779,11.969 6.283,11.834 5.85,11.609 L5.85,11.647 C5.85,13.101 6.958,14.314 8.428,14.589 C8.159,14.658 7.874,14.694 7.581,14.694 C7.374,14.694 7.173,14.676 6.976,14.641 C7.385,15.832 8.572,16.7 9.979,16.725 C8.879,17.529 7.493,18.009 5.987,18.009 C5.728,18.009 5.472,17.995 5.22,17.968 C6.643,18.818 8.333,19.315 10.147,19.315 C16.06,19.315 19.293,14.742 19.293,10.778 C19.293,10.647 19.289,10.518 19.283,10.389 C19.911,9.966 20.456,9.438 20.887,8.837 C20.311,9.076 19.691,9.236 19.041,9.309 C19.705,8.937 20.214,8.349 20.455,7.649 L20.455,7.649 Z" id="Shape"></path>
                    </g>
                </g>
            </g>
        </g>
    </g>
</svg>