<?xml version="1.0" encoding="UTF-8"?>
<svg width="27px" height="26px" viewBox="0 0 27 26" version="1.1" xmlns="http://www.w3.org/2000/svg" xmlns:xlink="http://www.w3.org/1999/xlink">
    <!-- Generator: Sketch 47 (45396) - http://www.bohemiancoding.com/sketch -->
    <title>Linkedin</title>
    <desc>Created with Sketch.</desc>
    <defs></defs>
    <g id="Footer" stroke="none" stroke-width="1" fill="none" fill-rule="evenodd">
        <g id="Footer-#1-" transform="translate(-1087.000000, -112.000000)" fill="#FFFFFF">
            <g id="4" transform="translate(1038.000000, -53.000000)">
                <g id="Social" transform="translate(1.000000, 165.000000)">
                    <g id="Linkedin" transform="translate(47.000000, 0.000000)">
                        <path d="M14.043,26 C6.835,26 0.992,20.18 0.992,13 C0.992,5.82 6.835,0 14.043,0 C21.251,0 27.094,5.82 27.094,13 C27.094,20.18 21.251,26 14.043,26 L14.043,26 Z M7.861,19.327 L10.74,19.327 L10.74,11.288 L7.861,11.288 L7.861,19.327 L7.861,19.327 Z M9.32,7.414 C8.335,7.414 7.691,8.014 7.691,8.802 C7.691,9.574 8.316,10.191 9.282,10.191 L9.301,10.191 C10.305,10.191 10.929,9.574 10.929,8.802 C10.911,8.014 10.305,7.414 9.32,7.414 L9.32,7.414 Z M21.12,14.718 C21.12,12.248 19.699,11.099 17.806,11.099 C16.277,11.099 15.594,11.879 15.212,12.427 L15.212,11.288 L12.333,11.288 C12.371,12.043 12.333,19.327 12.333,19.327 L15.212,19.327 L15.212,14.838 C15.212,14.598 15.23,14.357 15.306,14.187 C15.514,13.706 15.988,13.209 16.783,13.209 C17.825,13.209 18.241,13.946 18.241,15.027 L18.241,19.327 L21.12,19.327 L21.12,14.718 L21.12,14.718 Z M15.192,12.454 C15.198,12.445 15.206,12.436 15.212,12.427 L15.212,12.454 L15.192,12.454 L15.192,12.454 Z" id="Shape"></path>
                    </g>
                </g>
            </g>
        </g>
    </g>
</svg>