<?xml version="1.0" encoding="utf-8"?>
<!-- Generator: Adobe Illustrator 21.0.2, SVG Export Plug-In . SVG Version: 6.00 Build 0)  -->
<svg version="1.1" id="Layer_1" xmlns="http://www.w3.org/2000/svg" xmlns:xlink="http://www.w3.org/1999/xlink" x="0px" y="0px"
	 viewBox="0 0 800 400" style="enable-background:new 0 0 800 400;" xml:space="preserve">
<style type="text/css">
	.st0{opacity:0.8;fill:#FFFFFF;}
	.st1{fill:none;}
	.st2{font-family:'Montserrat-Bold';}
	.st3{font-size:21px;}
	.st4{font-family:'Avenir-Medium';}
	.st5{font-size:18px;}
	.st6{stroke:#FFFFFF;stroke-miterlimit:10;}
	.st7{fill:#C0D143;}
	.st8{display:none;}
	.st9{display:inline;stroke:#FFFFFF;stroke-miterlimit:10;}
	.st10{display:inline;fill:none;}
	.st11{display:inline;fill:#C0D143;}
	.st12{display:inline;}
	.st13{font-size:16px;}
	.st14{font-size:14px;}
</style>
<g>
	<defs>
		<rect id="Mask_to_artboard" width="800" height="400"/>
	</defs>
	<use xlink:href="#Mask_to_artboard"  style="overflow:visible;fill:#FFFFFF;"/>
	<clipPath id="Mask_to_artboard_1_">
		<use xlink:href="#Mask_to_artboard"  style="overflow:visible;"/>
	</clipPath>
	<g style="clip-path:url(#Mask_to_artboard_1_);">
		
			<image style="overflow:visible;" width="3152" height="2090" xlink:href="5D44243678F8CAE0.png"  transform="matrix(0.8321 0 0 0.8321 208.6296 -1325.7635)">
		</image>
	</g>
</g>
<rect x="521.7" y="-0.5" class="st0" width="278.7" height="83.3"/>
<rect x="766.1" y="85.5" class="st0" width="33.7" height="263.4"/>
<rect x="18.9" y="16.4" class="st1" width="359.6" height="22.6"/>
<text transform="matrix(1 0 0 1 18.9434 32.0099)" class="st2 st3">Santa Clara Convention Center</text>
<rect x="20" y="44.4" class="st1" width="332.1" height="47.4"/>
<text transform="matrix(1 0 0 1 19.9716 57.9656)"><tspan x="0" y="0" class="st4 st5">2nd Floor Meeting Rooms </tspan><tspan x="0" y="21.6" class="st4 st5">for Day 2 TIP Project Group Sessions</tspan></text>
<g>
	<path class="st6" d="M564.9,186.2h-23.3c-6,0-10.8-4.9-10.8-10.8v0c0-6,4.9-10.8,10.8-10.8h23.3c6,0,10.8,4.9,10.8,10.8v0
		C575.7,181.3,570.9,186.2,564.9,186.2z"/>
	<rect x="535.6" y="167" class="st1" width="35.8" height="19.5"/>
	<text transform="matrix(1 0 0 1 535.9974 182.8663)" class="st7 st4 st3">204</text>
</g>
<g>
	<path d="M53.7,204.4H30.3c-6,0-10.8-4.9-10.8-10.8v0c0-6,4.9-10.8,10.8-10.8h23.3c6,0,10.8,4.9,10.8,10.8v0
		C64.5,199.5,59.6,204.4,53.7,204.4z"/>
	<rect x="24.4" y="185.2" class="st1" width="35.8" height="19.5"/>
	<text transform="matrix(1 0 0 1 24.7722 201.027)" class="st7 st4 st3">204</text>
</g>
<g>
	<path class="st6" d="M599.7,157.6h-23.3c-6,0-10.8-4.9-10.8-10.8v0c0-6,4.9-10.8,10.8-10.8h23.3c6,0,10.8,4.9,10.8,10.8v0
		C610.5,152.7,605.6,157.6,599.7,157.6z"/>
	<rect x="570.4" y="138.4" class="st1" width="35.8" height="19.5"/>
	<text transform="matrix(1 0 0 1 570.7598 154.2281)" class="st7 st4 st3">203</text>
</g>
<g class="st8">
	<path class="st9" d="M597.2,299.9h-23.3c-6,0-10.8-4.9-10.8-10.8v0c0-6,4.9-10.8,10.8-10.8h23.3c6,0,10.8,4.9,10.8,10.8v0
		C608.1,295,603.2,299.9,597.2,299.9z"/>
	<rect x="567.9" y="280.7" class="st10" width="35.8" height="19.5"/>
	<text transform="matrix(1 0 0 1 568.3162 296.5876)" class="st11 st4 st3">207</text>
</g>
<g class="st8">
	<path class="st12" d="M56.7,225.3H33.3c-6,0-10.8-4.9-10.8-10.8v0c0-6,4.9-10.8,10.8-10.8h23.3c6,0,10.8,4.9,10.8,10.8v0
		C67.5,220.4,62.6,225.3,56.7,225.3z"/>
	<rect x="27.4" y="206.1" class="st10" width="35.8" height="19.5"/>
	<text transform="matrix(1 0 0 1 27.7722 221.927)" class="st11 st4 st3">207</text>
</g>
<g>
	<path class="st6" d="M677.2,300.7h-23.3c-6,0-10.8-4.9-10.8-10.8l0,0c0-6,4.9-10.8,10.8-10.8h23.3c6,0,10.8,4.9,10.8,10.8l0,0
		C688,295.9,683.1,300.7,677.2,300.7z"/>
	<rect x="647.9" y="281.5" class="st1" width="35.8" height="19.5"/>
	<text transform="matrix(1 0 0 1 648.2725 297.3964)" class="st7 st4 st3">209</text>
</g>
<g>
	<path class="st6" d="M711.4,267.2H688c-6,0-10.8-4.9-10.8-10.8l0,0c0-6,4.9-10.8,10.8-10.8h23.3c6,0,10.8,4.9,10.8,10.8l0,0
		C722.2,262.3,717.3,267.2,711.4,267.2z"/>
	<rect x="682.1" y="248" class="st1" width="35.8" height="19.5"/>
	<text transform="matrix(1 0 0 1 682.4637 263.8864)" class="st7 st4 st3">210</text>
</g>
<g>
	<path class="st6" d="M705.4,227.8h-23.3c-6,0-10.8-4.9-10.8-10.8v0c0-6,4.9-10.8,10.8-10.8h23.3c6,0,10.8,4.9,10.8,10.8v0
		C716.3,222.9,711.4,227.8,705.4,227.8z"/>
	<rect x="676.2" y="208.6" class="st1" width="35.8" height="19.5"/>
	<text transform="matrix(1 0 0 1 676.5275 224.4401)" class="st7 st4 st3">211</text>
</g>
<g>
	<path class="st6" d="M53.7,334.9H30.3c-6,0-10.8-4.9-10.8-10.8v0c0-6,4.9-10.8,10.8-10.8h23.3c6,0,10.8,4.9,10.8,10.8v0
		C64.5,330,59.6,334.9,53.7,334.9z"/>
	<rect x="24.4" y="315.7" class="st1" width="35.8" height="19.5"/>
	<text transform="matrix(1 0 0 1 24.7727 331.527)" class="st7 st4 st3">211</text>
</g>
<g>
	<path d="M53.7,257.9H30.3c-6,0-10.8-4.9-10.8-10.8v0c0-6,4.9-10.8,10.8-10.8h23.3c6,0,10.8,4.9,10.8,10.8v0
		C64.5,253,59.6,257.9,53.7,257.9z"/>
	<rect x="24.4" y="238.7" class="st1" width="35.8" height="19.5"/>
	<text transform="matrix(1 0 0 1 24.7722 254.527)" class="st7 st4 st3">209</text>
</g>
<g>
	<path d="M53.7,296.4H30.3c-6,0-10.8-4.9-10.8-10.8v0c0-6,4.9-10.8,10.8-10.8h23.3c6,0,10.8,4.9,10.8,10.8v0
		C64.5,291.5,59.6,296.4,53.7,296.4z"/>
	<rect x="24.4" y="277.2" class="st1" width="35.8" height="19.5"/>
	<text transform="matrix(1 0 0 1 24.7722 293.027)" class="st7 st4 st3">210</text>
</g>
<g>
	<path d="M53.7,165.9H30.3c-6,0-10.8-4.9-10.8-10.8v0c0-6,4.9-10.8,10.8-10.8h23.3c6,0,10.8,4.9,10.8,10.8v0
		C64.5,161,59.6,165.9,53.7,165.9z"/>
	<rect x="24.4" y="146.7" class="st1" width="35.8" height="19.5"/>
	<text transform="matrix(1 0 0 1 24.7722 162.527)" class="st7 st4 st3">203</text>
</g>
<rect x="80.9" y="147" class="st1" width="156.5" height="20.9"/>
<text transform="matrix(1 0 0 1 80.8946 159.0474)" class="st4 st13">Edge Computing </text>
<rect x="260.9" y="147" class="st1" width="156.5" height="20.9"/>
<text transform="matrix(1 0 0 1 260.8946 159.0474)" class="st4 st13">1:30 - 3:30pm</text>
<rect x="260.9" y="184" class="st1" width="156.5" height="20.9"/>
<text transform="matrix(1 0 0 1 260.8946 196.0474)" class="st4 st13">11:00am - 1:00pm</text>
<rect x="260.9" y="238" class="st1" width="176.5" height="20.9"/>
<text transform="matrix(1 0 0 1 260.8946 250.0474)" class="st4 st13">10:30am - 12:30pm</text>
<rect x="260.9" y="278" class="st1" width="176.5" height="20.9"/>
<text transform="matrix(1 0 0 1 260.8946 290.0474)" class="st4 st13">11:00am - 3:00pm</text>
<rect x="260.9" y="317" class="st1" width="176.5" height="20.9"/>
<text transform="matrix(1 0 0 1 260.8946 329.0474)" class="st4 st13">TBD</text>
<rect x="79.2" y="184.6" class="st1" width="147.6" height="39"/>
<text transform="matrix(1 0 0 1 79.1557 196.6951)"><tspan x="0" y="0" class="st4 st13">Open Optical </tspan><tspan x="0" y="19.2" class="st4 st13">Packet Transport</tspan></text>
<rect x="79.2" y="239.6" class="st1" width="116.8" height="20.9"/>
<text transform="matrix(1 0 0 1 79.1557 251.6951)" class="st4 st13">mmWave</text>
<rect x="79.2" y="278.6" class="st1" width="126.4" height="20.9"/>
<text transform="matrix(1 0 0 1 79.1557 290.6951)" class="st4 st13">OpenCellular</text>
<rect x="79.2" y="316.6" class="st1" width="189.1" height="43.3"/>
<text transform="matrix(1 0 0 1 79.1557 328.6951)"><tspan x="0" y="0" class="st4 st13">System Integration </tspan><tspan x="0" y="19.2" class="st4 st13">and Site Optimization</tspan></text>
<rect x="22.3" y="112.8" class="st1" width="67.3" height="20.9"/>
<text transform="matrix(1 0 0 1 22.2869 123.4021)" class="st4 st14">ROOM</text>
<rect x="81.3" y="112.8" class="st1" width="136.7" height="20.9"/>
<text transform="matrix(1 0 0 1 81.2869 123.4021)" class="st4 st14">PROJECT GROUP</text>
<rect x="261.3" y="112.8" class="st1" width="136.7" height="20.9"/>
<text transform="matrix(1 0 0 1 261.2869 123.4021)" class="st4 st14">SESSION TIME</text>
</svg>
