<svg xmlns="http://www.w3.org/2000/svg" viewBox="0 0 418.47 346.76"><defs><style>.cls-1,.cls-11{font-size:21px;}.cls-1{font-family:Montserrat-Bold, Montserrat;font-weight:700;}.cls-2{letter-spacing:-0.01em;}.cls-3{letter-spacing:-0.01em;}.cls-4{letter-spacing:-0.01em;}.cls-5{letter-spacing:-0.02em;}.cls-6{letter-spacing:-0.01em;}.cls-7{letter-spacing:0em;}.cls-8{font-size:18px;}.cls-10,.cls-11,.cls-12,.cls-8{font-family:Avenir-Medium, Avenir;}.cls-9{letter-spacing:-0.02em;}.cls-10{font-size:14px;}.cls-11{fill:#c0d143;}.cls-12{font-size:16px;}</style></defs><title>TIP-Summit-2017-Map-Agenda-Wed1030</title><g id="Layer_1" data-name="Layer 1"><text class="cls-1" transform="translate(0 17.86)">Santa Cla<tspan class="cls-2" x="102.4" y="0">r</tspan><tspan x="111.11" y="0">a </tspan><tspan class="cls-3" x="130.03" y="0">C</tspan><tspan x="144.31" y="0">o</tspan><tspan class="cls-4" x="157.71" y="0">n</tspan><tspan class="cls-5" x="171.72" y="0">v</tspan><tspan x="183.43" y="0">ention </tspan><tspan class="cls-6" x="259.85" y="0">C</tspan><tspan x="274.13" y="0">en</tspan><tspan class="cls-7" x="300.95" y="0">t</tspan><tspan x="310.06" y="0">er</tspan></text><text class="cls-8" transform="translate(1.03 43.82)">2nd Floor Meeting Rooms <tspan x="0" y="21.6">for Day 2 TIP P</tspan><tspan class="cls-9" x="121.73" y="21.6">r</tspan><tspan x="128.07" y="21.6">oject G</tspan><tspan class="cls-9" x="187.43" y="21.6">r</tspan><tspan x="193.77" y="21.6">oup Sessions</tspan></text><text class="cls-10" transform="translate(3.34 176.1)">ROOM</text><text class="cls-10" transform="translate(62.34 176.1)">PROJECT GROUP</text><text class="cls-10" transform="translate(242.34 176.1)">SESSION TIME</text></g><g id="day_2" data-name="day 2"><rect x="0.54" y="197.9" width="45.03" height="21.68" rx="10.84" ry="10.84"/><text class="cls-11" transform="translate(5.83 216.25)">205</text><rect x="0.54" y="243.31" width="45.03" height="21.68" rx="10.84" ry="10.84"/><text class="cls-11" transform="translate(5.83 261.66)">203</text><text class="cls-12" transform="translate(61.95 258.18)">OpenRAN</text><text class="cls-12" transform="translate(241.95 258.18)">1:40pm - 2:20pm</text><text class="cls-12" transform="translate(241.95 211.77)">1:00pm - 1:40pm</text><text class="cls-12" transform="translate(60.21 213.42)">5G Network Slicing</text><rect x="0.54" y="282.45" width="45.03" height="21.68" rx="10.84" ry="10.84"/><text class="cls-11" transform="translate(5.83 300.8)">209</text><text class="cls-12" transform="translate(241.95 296.32)">2:20pm - 3:00pm</text><text class="cls-12" transform="translate(60.21 297.96)">Artificial Intelligence <tspan x="0" y="19.2">and Applied Machine </tspan><tspan x="0" y="38.4">Learning</tspan></text></g></svg>