<svg id="Layer_1" data-name="Layer 1" xmlns="http://www.w3.org/2000/svg" viewBox="0 0 380.19 248.51"><defs><style>.cls-1{fill:#c0d143;}.cls-2{fill:#fff;}</style></defs><title>TIP-Summit-2017-Map-Agenda</title><rect x="0.5" y="31.15" width="45.03" height="21.68" rx="10.84" ry="10.84"/><path class="cls-1" d="M14.79,67.25l6-5.92a7.62,7.62,0,0,0,.61-.64,5.86,5.86,0,0,0,.52-.72,3.78,3.78,0,0,0,.37-.8,2.84,2.84,0,0,0,.14-.88,2.37,2.37,0,0,0-.2-1,2.17,2.17,0,0,0-.55-.75,2.51,2.51,0,0,0-.82-.47,3,3,0,0,0-1-.17,2.68,2.68,0,0,0-1.81.61,2.75,2.75,0,0,0-.9,1.68L14.94,58a4.67,4.67,0,0,1,.58-1.71,4.14,4.14,0,0,1,1.07-1.21,4.35,4.35,0,0,1,1.47-.71,6.66,6.66,0,0,1,1.8-.23,6.13,6.13,0,0,1,1.82.26,4.43,4.43,0,0,1,1.49.78,3.63,3.63,0,0,1,1,1.28,4.12,4.12,0,0,1,.37,1.8,4.18,4.18,0,0,1-.22,1.38,5.8,5.8,0,0,1-.58,1.21,7.5,7.5,0,0,1-.82,1.07q-.46.5-1,1l-4.89,4.73h7.48v1.76H14.79Z" transform="translate(-8.04 -19.9)"/><path class="cls-1" d="M26.22,62q0-.82.08-1.7a11.09,11.09,0,0,1,.3-1.73,9.19,9.19,0,0,1,.59-1.63,4.8,4.8,0,0,1,.95-1.35,4.43,4.43,0,0,1,1.36-.92,5,5,0,0,1,3.67,0,4.43,4.43,0,0,1,1.37.92,4.82,4.82,0,0,1,.94,1.35,9.23,9.23,0,0,1,.59,1.63,11.09,11.09,0,0,1,.3,1.73q.08.88.08,1.7a16.4,16.4,0,0,1-.21,2.52,8.67,8.67,0,0,1-.78,2.5,5.28,5.28,0,0,1-1.56,1.91,4.14,4.14,0,0,1-2.57.76,4.14,4.14,0,0,1-2.57-.76A5.27,5.27,0,0,1,27.21,67a8.67,8.67,0,0,1-.78-2.5A16.34,16.34,0,0,1,26.22,62Zm2,0q0,.74.09,1.74a8.56,8.56,0,0,0,.41,1.94,4.21,4.21,0,0,0,.93,1.58,2.47,2.47,0,0,0,3.34,0,4.21,4.21,0,0,0,.93-1.58,8.56,8.56,0,0,0,.41-1.94q.09-1,.09-1.74,0-.5,0-1.14a10.66,10.66,0,0,0-.15-1.3,8.65,8.65,0,0,0-.33-1.28,4.37,4.37,0,0,0-.56-1.11,2.68,2.68,0,0,0-.85-.79,2.58,2.58,0,0,0-2.39,0,2.67,2.67,0,0,0-.85.79,4.37,4.37,0,0,0-.56,1.11,8.53,8.53,0,0,0-.33,1.28,10.57,10.57,0,0,0-.15,1.3Q28.23,61.46,28.23,62Z" transform="translate(-8.04 -19.9)"/><path class="cls-1" d="M44.24,66.12H37.89V64.06l5.92-9.53h2.44v9.83h2.1v1.76h-2.1v3.28h-2Zm0-9.2h0l-4.54,7.43h4.58Z" transform="translate(-8.04 -19.9)"/><rect x="0.5" y="175.36" width="45.03" height="21.68" rx="10.84" ry="10.84"/><path class="cls-1" d="M14.79,211.47l6-5.92a7.62,7.62,0,0,0,.61-.64,5.86,5.86,0,0,0,.52-.72,3.78,3.78,0,0,0,.37-.8,2.84,2.84,0,0,0,.14-.88,2.37,2.37,0,0,0-.2-1,2.17,2.17,0,0,0-.55-.75,2.51,2.51,0,0,0-.82-.47,3,3,0,0,0-1-.17,2.68,2.68,0,0,0-1.81.61,2.75,2.75,0,0,0-.9,1.68l-2.18-.19a4.67,4.67,0,0,1,.58-1.71,4.14,4.14,0,0,1,1.07-1.21,4.35,4.35,0,0,1,1.47-.71,6.66,6.66,0,0,1,1.8-.23,6.13,6.13,0,0,1,1.82.26,4.43,4.43,0,0,1,1.49.78,3.63,3.63,0,0,1,1,1.28,4.12,4.12,0,0,1,.37,1.8,4.18,4.18,0,0,1-.22,1.38,5.8,5.8,0,0,1-.58,1.21,7.5,7.5,0,0,1-.82,1.07q-.46.5-1,1l-4.89,4.73h7.48v1.76H14.79Z" transform="translate(-8.04 -19.9)"/><path class="cls-1" d="M31.17,201.05l-2.73,2.52-1.18-1.41,4.14-3.42h1.79v14.87h-2Z" transform="translate(-8.04 -19.9)"/><path class="cls-1" d="M37.89,206.18q0-.82.08-1.7a11.09,11.09,0,0,1,.3-1.73,9.19,9.19,0,0,1,.59-1.63,4.8,4.8,0,0,1,.95-1.35,4.43,4.43,0,0,1,1.36-.92,5,5,0,0,1,3.67,0,4.43,4.43,0,0,1,1.37.92,4.82,4.82,0,0,1,.94,1.35,9.23,9.23,0,0,1,.59,1.63,11.09,11.09,0,0,1,.3,1.73q.08.88.08,1.7a16.4,16.4,0,0,1-.21,2.52,8.67,8.67,0,0,1-.78,2.5,5.28,5.28,0,0,1-1.56,1.91,4.76,4.76,0,0,1-5.15,0,5.27,5.27,0,0,1-1.56-1.91,8.67,8.67,0,0,1-.78-2.5A16.34,16.34,0,0,1,37.89,206.18Zm2,0q0,.74.09,1.74a8.56,8.56,0,0,0,.41,1.94,4.21,4.21,0,0,0,.93,1.58,2.47,2.47,0,0,0,3.34,0,4.21,4.21,0,0,0,.93-1.58,8.56,8.56,0,0,0,.41-1.94q.09-1,.09-1.74,0-.5,0-1.14a10.66,10.66,0,0,0-.15-1.3,8.65,8.65,0,0,0-.33-1.28,4.37,4.37,0,0,0-.56-1.11,2.68,2.68,0,0,0-.85-.79,2.58,2.58,0,0,0-2.39,0,2.67,2.67,0,0,0-.85.79,4.37,4.37,0,0,0-.56,1.11,8.53,8.53,0,0,0-.33,1.28,10.57,10.57,0,0,0-.15,1.3Q39.91,205.67,39.91,206.18Z" transform="translate(-8.04 -19.9)"/><path d="M254.27,54.85l-2.08,1.92-.9-1.07,3.15-2.61h1.36V64.42h-1.54Z" transform="translate(-8.04 -19.9)"/><path d="M263.17,54.85l-2.08,1.92-.9-1.07,3.15-2.61h1.36V64.42h-1.54Z" transform="translate(-8.04 -19.9)"/><path d="M270,58.85a1.07,1.07,0,1,1,.74-.31A1,1,0,0,1,270,58.85Zm-1.06,4.61a1.07,1.07,0,1,1,.31.74A1,1,0,0,1,268.91,63.46Z" transform="translate(-8.04 -19.9)"/><path d="M272.74,58.75q0-.62.06-1.3a8.34,8.34,0,0,1,.23-1.32,7,7,0,0,1,.45-1.24,3.66,3.66,0,0,1,.72-1,3.37,3.37,0,0,1,1-.7,3.85,3.85,0,0,1,2.8,0,3.36,3.36,0,0,1,1,.7,3.66,3.66,0,0,1,.72,1,7,7,0,0,1,.45,1.24,8.45,8.45,0,0,1,.23,1.32q.06.67.06,1.3a12.49,12.49,0,0,1-.16,1.92,6.63,6.63,0,0,1-.59,1.9A4,4,0,0,1,278.6,64a3.62,3.62,0,0,1-3.92,0,4,4,0,0,1-1.19-1.46,6.6,6.6,0,0,1-.59-1.9A12.5,12.5,0,0,1,272.74,58.75Zm1.54,0q0,.56.07,1.33a6.49,6.49,0,0,0,.31,1.48,3.21,3.21,0,0,0,.71,1.21,1.88,1.88,0,0,0,2.54,0,3.19,3.19,0,0,0,.71-1.21,6.49,6.49,0,0,0,.31-1.48q.07-.77.07-1.33c0-.26,0-.55,0-.87a8,8,0,0,0-.11-1,6.55,6.55,0,0,0-.25-1,3.31,3.31,0,0,0-.42-.85,2,2,0,0,0-.65-.6,2,2,0,0,0-1.82,0,2.05,2.05,0,0,0-.65.6,3.31,3.31,0,0,0-.42.85,6.55,6.55,0,0,0-.25,1,8.21,8.21,0,0,0-.11,1Q274.27,58.37,274.27,58.75Z" transform="translate(-8.04 -19.9)"/><path d="M281.63,58.75q0-.62.06-1.3a8.34,8.34,0,0,1,.23-1.32,7,7,0,0,1,.45-1.24,3.66,3.66,0,0,1,.72-1,3.37,3.37,0,0,1,1-.7,3.85,3.85,0,0,1,2.8,0,3.36,3.36,0,0,1,1,.7,3.66,3.66,0,0,1,.72,1,7,7,0,0,1,.45,1.24,8.45,8.45,0,0,1,.23,1.32q.06.67.06,1.3a12.49,12.49,0,0,1-.16,1.92,6.63,6.63,0,0,1-.59,1.9A4,4,0,0,1,287.5,64a3.62,3.62,0,0,1-3.92,0,4,4,0,0,1-1.19-1.46,6.6,6.6,0,0,1-.59-1.9A12.5,12.5,0,0,1,281.63,58.75Zm1.54,0q0,.56.07,1.33a6.49,6.49,0,0,0,.31,1.48,3.21,3.21,0,0,0,.71,1.21,1.88,1.88,0,0,0,2.54,0,3.19,3.19,0,0,0,.71-1.21,6.49,6.49,0,0,0,.31-1.48q.07-.77.07-1.33c0-.26,0-.55,0-.87a8,8,0,0,0-.11-1,6.55,6.55,0,0,0-.25-1,3.31,3.31,0,0,0-.42-.85,2,2,0,0,0-.65-.6,2,2,0,0,0-1.82,0,2.05,2.05,0,0,0-.65.6,3.31,3.31,0,0,0-.42.85,6.55,6.55,0,0,0-.25,1,8.21,8.21,0,0,0-.11,1Q283.17,58.37,283.17,58.75Z" transform="translate(-8.04 -19.9)"/><path d="M291.1,57.76a4,4,0,0,1,1.41-.84,4.82,4.82,0,0,1,1.6-.28,4.41,4.41,0,0,1,1.43.21,2.79,2.79,0,0,1,1,.56,2.22,2.22,0,0,1,.57.81,2.53,2.53,0,0,1,.18,1V63q0,.4,0,.74c0,.22,0,.44,0,.64h-1.28q0-.58,0-1.15h0a2.76,2.76,0,0,1-1.14,1,3.58,3.58,0,0,1-1.52.3,3.5,3.5,0,0,1-1-.14,2.46,2.46,0,0,1-.84-.43,2.07,2.07,0,0,1-.57-.71,2.21,2.21,0,0,1-.21-1A2.18,2.18,0,0,1,291,61.1a2.48,2.48,0,0,1,.9-.81,4.32,4.32,0,0,1,1.33-.45,9.29,9.29,0,0,1,1.62-.14h1.06v-.32a1.58,1.58,0,0,0-.11-.58,1.55,1.55,0,0,0-.34-.52,1.61,1.61,0,0,0-.56-.37,2.15,2.15,0,0,0-.8-.14,2.93,2.93,0,0,0-.73.08,3.26,3.26,0,0,0-.57.2,2.53,2.53,0,0,0-.46.28l-.4.3Zm4.06,3a10.16,10.16,0,0,0-1,.06,4.09,4.09,0,0,0-1,.22,1.87,1.87,0,0,0-.72.45,1,1,0,0,0-.28.74,1,1,0,0,0,.44.94,2.15,2.15,0,0,0,1.19.29,2.3,2.3,0,0,0,1-.2,1.89,1.89,0,0,0,.67-.52,2,2,0,0,0,.37-.71,2.84,2.84,0,0,0,.11-.78v-.48Z" transform="translate(-8.04 -19.9)"/><path d="M299.38,56.83h1.34V58h0a1.25,1.25,0,0,1,.25-.4,2.54,2.54,0,0,1,.51-.46,3.16,3.16,0,0,1,.74-.37,2.75,2.75,0,0,1,.94-.15,2.69,2.69,0,0,1,1.42.35,2.62,2.62,0,0,1,.94,1.06,2.43,2.43,0,0,1,1-1.06,2.91,2.91,0,0,1,1.36-.35,3.15,3.15,0,0,1,1.44.29,2.32,2.32,0,0,1,.88.76,2.91,2.91,0,0,1,.44,1.07,6.31,6.31,0,0,1,.12,1.24v4.42h-1.44V60.19a6,6,0,0,0-.06-.83,1.92,1.92,0,0,0-.23-.7,1.33,1.33,0,0,0-.5-.49,1.7,1.7,0,0,0-.85-.18,1.68,1.68,0,0,0-1.49.64,2.81,2.81,0,0,0-.45,1.65v4.14h-1.44v-4a8.1,8.1,0,0,0-.06-1,2.34,2.34,0,0,0-.22-.78,1.25,1.25,0,0,0-.48-.51,1.66,1.66,0,0,0-.84-.18,1.91,1.91,0,0,0-.74.15,1.76,1.76,0,0,0-.63.46,2.21,2.21,0,0,0-.43.78,3.45,3.45,0,0,0-.16,1.11v3.94h-1.44Z" transform="translate(-8.04 -19.9)"/><path d="M320.86,61.21h-3.94V59.87h3.94Z" transform="translate(-8.04 -19.9)"/><path d="M326.61,62.78l4.54-4.51a5.83,5.83,0,0,0,.46-.49,4.39,4.39,0,0,0,.4-.55,2.81,2.81,0,0,0,.28-.61,2.16,2.16,0,0,0,.1-.67,1.8,1.8,0,0,0-.15-.75,1.66,1.66,0,0,0-.42-.57,1.89,1.89,0,0,0-.62-.36,2.24,2.24,0,0,0-.76-.13,2,2,0,0,0-1.38.46,2.1,2.1,0,0,0-.69,1.28l-1.66-.14a3.56,3.56,0,0,1,.44-1.3,3.17,3.17,0,0,1,.82-.92A3.35,3.35,0,0,1,329.1,53a5.1,5.1,0,0,1,1.37-.18,4.68,4.68,0,0,1,1.38.2,3.41,3.41,0,0,1,1.14.59,2.77,2.77,0,0,1,.77,1,3.13,3.13,0,0,1,.28,1.37,3.22,3.22,0,0,1-.17,1,4.43,4.43,0,0,1-.44.92,5.73,5.73,0,0,1-.62.82q-.35.38-.74.75l-3.73,3.6H334v1.34h-7.42Z" transform="translate(-8.04 -19.9)"/><path d="M337,58.85a1.07,1.07,0,1,1,.74-.31A1,1,0,0,1,337,58.85Zm-1.06,4.61a1.07,1.07,0,1,1,.31.74A1,1,0,0,1,335.94,63.46Z" transform="translate(-8.04 -19.9)"/><path d="M339.76,58.75q0-.62.06-1.3a8.34,8.34,0,0,1,.23-1.32,7,7,0,0,1,.45-1.24,3.66,3.66,0,0,1,.72-1,3.37,3.37,0,0,1,1-.7,3.85,3.85,0,0,1,2.8,0,3.36,3.36,0,0,1,1,.7,3.66,3.66,0,0,1,.72,1,7,7,0,0,1,.45,1.24,8.45,8.45,0,0,1,.23,1.32q.06.67.06,1.3a12.49,12.49,0,0,1-.16,1.92,6.63,6.63,0,0,1-.59,1.9A4,4,0,0,1,345.62,64a3.62,3.62,0,0,1-3.92,0,4,4,0,0,1-1.19-1.46,6.6,6.6,0,0,1-.59-1.9A12.5,12.5,0,0,1,339.76,58.75Zm1.54,0q0,.56.07,1.33a6.49,6.49,0,0,0,.31,1.48,3.21,3.21,0,0,0,.71,1.21,1.88,1.88,0,0,0,2.54,0,3.19,3.19,0,0,0,.71-1.21,6.49,6.49,0,0,0,.31-1.48q.07-.77.07-1.33c0-.26,0-.55,0-.87a8,8,0,0,0-.11-1,6.55,6.55,0,0,0-.25-1,3.31,3.31,0,0,0-.42-.85,2,2,0,0,0-.65-.6,2,2,0,0,0-1.82,0,2.05,2.05,0,0,0-.65.6,3.31,3.31,0,0,0-.42.85,6.55,6.55,0,0,0-.25,1,8.21,8.21,0,0,0-.11,1Q341.3,58.37,341.3,58.75Z" transform="translate(-8.04 -19.9)"/><path d="M348.66,58.75q0-.62.06-1.3a8.34,8.34,0,0,1,.23-1.32,7,7,0,0,1,.45-1.24,3.66,3.66,0,0,1,.72-1,3.37,3.37,0,0,1,1-.7,3.85,3.85,0,0,1,2.8,0,3.36,3.36,0,0,1,1,.7,3.66,3.66,0,0,1,.72,1,7,7,0,0,1,.45,1.24,8.45,8.45,0,0,1,.23,1.32q.06.67.06,1.3a12.49,12.49,0,0,1-.16,1.92,6.63,6.63,0,0,1-.59,1.9A4,4,0,0,1,354.52,64a3.62,3.62,0,0,1-3.92,0,4,4,0,0,1-1.19-1.46,6.6,6.6,0,0,1-.59-1.9A12.5,12.5,0,0,1,348.66,58.75Zm1.54,0q0,.56.07,1.33a6.49,6.49,0,0,0,.31,1.48,3.21,3.21,0,0,0,.71,1.21,1.88,1.88,0,0,0,2.54,0,3.19,3.19,0,0,0,.71-1.21,6.49,6.49,0,0,0,.31-1.48q.07-.77.07-1.33c0-.26,0-.55,0-.87a8,8,0,0,0-.11-1,6.55,6.55,0,0,0-.25-1,3.31,3.31,0,0,0-.42-.85,2,2,0,0,0-.65-.6,2,2,0,0,0-1.82,0,2.05,2.05,0,0,0-.65.6,3.31,3.31,0,0,0-.42.85,6.55,6.55,0,0,0-.25,1,8.21,8.21,0,0,0-.11,1Q350.19,58.37,350.19,58.75Z" transform="translate(-8.04 -19.9)"/><path d="M358.1,56.83h1.44v1.09h0a2.75,2.75,0,0,1,1.14-.94,3.54,3.54,0,0,1,1.5-.34,4,4,0,0,1,1.59.3,3.51,3.51,0,0,1,1.22.85,3.82,3.82,0,0,1,.78,1.27,4.43,4.43,0,0,1,.27,1.56,4.48,4.48,0,0,1-.27,1.58,3.73,3.73,0,0,1-.78,1.26,3.56,3.56,0,0,1-1.22.84,4,4,0,0,1-1.59.3,3.52,3.52,0,0,1-1.54-.34,2.62,2.62,0,0,1-1.1-.94h0v5.6H358.1ZM362,58a2.61,2.61,0,0,0-1,.2,2.31,2.31,0,0,0-.78.54,2.39,2.39,0,0,0-.5.83,3.31,3.31,0,0,0,0,2.13,2.38,2.38,0,0,0,.5.83,2.28,2.28,0,0,0,.78.54,2.81,2.81,0,0,0,2.08,0,2.29,2.29,0,0,0,.78-.54,2.38,2.38,0,0,0,.5-.83,3.31,3.31,0,0,0,0-2.13,2.39,2.39,0,0,0-.5-.83,2.31,2.31,0,0,0-.78-.54A2.61,2.61,0,0,0,362,58Z" transform="translate(-8.04 -19.9)"/><path d="M367.87,56.83h1.34V58h0a1.25,1.25,0,0,1,.25-.4,2.54,2.54,0,0,1,.51-.46,3.16,3.16,0,0,1,.74-.37,2.75,2.75,0,0,1,.94-.15,2.69,2.69,0,0,1,1.42.35A2.62,2.62,0,0,1,374,58a2.43,2.43,0,0,1,1-1.06,2.91,2.91,0,0,1,1.36-.35,3.15,3.15,0,0,1,1.44.29,2.32,2.32,0,0,1,.88.76,2.91,2.91,0,0,1,.44,1.07,6.31,6.31,0,0,1,.12,1.24v4.42h-1.44V60.19a6,6,0,0,0-.06-.83,1.92,1.92,0,0,0-.23-.7,1.33,1.33,0,0,0-.5-.49,1.7,1.7,0,0,0-.85-.18,1.68,1.68,0,0,0-1.49.64,2.81,2.81,0,0,0-.45,1.65v4.14h-1.44v-4a8.1,8.1,0,0,0-.06-1,2.34,2.34,0,0,0-.22-.78,1.25,1.25,0,0,0-.48-.51,1.66,1.66,0,0,0-.84-.18,1.91,1.91,0,0,0-.74.15,1.76,1.76,0,0,0-.63.46,2.21,2.21,0,0,0-.43.78,3.45,3.45,0,0,0-.16,1.11v3.94h-1.44Z" transform="translate(-8.04 -19.9)"/><path d="M254.27,201.06,252.19,203l-.9-1.07,3.15-2.61h1.36v11.33h-1.54Z" transform="translate(-8.04 -19.9)"/><path d="M263.17,201.06,261.09,203l-.9-1.07,3.15-2.61h1.36v11.33h-1.54Z" transform="translate(-8.04 -19.9)"/><path d="M270,205.06a1.07,1.07,0,1,1,.74-.31A1,1,0,0,1,270,205.06Zm-1.06,4.61a1.07,1.07,0,1,1,.31.74A1,1,0,0,1,268.91,209.67Z" transform="translate(-8.04 -19.9)"/><path d="M272.74,205q0-.62.06-1.3a8.34,8.34,0,0,1,.23-1.32,7,7,0,0,1,.45-1.24,3.66,3.66,0,0,1,.72-1,3.37,3.37,0,0,1,1-.7,3.85,3.85,0,0,1,2.8,0,3.36,3.36,0,0,1,1,.7,3.66,3.66,0,0,1,.72,1,7,7,0,0,1,.45,1.24,8.45,8.45,0,0,1,.23,1.32q.06.67.06,1.3a12.49,12.49,0,0,1-.16,1.92,6.63,6.63,0,0,1-.59,1.9,4,4,0,0,1-1.19,1.46,3.62,3.62,0,0,1-3.92,0,4,4,0,0,1-1.19-1.46,6.6,6.6,0,0,1-.59-1.9A12.5,12.5,0,0,1,272.74,205Zm1.54,0q0,.56.07,1.33a6.49,6.49,0,0,0,.31,1.48,3.21,3.21,0,0,0,.71,1.21,1.88,1.88,0,0,0,2.54,0,3.19,3.19,0,0,0,.71-1.21,6.49,6.49,0,0,0,.31-1.48q.07-.77.07-1.33c0-.26,0-.55,0-.87a8,8,0,0,0-.11-1,6.55,6.55,0,0,0-.25-1,3.31,3.31,0,0,0-.42-.85,2,2,0,0,0-.65-.6,2,2,0,0,0-1.82,0,2.05,2.05,0,0,0-.65.6,3.31,3.31,0,0,0-.42.85,6.55,6.55,0,0,0-.25,1,8.21,8.21,0,0,0-.11,1Q274.27,204.58,274.27,205Z" transform="translate(-8.04 -19.9)"/><path d="M281.63,205q0-.62.06-1.3a8.34,8.34,0,0,1,.23-1.32,7,7,0,0,1,.45-1.24,3.66,3.66,0,0,1,.72-1,3.37,3.37,0,0,1,1-.7,3.85,3.85,0,0,1,2.8,0,3.36,3.36,0,0,1,1,.7,3.66,3.66,0,0,1,.72,1,7,7,0,0,1,.45,1.24,8.45,8.45,0,0,1,.23,1.32q.06.67.06,1.3a12.49,12.49,0,0,1-.16,1.92,6.63,6.63,0,0,1-.59,1.9,4,4,0,0,1-1.19,1.46,3.62,3.62,0,0,1-3.92,0,4,4,0,0,1-1.19-1.46,6.6,6.6,0,0,1-.59-1.9A12.5,12.5,0,0,1,281.63,205Zm1.54,0q0,.56.07,1.33a6.49,6.49,0,0,0,.31,1.48,3.21,3.21,0,0,0,.71,1.21,1.88,1.88,0,0,0,2.54,0,3.19,3.19,0,0,0,.71-1.21,6.49,6.49,0,0,0,.31-1.48q.07-.77.07-1.33c0-.26,0-.55,0-.87a8,8,0,0,0-.11-1,6.55,6.55,0,0,0-.25-1,3.31,3.31,0,0,0-.42-.85,2,2,0,0,0-.65-.6,2,2,0,0,0-1.82,0,2.05,2.05,0,0,0-.65.6,3.31,3.31,0,0,0-.42.85,6.55,6.55,0,0,0-.25,1,8.21,8.21,0,0,0-.11,1Q283.17,204.58,283.17,205Z" transform="translate(-8.04 -19.9)"/><path d="M291.1,204a4,4,0,0,1,1.41-.84,4.82,4.82,0,0,1,1.6-.28,4.41,4.41,0,0,1,1.43.21,2.79,2.79,0,0,1,1,.56,2.22,2.22,0,0,1,.57.81,2.53,2.53,0,0,1,.18,1v3.87q0,.4,0,.74c0,.22,0,.44,0,.64h-1.28q0-.58,0-1.15h0a2.76,2.76,0,0,1-1.14,1,3.58,3.58,0,0,1-1.52.3,3.5,3.5,0,0,1-1-.14,2.46,2.46,0,0,1-.84-.43,2.07,2.07,0,0,1-.57-.71,2.21,2.21,0,0,1-.21-1,2.18,2.18,0,0,1,.33-1.23,2.48,2.48,0,0,1,.9-.81,4.32,4.32,0,0,1,1.33-.45,9.29,9.29,0,0,1,1.62-.14h1.06v-.32a1.58,1.58,0,0,0-.11-.58,1.55,1.55,0,0,0-.34-.52,1.61,1.61,0,0,0-.56-.37,2.15,2.15,0,0,0-.8-.14,2.93,2.93,0,0,0-.73.08,3.26,3.26,0,0,0-.57.2,2.53,2.53,0,0,0-.46.28l-.4.3Zm4.06,3a10.16,10.16,0,0,0-1,.06,4.09,4.09,0,0,0-1,.22,1.87,1.87,0,0,0-.72.45,1,1,0,0,0-.28.74,1,1,0,0,0,.44.94,2.15,2.15,0,0,0,1.19.29,2.3,2.3,0,0,0,1-.2,1.89,1.89,0,0,0,.67-.52,2,2,0,0,0,.37-.71,2.84,2.84,0,0,0,.11-.78V207Z" transform="translate(-8.04 -19.9)"/><path d="M299.38,203h1.34v1.18h0a1.25,1.25,0,0,1,.25-.4,2.54,2.54,0,0,1,.51-.46,3.16,3.16,0,0,1,.74-.37,2.75,2.75,0,0,1,.94-.15,2.69,2.69,0,0,1,1.42.35,2.62,2.62,0,0,1,.94,1.06,2.43,2.43,0,0,1,1-1.06,2.91,2.91,0,0,1,1.36-.35,3.15,3.15,0,0,1,1.44.29,2.32,2.32,0,0,1,.88.76,2.91,2.91,0,0,1,.44,1.07,6.31,6.31,0,0,1,.12,1.24v4.42h-1.44v-4.22a6,6,0,0,0-.06-.83,1.92,1.92,0,0,0-.23-.7,1.33,1.33,0,0,0-.5-.49,1.7,1.7,0,0,0-.85-.18,1.68,1.68,0,0,0-1.49.64,2.81,2.81,0,0,0-.45,1.65v4.14h-1.44v-4a8.1,8.1,0,0,0-.06-1,2.34,2.34,0,0,0-.22-.78,1.25,1.25,0,0,0-.48-.51,1.66,1.66,0,0,0-.84-.18,1.91,1.91,0,0,0-.74.15,1.76,1.76,0,0,0-.63.46,2.21,2.21,0,0,0-.43.78,3.45,3.45,0,0,0-.16,1.11v3.94h-1.44Z" transform="translate(-8.04 -19.9)"/><path d="M320.86,207.43h-3.94v-1.34h3.94Z" transform="translate(-8.04 -19.9)"/><path d="M328.24,207.86a2.73,2.73,0,0,0,.72,1.22,2,2,0,0,0,1.35.4,2.29,2.29,0,0,0,.84-.15,2.35,2.35,0,0,0,.69-.42,1.93,1.93,0,0,0,.48-.64,2.21,2.21,0,0,0-.12-2,1.88,1.88,0,0,0-.76-.64,3.3,3.3,0,0,0-1-.28,9.87,9.87,0,0,0-1.1-.06V204a7.07,7.07,0,0,0,1.44-.12,2.42,2.42,0,0,0,.88-.34,1.2,1.2,0,0,0,.45-.56,2.11,2.11,0,0,0,.13-.75,1.71,1.71,0,0,0-.54-1.38,2,2,0,0,0-1.36-.46,1.89,1.89,0,0,0-1.13.36,2.24,2.24,0,0,0-.76,1l-1.57-.53a3.15,3.15,0,0,1,1.37-1.61,4.11,4.11,0,0,1,2.06-.52,4.68,4.68,0,0,1,1.32.18,3.17,3.17,0,0,1,1.11.57,2.73,2.73,0,0,1,.76,1,3.14,3.14,0,0,1,.28,1.37,2.57,2.57,0,0,1-.54,1.6,2.67,2.67,0,0,1-1.4,1v0a2.69,2.69,0,0,1,.94.35,2.54,2.54,0,0,1,.7.64,2.74,2.74,0,0,1,.43.86,3.38,3.38,0,0,1,.14,1,3.13,3.13,0,0,1-.31,1.43,3,3,0,0,1-.83,1,3.66,3.66,0,0,1-1.2.62,4.91,4.91,0,0,1-1.43.21,4.33,4.33,0,0,1-2.28-.59,3.13,3.13,0,0,1-1.37-1.87Z" transform="translate(-8.04 -19.9)"/><path d="M337,205.06a1.07,1.07,0,1,1,.74-.31A1,1,0,0,1,337,205.06Zm-1.06,4.61a1.07,1.07,0,1,1,.31.74A1,1,0,0,1,335.94,209.67Z" transform="translate(-8.04 -19.9)"/><path d="M339.76,205q0-.62.06-1.3a8.34,8.34,0,0,1,.23-1.32,7,7,0,0,1,.45-1.24,3.66,3.66,0,0,1,.72-1,3.37,3.37,0,0,1,1-.7,3.85,3.85,0,0,1,2.8,0,3.36,3.36,0,0,1,1,.7,3.66,3.66,0,0,1,.72,1,7,7,0,0,1,.45,1.24,8.45,8.45,0,0,1,.23,1.32q.06.67.06,1.3a12.49,12.49,0,0,1-.16,1.92,6.63,6.63,0,0,1-.59,1.9,4,4,0,0,1-1.19,1.46,3.62,3.62,0,0,1-3.92,0,4,4,0,0,1-1.19-1.46,6.6,6.6,0,0,1-.59-1.9A12.5,12.5,0,0,1,339.76,205Zm1.54,0q0,.56.07,1.33a6.49,6.49,0,0,0,.31,1.48,3.21,3.21,0,0,0,.71,1.21,1.88,1.88,0,0,0,2.54,0,3.19,3.19,0,0,0,.71-1.21,6.49,6.49,0,0,0,.31-1.48q.07-.77.07-1.33c0-.26,0-.55,0-.87a8,8,0,0,0-.11-1,6.55,6.55,0,0,0-.25-1,3.31,3.31,0,0,0-.42-.85,2,2,0,0,0-.65-.6,2,2,0,0,0-1.82,0,2.05,2.05,0,0,0-.65.6,3.31,3.31,0,0,0-.42.85,6.55,6.55,0,0,0-.25,1,8.21,8.21,0,0,0-.11,1Q341.3,204.58,341.3,205Z" transform="translate(-8.04 -19.9)"/><path d="M348.66,205q0-.62.06-1.3a8.34,8.34,0,0,1,.23-1.32,7,7,0,0,1,.45-1.24,3.66,3.66,0,0,1,.72-1,3.37,3.37,0,0,1,1-.7,3.85,3.85,0,0,1,2.8,0,3.36,3.36,0,0,1,1,.7,3.66,3.66,0,0,1,.72,1,7,7,0,0,1,.45,1.24,8.45,8.45,0,0,1,.23,1.32q.06.67.06,1.3a12.49,12.49,0,0,1-.16,1.92,6.63,6.63,0,0,1-.59,1.9,4,4,0,0,1-1.19,1.46,3.62,3.62,0,0,1-3.92,0,4,4,0,0,1-1.19-1.46,6.6,6.6,0,0,1-.59-1.9A12.5,12.5,0,0,1,348.66,205Zm1.54,0q0,.56.07,1.33a6.49,6.49,0,0,0,.31,1.48,3.21,3.21,0,0,0,.71,1.21,1.88,1.88,0,0,0,2.54,0,3.19,3.19,0,0,0,.71-1.21,6.49,6.49,0,0,0,.31-1.48q.07-.77.07-1.33c0-.26,0-.55,0-.87a8,8,0,0,0-.11-1,6.55,6.55,0,0,0-.25-1,3.31,3.31,0,0,0-.42-.85,2,2,0,0,0-.65-.6,2,2,0,0,0-1.82,0,2.05,2.05,0,0,0-.65.6,3.31,3.31,0,0,0-.42.85,6.55,6.55,0,0,0-.25,1,8.21,8.21,0,0,0-.11,1Q350.19,204.58,350.19,205Z" transform="translate(-8.04 -19.9)"/><path d="M358.1,203h1.44v1.09h0a2.75,2.75,0,0,1,1.14-.94,3.54,3.54,0,0,1,1.5-.34,4,4,0,0,1,1.59.3A3.51,3.51,0,0,1,365,204a3.82,3.82,0,0,1,.78,1.27,4.43,4.43,0,0,1,.27,1.56,4.48,4.48,0,0,1-.27,1.58,3.73,3.73,0,0,1-.78,1.26,3.56,3.56,0,0,1-1.22.84,4,4,0,0,1-1.59.3,3.52,3.52,0,0,1-1.54-.34,2.62,2.62,0,0,1-1.1-.94h0v5.6H358.1ZM362,204.2a2.61,2.61,0,0,0-1,.2,2.31,2.31,0,0,0-.78.54,2.39,2.39,0,0,0-.5.83,3.31,3.31,0,0,0,0,2.13,2.38,2.38,0,0,0,.5.83,2.28,2.28,0,0,0,.78.54,2.81,2.81,0,0,0,2.08,0,2.29,2.29,0,0,0,.78-.54,2.38,2.38,0,0,0,.5-.83,3.31,3.31,0,0,0,0-2.13,2.39,2.39,0,0,0-.5-.83,2.31,2.31,0,0,0-.78-.54A2.61,2.61,0,0,0,362,204.2Z" transform="translate(-8.04 -19.9)"/><path d="M367.87,203h1.34v1.18h0a1.25,1.25,0,0,1,.25-.4,2.54,2.54,0,0,1,.51-.46,3.16,3.16,0,0,1,.74-.37,2.75,2.75,0,0,1,.94-.15,2.69,2.69,0,0,1,1.42.35,2.62,2.62,0,0,1,.94,1.06,2.43,2.43,0,0,1,1-1.06,2.91,2.91,0,0,1,1.36-.35,3.15,3.15,0,0,1,1.44.29,2.32,2.32,0,0,1,.88.76,2.91,2.91,0,0,1,.44,1.07,6.31,6.31,0,0,1,.12,1.24v4.42h-1.44v-4.22a6,6,0,0,0-.06-.83,1.92,1.92,0,0,0-.23-.7,1.33,1.33,0,0,0-.5-.49,1.7,1.7,0,0,0-.85-.18,1.68,1.68,0,0,0-1.49.64,2.81,2.81,0,0,0-.45,1.65v4.14h-1.44v-4a8.1,8.1,0,0,0-.06-1,2.34,2.34,0,0,0-.22-.78,1.25,1.25,0,0,0-.48-.51,1.66,1.66,0,0,0-.84-.18,1.91,1.91,0,0,0-.74.15,1.76,1.76,0,0,0-.63.46,2.21,2.21,0,0,0-.43.78,3.45,3.45,0,0,0-.16,1.11v3.94h-1.44Z" transform="translate(-8.04 -19.9)"/><path d="M254.27,250.54l-2.08,1.92-.9-1.07,3.15-2.61h1.36v11.33h-1.54Z" transform="translate(-8.04 -19.9)"/><path d="M259.39,254.44q0-.62.06-1.3a8.34,8.34,0,0,1,.23-1.32,7,7,0,0,1,.45-1.24,3.66,3.66,0,0,1,.72-1,3.37,3.37,0,0,1,1-.7,3.85,3.85,0,0,1,2.8,0,3.36,3.36,0,0,1,1,.7,3.66,3.66,0,0,1,.72,1,7,7,0,0,1,.45,1.24,8.45,8.45,0,0,1,.23,1.32q.06.67.06,1.3a12.49,12.49,0,0,1-.16,1.92,6.63,6.63,0,0,1-.59,1.9,4,4,0,0,1-1.19,1.46,3.62,3.62,0,0,1-3.92,0,4,4,0,0,1-1.19-1.46,6.6,6.6,0,0,1-.59-1.9A12.5,12.5,0,0,1,259.39,254.44Zm1.54,0q0,.56.07,1.33a6.49,6.49,0,0,0,.31,1.48,3.21,3.21,0,0,0,.71,1.21,1.88,1.88,0,0,0,2.54,0,3.19,3.19,0,0,0,.71-1.21,6.49,6.49,0,0,0,.31-1.48q.07-.77.07-1.33c0-.26,0-.55,0-.87a8,8,0,0,0-.11-1,6.55,6.55,0,0,0-.25-1,3.31,3.31,0,0,0-.42-.85,2,2,0,0,0-.65-.6,2,2,0,0,0-1.82,0,2.05,2.05,0,0,0-.65.6,3.31,3.31,0,0,0-.42.85,6.55,6.55,0,0,0-.25,1,8.21,8.21,0,0,0-.11,1Q260.93,254.06,260.93,254.44Z" transform="translate(-8.04 -19.9)"/><path d="M270,254.54a1.07,1.07,0,1,1,.74-.31A1,1,0,0,1,270,254.54Zm-1.06,4.61a1.07,1.07,0,1,1,.31.74A1,1,0,0,1,268.91,259.15Z" transform="translate(-8.04 -19.9)"/><path d="M272.74,254.44q0-.62.06-1.3a8.34,8.34,0,0,1,.23-1.32,7,7,0,0,1,.45-1.24,3.66,3.66,0,0,1,.72-1,3.37,3.37,0,0,1,1-.7,3.85,3.85,0,0,1,2.8,0,3.36,3.36,0,0,1,1,.7,3.66,3.66,0,0,1,.72,1,7,7,0,0,1,.45,1.24,8.45,8.45,0,0,1,.23,1.32q.06.67.06,1.3a12.49,12.49,0,0,1-.16,1.92,6.63,6.63,0,0,1-.59,1.9,4,4,0,0,1-1.19,1.46,3.62,3.62,0,0,1-3.92,0,4,4,0,0,1-1.19-1.46,6.6,6.6,0,0,1-.59-1.9A12.5,12.5,0,0,1,272.74,254.44Zm1.54,0q0,.56.07,1.33a6.49,6.49,0,0,0,.31,1.48,3.21,3.21,0,0,0,.71,1.21,1.88,1.88,0,0,0,2.54,0,3.19,3.19,0,0,0,.71-1.21,6.49,6.49,0,0,0,.31-1.48q.07-.77.07-1.33c0-.26,0-.55,0-.87a8,8,0,0,0-.11-1,6.55,6.55,0,0,0-.25-1,3.31,3.31,0,0,0-.42-.85,2,2,0,0,0-.65-.6,2,2,0,0,0-1.82,0,2.05,2.05,0,0,0-.65.6,3.31,3.31,0,0,0-.42.85,6.55,6.55,0,0,0-.25,1,8.21,8.21,0,0,0-.11,1Q274.27,254.06,274.27,254.44Z" transform="translate(-8.04 -19.9)"/><path d="M281.63,254.44q0-.62.06-1.3a8.34,8.34,0,0,1,.23-1.32,7,7,0,0,1,.45-1.24,3.66,3.66,0,0,1,.72-1,3.37,3.37,0,0,1,1-.7,3.85,3.85,0,0,1,2.8,0,3.36,3.36,0,0,1,1,.7,3.66,3.66,0,0,1,.72,1,7,7,0,0,1,.45,1.24,8.45,8.45,0,0,1,.23,1.32q.06.67.06,1.3a12.49,12.49,0,0,1-.16,1.92,6.63,6.63,0,0,1-.59,1.9,4,4,0,0,1-1.19,1.46,3.62,3.62,0,0,1-3.92,0,4,4,0,0,1-1.19-1.46,6.6,6.6,0,0,1-.59-1.9A12.5,12.5,0,0,1,281.63,254.44Zm1.54,0q0,.56.07,1.33a6.49,6.49,0,0,0,.31,1.48,3.21,3.21,0,0,0,.71,1.21,1.88,1.88,0,0,0,2.54,0,3.19,3.19,0,0,0,.71-1.21,6.49,6.49,0,0,0,.31-1.48q.07-.77.07-1.33c0-.26,0-.55,0-.87a8,8,0,0,0-.11-1,6.55,6.55,0,0,0-.25-1,3.31,3.31,0,0,0-.42-.85,2,2,0,0,0-.65-.6,2,2,0,0,0-1.82,0,2.05,2.05,0,0,0-.65.6,3.31,3.31,0,0,0-.42.85,6.55,6.55,0,0,0-.25,1,8.21,8.21,0,0,0-.11,1Q283.17,254.06,283.17,254.44Z" transform="translate(-8.04 -19.9)"/><path d="M291.1,253.45a4,4,0,0,1,1.41-.84,4.82,4.82,0,0,1,1.6-.28,4.41,4.41,0,0,1,1.43.21,2.79,2.79,0,0,1,1,.56,2.22,2.22,0,0,1,.57.81,2.53,2.53,0,0,1,.18,1v3.87q0,.4,0,.74c0,.22,0,.44,0,.64h-1.28q0-.58,0-1.15h0a2.76,2.76,0,0,1-1.14,1,3.58,3.58,0,0,1-1.52.3,3.5,3.5,0,0,1-1-.14,2.46,2.46,0,0,1-.84-.43,2.07,2.07,0,0,1-.57-.71,2.21,2.21,0,0,1-.21-1,2.18,2.18,0,0,1,.33-1.23,2.48,2.48,0,0,1,.9-.81,4.32,4.32,0,0,1,1.33-.45,9.29,9.29,0,0,1,1.62-.14h1.06v-.32a1.58,1.58,0,0,0-.11-.58,1.55,1.55,0,0,0-.34-.52,1.61,1.61,0,0,0-.56-.37,2.15,2.15,0,0,0-.8-.14,2.93,2.93,0,0,0-.73.08,3.26,3.26,0,0,0-.57.2,2.53,2.53,0,0,0-.46.28l-.4.3Zm4.06,3a10.16,10.16,0,0,0-1,.06,4.09,4.09,0,0,0-1,.22,1.87,1.87,0,0,0-.72.45,1,1,0,0,0-.28.74,1,1,0,0,0,.44.94,2.15,2.15,0,0,0,1.19.29,2.3,2.3,0,0,0,1-.2,1.89,1.89,0,0,0,.67-.52,2,2,0,0,0,.37-.71,2.84,2.84,0,0,0,.11-.78v-.48Z" transform="translate(-8.04 -19.9)"/><path d="M299.38,252.52h1.34v1.18h0a1.25,1.25,0,0,1,.25-.4,2.54,2.54,0,0,1,.51-.46,3.16,3.16,0,0,1,.74-.37,2.75,2.75,0,0,1,.94-.15,2.69,2.69,0,0,1,1.42.35,2.62,2.62,0,0,1,.94,1.06,2.43,2.43,0,0,1,1-1.06,2.91,2.91,0,0,1,1.36-.35,3.15,3.15,0,0,1,1.44.29,2.32,2.32,0,0,1,.88.76,2.91,2.91,0,0,1,.44,1.07,6.31,6.31,0,0,1,.12,1.24v4.42h-1.44v-4.22a6,6,0,0,0-.06-.83,1.92,1.92,0,0,0-.23-.7,1.33,1.33,0,0,0-.5-.49,1.7,1.7,0,0,0-.85-.18,1.68,1.68,0,0,0-1.49.64,2.81,2.81,0,0,0-.45,1.65v4.14h-1.44v-4a8.1,8.1,0,0,0-.06-1,2.34,2.34,0,0,0-.22-.78,1.25,1.25,0,0,0-.48-.51,1.66,1.66,0,0,0-.84-.18,1.91,1.91,0,0,0-.74.15,1.76,1.76,0,0,0-.63.46,2.21,2.21,0,0,0-.43.78,3.45,3.45,0,0,0-.16,1.11v3.94h-1.44Z" transform="translate(-8.04 -19.9)"/><path d="M320.86,256.91h-3.94v-1.34h3.94Z" transform="translate(-8.04 -19.9)"/><path d="M331.25,257.61h-4.83V256l4.51-7.26h1.86v7.49h1.6v1.34h-1.6v2.5h-1.54Zm0-7h0l-3.46,5.66h3.49Z" transform="translate(-8.04 -19.9)"/><path d="M337,254.54a1.07,1.07,0,1,1,.74-.31A1,1,0,0,1,337,254.54Zm-1.06,4.61a1.07,1.07,0,1,1,.31.74A1,1,0,0,1,335.94,259.15Z" transform="translate(-8.04 -19.9)"/><path d="M339.76,254.44q0-.62.06-1.3a8.34,8.34,0,0,1,.23-1.32,7,7,0,0,1,.45-1.24,3.66,3.66,0,0,1,.72-1,3.37,3.37,0,0,1,1-.7,3.85,3.85,0,0,1,2.8,0,3.36,3.36,0,0,1,1,.7,3.66,3.66,0,0,1,.72,1,7,7,0,0,1,.45,1.24,8.45,8.45,0,0,1,.23,1.32q.06.67.06,1.3a12.49,12.49,0,0,1-.16,1.92,6.63,6.63,0,0,1-.59,1.9,4,4,0,0,1-1.19,1.46,3.62,3.62,0,0,1-3.92,0,4,4,0,0,1-1.19-1.46,6.6,6.6,0,0,1-.59-1.9A12.5,12.5,0,0,1,339.76,254.44Zm1.54,0q0,.56.07,1.33a6.49,6.49,0,0,0,.31,1.48,3.21,3.21,0,0,0,.71,1.21,1.88,1.88,0,0,0,2.54,0,3.19,3.19,0,0,0,.71-1.21,6.49,6.49,0,0,0,.31-1.48q.07-.77.07-1.33c0-.26,0-.55,0-.87a8,8,0,0,0-.11-1,6.55,6.55,0,0,0-.25-1,3.31,3.31,0,0,0-.42-.85,2,2,0,0,0-.65-.6,2,2,0,0,0-1.82,0,2.05,2.05,0,0,0-.65.6,3.31,3.31,0,0,0-.42.85,6.55,6.55,0,0,0-.25,1,8.21,8.21,0,0,0-.11,1Q341.3,254.06,341.3,254.44Z" transform="translate(-8.04 -19.9)"/><path d="M348.66,254.44q0-.62.06-1.3a8.34,8.34,0,0,1,.23-1.32,7,7,0,0,1,.45-1.24,3.66,3.66,0,0,1,.72-1,3.37,3.37,0,0,1,1-.7,3.85,3.85,0,0,1,2.8,0,3.36,3.36,0,0,1,1,.7,3.66,3.66,0,0,1,.72,1,7,7,0,0,1,.45,1.24,8.45,8.45,0,0,1,.23,1.32q.06.67.06,1.3a12.49,12.49,0,0,1-.16,1.92,6.63,6.63,0,0,1-.59,1.9,4,4,0,0,1-1.19,1.46,3.62,3.62,0,0,1-3.92,0,4,4,0,0,1-1.19-1.46,6.6,6.6,0,0,1-.59-1.9A12.5,12.5,0,0,1,348.66,254.44Zm1.54,0q0,.56.07,1.33a6.49,6.49,0,0,0,.31,1.48,3.21,3.21,0,0,0,.71,1.21,1.88,1.88,0,0,0,2.54,0,3.19,3.19,0,0,0,.71-1.21,6.49,6.49,0,0,0,.31-1.48q.07-.77.07-1.33c0-.26,0-.55,0-.87a8,8,0,0,0-.11-1,6.55,6.55,0,0,0-.25-1,3.31,3.31,0,0,0-.42-.85,2,2,0,0,0-.65-.6,2,2,0,0,0-1.82,0,2.05,2.05,0,0,0-.65.6,3.31,3.31,0,0,0-.42.85,6.55,6.55,0,0,0-.25,1,8.21,8.21,0,0,0-.11,1Q350.19,254.06,350.19,254.44Z" transform="translate(-8.04 -19.9)"/><path d="M358.1,252.52h1.44v1.09h0a2.75,2.75,0,0,1,1.14-.94,3.54,3.54,0,0,1,1.5-.34,4,4,0,0,1,1.59.3,3.51,3.51,0,0,1,1.22.85,3.82,3.82,0,0,1,.78,1.27,4.43,4.43,0,0,1,.27,1.56,4.48,4.48,0,0,1-.27,1.58,3.73,3.73,0,0,1-.78,1.26,3.56,3.56,0,0,1-1.22.84,4,4,0,0,1-1.59.3,3.52,3.52,0,0,1-1.54-.34,2.62,2.62,0,0,1-1.1-.94h0v5.6H358.1Zm3.94,1.15a2.61,2.61,0,0,0-1,.2,2.31,2.31,0,0,0-.78.54,2.39,2.39,0,0,0-.5.83,3.31,3.31,0,0,0,0,2.13,2.38,2.38,0,0,0,.5.83,2.28,2.28,0,0,0,.78.54,2.81,2.81,0,0,0,2.08,0,2.29,2.29,0,0,0,.78-.54,2.38,2.38,0,0,0,.5-.83,3.31,3.31,0,0,0,0-2.13,2.39,2.39,0,0,0-.5-.83,2.31,2.31,0,0,0-.78-.54A2.61,2.61,0,0,0,362,253.67Z" transform="translate(-8.04 -19.9)"/><path d="M367.87,252.52h1.34v1.18h0a1.25,1.25,0,0,1,.25-.4,2.54,2.54,0,0,1,.51-.46,3.16,3.16,0,0,1,.74-.37,2.75,2.75,0,0,1,.94-.15,2.69,2.69,0,0,1,1.42.35,2.62,2.62,0,0,1,.94,1.06,2.43,2.43,0,0,1,1-1.06,2.91,2.91,0,0,1,1.36-.35,3.15,3.15,0,0,1,1.44.29,2.32,2.32,0,0,1,.88.76,2.91,2.91,0,0,1,.44,1.07,6.31,6.31,0,0,1,.12,1.24v4.42h-1.44v-4.22a6,6,0,0,0-.06-.83,1.92,1.92,0,0,0-.23-.7,1.33,1.33,0,0,0-.5-.49,1.7,1.7,0,0,0-.85-.18,1.68,1.68,0,0,0-1.49.64,2.81,2.81,0,0,0-.45,1.65v4.14h-1.44v-4a8.1,8.1,0,0,0-.06-1,2.34,2.34,0,0,0-.22-.78,1.25,1.25,0,0,0-.48-.51,1.66,1.66,0,0,0-.84-.18,1.91,1.91,0,0,0-.74.15,1.76,1.76,0,0,0-.63.46,2.21,2.21,0,0,0-.43.78,3.45,3.45,0,0,0-.16,1.11v3.94h-1.44Z" transform="translate(-8.04 -19.9)"/><path d="M74.87,65.35a6.11,6.11,0,0,1-2.38-.46,5.54,5.54,0,0,1-1.86-1.26,5.8,5.8,0,0,1-1.22-1.89,6.5,6.5,0,0,1,0-4.7,5.8,5.8,0,0,1,1.22-1.89,5.54,5.54,0,0,1,1.86-1.26,6.46,6.46,0,0,1,4.77,0,5.55,5.55,0,0,1,1.86,1.26A5.84,5.84,0,0,1,80.33,57a6.51,6.51,0,0,1,0,4.7,5.83,5.83,0,0,1-1.22,1.89,5.55,5.55,0,0,1-1.86,1.26A6.11,6.11,0,0,1,74.87,65.35Zm0-1.44A4.11,4.11,0,0,0,78,62.58a4.26,4.26,0,0,0,.86-1.43,5.2,5.2,0,0,0,0-3.5A4.28,4.28,0,0,0,78,56.22a4.24,4.24,0,0,0-6.21,0,4.27,4.27,0,0,0-.86,1.43,5.19,5.19,0,0,0,0,3.5,4.25,4.25,0,0,0,.86,1.43,4.11,4.11,0,0,0,3.1,1.33Z" transform="translate(-8.04 -19.9)"/><path d="M82.61,57.48h1.44v1.09h0a2.75,2.75,0,0,1,1.14-.94,3.54,3.54,0,0,1,1.5-.34,4,4,0,0,1,1.59.3,3.51,3.51,0,0,1,1.22.85,3.82,3.82,0,0,1,.78,1.27,4.43,4.43,0,0,1,.27,1.56,4.48,4.48,0,0,1-.27,1.58,3.73,3.73,0,0,1-.78,1.26,3.56,3.56,0,0,1-1.22.84,4,4,0,0,1-1.59.3,3.52,3.52,0,0,1-1.54-.34,2.62,2.62,0,0,1-1.1-.94h0v5.6H82.61Zm3.94,1.15a2.61,2.61,0,0,0-1,.2,2.31,2.31,0,0,0-.78.54,2.39,2.39,0,0,0-.5.83,3.31,3.31,0,0,0,0,2.13,2.38,2.38,0,0,0,.5.83,2.28,2.28,0,0,0,.78.54,2.81,2.81,0,0,0,2.08,0,2.29,2.29,0,0,0,.78-.54,2.38,2.38,0,0,0,.5-.83,3.31,3.31,0,0,0,0-2.13,2.39,2.39,0,0,0-.5-.83,2.31,2.31,0,0,0-.78-.54A2.61,2.61,0,0,0,86.55,58.63Z" transform="translate(-8.04 -19.9)"/><path d="M93.48,61.8a1.9,1.9,0,0,0,.22.9,2.26,2.26,0,0,0,.57.7,2.61,2.61,0,0,0,.82.45A2.93,2.93,0,0,0,96,64a2.15,2.15,0,0,0,1.17-.31,3.78,3.78,0,0,0,.91-.82l1.09.83a4,4,0,0,1-3.36,1.55,4.17,4.17,0,0,1-1.62-.3A3.52,3.52,0,0,1,93,64.11a3.7,3.7,0,0,1-.78-1.26,4.46,4.46,0,0,1-.27-1.58,4.15,4.15,0,0,1,.3-1.58,3.91,3.91,0,0,1,.82-1.26,3.71,3.71,0,0,1,1.24-.84,4,4,0,0,1,1.57-.3,3.75,3.75,0,0,1,1.7.35,3.37,3.37,0,0,1,1.14.92,3.64,3.64,0,0,1,.65,1.28,5.31,5.31,0,0,1,.2,1.45v.51ZM98,60.65a3.06,3.06,0,0,0-.15-.88,2,2,0,0,0-.41-.7,1.89,1.89,0,0,0-.68-.46,2.49,2.49,0,0,0-1-.17,2.31,2.31,0,0,0-1,.2,2.37,2.37,0,0,0-.74.52,2.41,2.41,0,0,0-.47.71,2,2,0,0,0-.17.78Z" transform="translate(-8.04 -19.9)"/><path d="M101.28,57.48h1.44v1.17h0a2.13,2.13,0,0,1,.94-1,3.13,3.13,0,0,1,1.55-.38,3.31,3.31,0,0,1,1,.17,2.37,2.37,0,0,1,.88.52,2.51,2.51,0,0,1,.6.9,3.45,3.45,0,0,1,.22,1.3v4.88h-1.44V60.58a2.51,2.51,0,0,0-.14-.9,1.65,1.65,0,0,0-.38-.61,1.45,1.45,0,0,0-.55-.34,2,2,0,0,0-.65-.1,2.36,2.36,0,0,0-.83.14,1.73,1.73,0,0,0-.67.46,2.15,2.15,0,0,0-.45.79,3.58,3.58,0,0,0-.16,1.14v3.9h-1.44Z" transform="translate(-8.04 -19.9)"/><path d="M120.2,65.35a6.11,6.11,0,0,1-2.38-.46,5.54,5.54,0,0,1-1.86-1.26,5.8,5.8,0,0,1-1.22-1.89,6.5,6.5,0,0,1,0-4.7,5.8,5.8,0,0,1,1.22-1.89,5.54,5.54,0,0,1,1.86-1.26,6.46,6.46,0,0,1,4.77,0,5.55,5.55,0,0,1,1.86,1.26A5.84,5.84,0,0,1,125.66,57a6.51,6.51,0,0,1,0,4.7,5.83,5.83,0,0,1-1.22,1.89,5.55,5.55,0,0,1-1.86,1.26A6.11,6.11,0,0,1,120.2,65.35Zm0-1.44a4.11,4.11,0,0,0,3.1-1.33,4.26,4.26,0,0,0,.86-1.43,5.2,5.2,0,0,0,0-3.5,4.28,4.28,0,0,0-.86-1.43,4.24,4.24,0,0,0-6.21,0,4.27,4.27,0,0,0-.86,1.43,5.19,5.19,0,0,0,0,3.5,4.25,4.25,0,0,0,.86,1.43,4.11,4.11,0,0,0,3.1,1.33Z" transform="translate(-8.04 -19.9)"/><path d="M127.94,57.48h1.44v1.09h0a2.75,2.75,0,0,1,1.14-.94,3.54,3.54,0,0,1,1.5-.34,4,4,0,0,1,1.59.3,3.51,3.51,0,0,1,1.22.85,3.82,3.82,0,0,1,.78,1.27,4.43,4.43,0,0,1,.27,1.56,4.48,4.48,0,0,1-.27,1.58,3.73,3.73,0,0,1-.78,1.26,3.56,3.56,0,0,1-1.22.84,4,4,0,0,1-1.59.3,3.52,3.52,0,0,1-1.54-.34,2.62,2.62,0,0,1-1.1-.94h0v5.6h-1.44Zm3.94,1.15a2.61,2.61,0,0,0-1,.2,2.31,2.31,0,0,0-.78.54,2.39,2.39,0,0,0-.5.83,3.31,3.31,0,0,0,0,2.13,2.38,2.38,0,0,0,.5.83,2.28,2.28,0,0,0,.78.54,2.81,2.81,0,0,0,2.08,0,2.29,2.29,0,0,0,.78-.54,2.38,2.38,0,0,0,.5-.83,3.31,3.31,0,0,0,0-2.13,2.39,2.39,0,0,0-.5-.83,2.31,2.31,0,0,0-.78-.54A2.61,2.61,0,0,0,131.88,58.63Z" transform="translate(-8.04 -19.9)"/><path d="M141.78,58.73h-2.06v3.44q0,.32,0,.63a1.66,1.66,0,0,0,.12.56.91.91,0,0,0,.32.4,1.09,1.09,0,0,0,.63.15,3,3,0,0,0,.53,0,1.52,1.52,0,0,0,.5-.18V65a1.87,1.87,0,0,1-.66.2,5.06,5.06,0,0,1-.63.06,2.9,2.9,0,0,1-1.29-.23,1.57,1.57,0,0,1-.67-.6,1.93,1.93,0,0,1-.26-.82c0-.3,0-.61,0-.92v-4h-1.66V57.48h1.66V55.35h1.44v2.13h2.06Z" transform="translate(-8.04 -19.9)"/><path d="M143.41,54.76a1.06,1.06,0,1,1,.31.74A1,1,0,0,1,143.41,54.76Zm.34,2.72h1.44v7.58h-1.44Z" transform="translate(-8.04 -19.9)"/><path d="M152.9,59.5a3,3,0,0,0-.84-.63,2.36,2.36,0,0,0-1-.22,2.32,2.32,0,0,0-1,.22,2.12,2.12,0,0,0-.74.59,2.64,2.64,0,0,0-.45.86,3.39,3.39,0,0,0-.15,1,2.85,2.85,0,0,0,.18,1,2.52,2.52,0,0,0,.5.82,2.29,2.29,0,0,0,.77.55,2.45,2.45,0,0,0,1,.2,2.3,2.3,0,0,0,1-.22,2.65,2.65,0,0,0,.8-.63l1,1a3.23,3.23,0,0,1-1.3.9,4.55,4.55,0,0,1-1.58.27,4.35,4.35,0,0,1-1.61-.29,3.72,3.72,0,0,1-1.26-.81,3.56,3.56,0,0,1-.82-1.25,4.34,4.34,0,0,1-.29-1.61,4.41,4.41,0,0,1,.29-1.62,3.7,3.7,0,0,1,.81-1.26,3.64,3.64,0,0,1,1.25-.82,4.27,4.27,0,0,1,1.62-.3,4.35,4.35,0,0,1,1.59.3,3.5,3.5,0,0,1,1.32.9Z" transform="translate(-8.04 -19.9)"/><path d="M155.22,58.41a4,4,0,0,1,1.41-.84,4.82,4.82,0,0,1,1.6-.28,4.41,4.41,0,0,1,1.43.21,2.79,2.79,0,0,1,1,.56,2.22,2.22,0,0,1,.57.81,2.53,2.53,0,0,1,.18,1v3.87q0,.4,0,.74c0,.22,0,.44,0,.64h-1.28q0-.58,0-1.15h0A2.76,2.76,0,0,1,159,65a3.58,3.58,0,0,1-1.52.3,3.5,3.5,0,0,1-1-.14,2.46,2.46,0,0,1-.84-.43A2.07,2.07,0,0,1,155,64a2.21,2.21,0,0,1-.21-1,2.18,2.18,0,0,1,.33-1.23,2.48,2.48,0,0,1,.9-.81,4.32,4.32,0,0,1,1.33-.45,9.29,9.29,0,0,1,1.62-.14h1.06V60a1.58,1.58,0,0,0-.11-.58,1.55,1.55,0,0,0-.34-.52,1.61,1.61,0,0,0-.56-.37,2.15,2.15,0,0,0-.8-.14,2.93,2.93,0,0,0-.73.08,3.26,3.26,0,0,0-.57.2,2.53,2.53,0,0,0-.46.28l-.4.3Zm4.06,3a10.16,10.16,0,0,0-1,.06,4.09,4.09,0,0,0-1,.22,1.87,1.87,0,0,0-.72.45,1,1,0,0,0-.28.74,1,1,0,0,0,.44.94,2.15,2.15,0,0,0,1.19.29,2.3,2.3,0,0,0,1-.2,1.89,1.89,0,0,0,.67-.52,2,2,0,0,0,.37-.71,2.84,2.84,0,0,0,.11-.78v-.48Z" transform="translate(-8.04 -19.9)"/><path d="M163.6,53H165v12.1H163.6Z" transform="translate(-8.04 -19.9)"/><path d="M69.67,72.94h4a4.66,4.66,0,0,1,1.79.3,3,3,0,0,1,1.11.75,2.56,2.56,0,0,1,.57,1,3.83,3.83,0,0,1,0,2.19,2.55,2.55,0,0,1-.57,1,3,3,0,0,1-1.11.75,4.66,4.66,0,0,1-1.79.3H71.2v5H69.67Zm1.54,5h2a5.52,5.52,0,0,0,.89-.07,2.38,2.38,0,0,0,.78-.26,1.46,1.46,0,0,0,.55-.55,2.21,2.21,0,0,0,0-1.87,1.46,1.46,0,0,0-.55-.55,2.38,2.38,0,0,0-.78-.26,5.52,5.52,0,0,0-.89-.07h-2Z" transform="translate(-8.04 -19.9)"/><path d="M78.82,77.61a4,4,0,0,1,1.41-.84,4.82,4.82,0,0,1,1.6-.28,4.41,4.41,0,0,1,1.43.21,2.79,2.79,0,0,1,1,.56,2.22,2.22,0,0,1,.57.81A2.53,2.53,0,0,1,85,79v3.87q0,.4,0,.74c0,.22,0,.44,0,.64H83.78q0-.58,0-1.15h0a2.76,2.76,0,0,1-1.14,1,3.58,3.58,0,0,1-1.52.3,3.5,3.5,0,0,1-1-.14,2.46,2.46,0,0,1-.84-.43,2.07,2.07,0,0,1-.57-.71,2.21,2.21,0,0,1-.21-1A2.18,2.18,0,0,1,78.75,81a2.48,2.48,0,0,1,.9-.81A4.32,4.32,0,0,1,81,79.7a9.29,9.29,0,0,1,1.62-.14h1.06v-.32a1.58,1.58,0,0,0-.11-.58,1.55,1.55,0,0,0-.34-.52,1.61,1.61,0,0,0-.56-.37,2.15,2.15,0,0,0-.8-.14,2.93,2.93,0,0,0-.73.08,3.26,3.26,0,0,0-.57.2,2.53,2.53,0,0,0-.46.28l-.4.3Zm4.06,3a10.16,10.16,0,0,0-1,.06,4.09,4.09,0,0,0-1,.22,1.87,1.87,0,0,0-.72.45,1,1,0,0,0-.28.74,1,1,0,0,0,.44.94,2.15,2.15,0,0,0,1.19.29,2.3,2.3,0,0,0,1-.2,1.89,1.89,0,0,0,.67-.52,2,2,0,0,0,.37-.71,2.84,2.84,0,0,0,.11-.78v-.48Z" transform="translate(-8.04 -19.9)"/><path d="M92.52,78.7a3,3,0,0,0-.84-.63,2.36,2.36,0,0,0-1-.22,2.32,2.32,0,0,0-1,.22,2.12,2.12,0,0,0-.74.59,2.64,2.64,0,0,0-.45.86,3.39,3.39,0,0,0-.15,1,2.85,2.85,0,0,0,.18,1,2.52,2.52,0,0,0,.5.82,2.29,2.29,0,0,0,.77.55,2.45,2.45,0,0,0,1,.2,2.3,2.3,0,0,0,1-.22,2.65,2.65,0,0,0,.8-.63l1,1a3.23,3.23,0,0,1-1.3.9,4.55,4.55,0,0,1-1.58.27,4.35,4.35,0,0,1-1.61-.29,3.72,3.72,0,0,1-1.26-.81A3.56,3.56,0,0,1,87,82.11a4.34,4.34,0,0,1-.29-1.61A4.41,4.41,0,0,1,87,78.89a3.7,3.7,0,0,1,.81-1.26,3.64,3.64,0,0,1,1.25-.82,4.27,4.27,0,0,1,1.62-.3,4.35,4.35,0,0,1,1.59.3,3.5,3.5,0,0,1,1.32.9Z" transform="translate(-8.04 -19.9)"/><path d="M94.8,72.17h1.44V80l3.26-3.28h2L98,80.14l3.84,4.13h-2l-3.52-3.94v3.94H94.8Z" transform="translate(-8.04 -19.9)"/><path d="M104.2,81a1.9,1.9,0,0,0,.22.9,2.26,2.26,0,0,0,.57.7,2.61,2.61,0,0,0,.82.45,2.93,2.93,0,0,0,1,.16,2.15,2.15,0,0,0,1.17-.31,3.78,3.78,0,0,0,.91-.82l1.09.83a4,4,0,0,1-3.36,1.55,4.17,4.17,0,0,1-1.62-.3,3.52,3.52,0,0,1-1.23-.84,3.7,3.7,0,0,1-.78-1.26,4.46,4.46,0,0,1-.27-1.58,4.15,4.15,0,0,1,.3-1.58,3.91,3.91,0,0,1,.82-1.26,3.71,3.71,0,0,1,1.24-.84,4,4,0,0,1,1.57-.3,3.75,3.75,0,0,1,1.7.35,3.37,3.37,0,0,1,1.14.92,3.64,3.64,0,0,1,.65,1.28,5.31,5.31,0,0,1,.2,1.45V81Zm4.54-1.15a3.06,3.06,0,0,0-.15-.88,2,2,0,0,0-.41-.7,1.89,1.89,0,0,0-.68-.46,2.49,2.49,0,0,0-1-.17,2.31,2.31,0,0,0-1,.2,2.37,2.37,0,0,0-.74.52,2.41,2.41,0,0,0-.47.71,2,2,0,0,0-.17.78Z" transform="translate(-8.04 -19.9)"/><path d="M116.07,77.93H114v3.44q0,.32,0,.63a1.66,1.66,0,0,0,.12.56.91.91,0,0,0,.32.4,1.09,1.09,0,0,0,.63.15,3,3,0,0,0,.53,0,1.52,1.52,0,0,0,.5-.18V84.2a1.87,1.87,0,0,1-.66.2,5.06,5.06,0,0,1-.63.06,2.9,2.9,0,0,1-1.29-.23,1.57,1.57,0,0,1-.67-.6,1.93,1.93,0,0,1-.26-.82c0-.3,0-.61,0-.92v-4H110.9V76.68h1.66V74.55H114v2.13h2.06Z" transform="translate(-8.04 -19.9)"/><path d="M125.11,74.38h-3.65V72.94h8.83v1.44h-3.65v9.89h-1.54Z" transform="translate(-8.04 -19.9)"/><path d="M130.08,76.68h1.44v1.17h0a2.07,2.07,0,0,1,.38-.55,2.53,2.53,0,0,1,.54-.42,2.84,2.84,0,0,1,.65-.28,2.48,2.48,0,0,1,.7-.1,2,2,0,0,1,.64.1l-.06,1.55-.35-.08a2,2,0,0,0-.35,0,2.12,2.12,0,0,0-1.62.59,2.61,2.61,0,0,0-.56,1.84v3.81h-1.44Z" transform="translate(-8.04 -19.9)"/><path d="M136,77.61a4,4,0,0,1,1.41-.84,4.82,4.82,0,0,1,1.6-.28,4.41,4.41,0,0,1,1.43.21,2.79,2.79,0,0,1,1,.56,2.22,2.22,0,0,1,.57.81,2.53,2.53,0,0,1,.18,1v3.87q0,.4,0,.74c0,.22,0,.44,0,.64H141q0-.58,0-1.15h0a2.76,2.76,0,0,1-1.14,1,3.58,3.58,0,0,1-1.52.3,3.5,3.5,0,0,1-1-.14,2.46,2.46,0,0,1-.84-.43,2.07,2.07,0,0,1-.57-.71,2.21,2.21,0,0,1-.21-1A2.18,2.18,0,0,1,136,81a2.48,2.48,0,0,1,.9-.81,4.32,4.32,0,0,1,1.33-.45,9.29,9.29,0,0,1,1.62-.14h1.06v-.32a1.58,1.58,0,0,0-.11-.58,1.55,1.55,0,0,0-.34-.52,1.61,1.61,0,0,0-.56-.37,2.15,2.15,0,0,0-.8-.14,2.93,2.93,0,0,0-.73.08,3.26,3.26,0,0,0-.57.2,2.53,2.53,0,0,0-.46.28l-.4.3Zm4.06,3a10.16,10.16,0,0,0-1,.06,4.09,4.09,0,0,0-1,.22,1.87,1.87,0,0,0-.72.45,1,1,0,0,0-.28.74,1,1,0,0,0,.44.94,2.15,2.15,0,0,0,1.19.29,2.3,2.3,0,0,0,1-.2,1.89,1.89,0,0,0,.67-.52,2,2,0,0,0,.37-.71,2.84,2.84,0,0,0,.11-.78v-.48Z" transform="translate(-8.04 -19.9)"/><path d="M144.31,76.68h1.44v1.17h0a2.13,2.13,0,0,1,.94-1,3.13,3.13,0,0,1,1.55-.38,3.31,3.31,0,0,1,1,.17,2.37,2.37,0,0,1,.88.52,2.51,2.51,0,0,1,.6.9,3.45,3.45,0,0,1,.22,1.3v4.88h-1.44V79.78a2.51,2.51,0,0,0-.14-.9,1.65,1.65,0,0,0-.38-.61,1.45,1.45,0,0,0-.55-.34,2,2,0,0,0-.65-.1A2.36,2.36,0,0,0,147,78a1.73,1.73,0,0,0-.67.46,2.15,2.15,0,0,0-.45.79,3.58,3.58,0,0,0-.16,1.14v3.9h-1.44Z" transform="translate(-8.04 -19.9)"/><path d="M157.24,78.58a2.2,2.2,0,0,0-.63-.54,1.82,1.82,0,0,0-.92-.22,1.75,1.75,0,0,0-.89.22.69.69,0,0,0-.38.63.72.72,0,0,0,.22.54,1.71,1.71,0,0,0,.51.34,3,3,0,0,0,.63.19l.58.11a6.86,6.86,0,0,1,.87.27,2.42,2.42,0,0,1,.7.42,1.81,1.81,0,0,1,.46.62,2.16,2.16,0,0,1,.17.9,2.1,2.1,0,0,1-.27,1.1,2.3,2.3,0,0,1-.7.74,3,3,0,0,1-1,.42,4.93,4.93,0,0,1-1.11.13,4.41,4.41,0,0,1-1.66-.29,3,3,0,0,1-1.27-1.06l1.09-.9a4.49,4.49,0,0,0,.78.62,1.94,1.94,0,0,0,1.06.27,2.82,2.82,0,0,0,.55-.06,1.69,1.69,0,0,0,.5-.18,1.08,1.08,0,0,0,.35-.3.7.7,0,0,0,.14-.42.73.73,0,0,0-.2-.53,1.45,1.45,0,0,0-.48-.33,3.51,3.51,0,0,0-.59-.19L155.2,81c-.31-.07-.6-.16-.88-.26a2.67,2.67,0,0,1-.74-.38,1.77,1.77,0,0,1-.51-.61,2,2,0,0,1-.19-.91,2.07,2.07,0,0,1,.25-1,2.22,2.22,0,0,1,.66-.73,3,3,0,0,1,.93-.43,3.93,3.93,0,0,1,1-.14,3.86,3.86,0,0,1,1.47.29,2.34,2.34,0,0,1,1.12,1Z" transform="translate(-8.04 -19.9)"/><path d="M160.31,76.68h1.44v1.09h0a2.75,2.75,0,0,1,1.14-.94,3.54,3.54,0,0,1,1.5-.34,4,4,0,0,1,1.59.3,3.51,3.51,0,0,1,1.22.85,3.82,3.82,0,0,1,.78,1.27,4.43,4.43,0,0,1,.27,1.56A4.48,4.48,0,0,1,168,82a3.73,3.73,0,0,1-.78,1.26,3.56,3.56,0,0,1-1.22.84,4,4,0,0,1-1.59.3,3.52,3.52,0,0,1-1.54-.34,2.62,2.62,0,0,1-1.1-.94h0v5.6h-1.44Zm3.94,1.15a2.61,2.61,0,0,0-1,.2,2.31,2.31,0,0,0-.78.54,2.39,2.39,0,0,0-.5.83,3.31,3.31,0,0,0,0,2.13,2.38,2.38,0,0,0,.5.83,2.28,2.28,0,0,0,.78.54,2.81,2.81,0,0,0,2.08,0,2.29,2.29,0,0,0,.78-.54,2.38,2.38,0,0,0,.5-.83,3.31,3.31,0,0,0,0-2.13,2.39,2.39,0,0,0-.5-.83,2.31,2.31,0,0,0-.78-.54A2.61,2.61,0,0,0,164.24,77.83Z" transform="translate(-8.04 -19.9)"/><path d="M169.71,80.47a3.86,3.86,0,0,1,.31-1.55,4.05,4.05,0,0,1,.86-1.26,4.08,4.08,0,0,1,5.73,0,4.05,4.05,0,0,1,.86,1.26,3.86,3.86,0,0,1,.31,1.55,4,4,0,0,1-1.17,2.82,4.07,4.07,0,0,1-1.28.85,4.17,4.17,0,0,1-3.17,0,4.07,4.07,0,0,1-1.28-.85,4,4,0,0,1-1.17-2.82Zm1.54,0a3.12,3.12,0,0,0,.18,1.06,2.39,2.39,0,0,0,.5.83,2.29,2.29,0,0,0,.78.54,2.81,2.81,0,0,0,2.08,0,2.29,2.29,0,0,0,.78-.54,2.41,2.41,0,0,0,.5-.83,3.31,3.31,0,0,0,0-2.13,2.42,2.42,0,0,0-.5-.83,2.32,2.32,0,0,0-.78-.54,2.81,2.81,0,0,0-2.08,0,2.32,2.32,0,0,0-.78.54,2.41,2.41,0,0,0-.5.83A3.12,3.12,0,0,0,171.25,80.47Z" transform="translate(-8.04 -19.9)"/><path d="M179.59,76.68H181v1.17h0a2.07,2.07,0,0,1,.38-.55,2.53,2.53,0,0,1,.54-.42,2.84,2.84,0,0,1,.65-.28,2.48,2.48,0,0,1,.7-.1,2,2,0,0,1,.64.1l-.06,1.55-.35-.08a2,2,0,0,0-.35,0,2.12,2.12,0,0,0-1.62.59,2.61,2.61,0,0,0-.56,1.84v3.81h-1.44Z" transform="translate(-8.04 -19.9)"/><path d="M189.57,77.93h-2.06v3.44q0,.32,0,.63a1.66,1.66,0,0,0,.12.56.91.91,0,0,0,.32.4,1.09,1.09,0,0,0,.63.15,3,3,0,0,0,.53,0,1.52,1.52,0,0,0,.5-.18V84.2a1.87,1.87,0,0,1-.66.2,5.06,5.06,0,0,1-.63.06,2.9,2.9,0,0,1-1.29-.23,1.57,1.57,0,0,1-.67-.6,1.93,1.93,0,0,1-.26-.82c0-.3,0-.61,0-.92v-4H184.4V76.68h1.66V74.55h1.44v2.13h2.06Z" transform="translate(-8.04 -19.9)"/><rect x="0.5" y="89.09" width="45.03" height="21.68" rx="10.84" ry="10.84"/><path class="cls-1" d="M14.79,125.2l6-5.92a7.62,7.62,0,0,0,.61-.64,5.86,5.86,0,0,0,.52-.72,3.78,3.78,0,0,0,.37-.8,2.84,2.84,0,0,0,.14-.88,2.37,2.37,0,0,0-.2-1,2.17,2.17,0,0,0-.55-.75,2.51,2.51,0,0,0-.82-.47,3,3,0,0,0-1-.17,2.68,2.68,0,0,0-1.81.61,2.75,2.75,0,0,0-.9,1.68L14.94,116a4.67,4.67,0,0,1,.58-1.71A4.14,4.14,0,0,1,16.59,113a4.35,4.35,0,0,1,1.47-.71,6.66,6.66,0,0,1,1.8-.23,6.13,6.13,0,0,1,1.82.26,4.43,4.43,0,0,1,1.49.78,3.63,3.63,0,0,1,1,1.28,4.12,4.12,0,0,1,.37,1.8,4.18,4.18,0,0,1-.22,1.38,5.8,5.8,0,0,1-.58,1.21,7.5,7.5,0,0,1-.82,1.07q-.46.5-1,1l-4.89,4.73h7.48v1.76H14.79Z" transform="translate(-8.04 -19.9)"/><path class="cls-1" d="M26.22,119.91q0-.82.08-1.7a11.09,11.09,0,0,1,.3-1.73,9.19,9.19,0,0,1,.59-1.63,4.8,4.8,0,0,1,.95-1.35,4.43,4.43,0,0,1,1.36-.92,5,5,0,0,1,3.67,0,4.43,4.43,0,0,1,1.37.92,4.82,4.82,0,0,1,.94,1.35,9.23,9.23,0,0,1,.59,1.63,11.09,11.09,0,0,1,.3,1.73q.08.88.08,1.7a16.4,16.4,0,0,1-.21,2.52,8.67,8.67,0,0,1-.78,2.5,5.28,5.28,0,0,1-1.56,1.91,4.14,4.14,0,0,1-2.57.76,4.14,4.14,0,0,1-2.57-.76,5.27,5.27,0,0,1-1.56-1.91,8.67,8.67,0,0,1-.78-2.5A16.34,16.34,0,0,1,26.22,119.91Zm2,0q0,.74.09,1.74a8.56,8.56,0,0,0,.41,1.94,4.21,4.21,0,0,0,.93,1.58,2.47,2.47,0,0,0,3.34,0,4.21,4.21,0,0,0,.93-1.58,8.56,8.56,0,0,0,.41-1.94q.09-1,.09-1.74,0-.5,0-1.14a10.66,10.66,0,0,0-.15-1.3,8.65,8.65,0,0,0-.33-1.28,4.37,4.37,0,0,0-.56-1.11,2.68,2.68,0,0,0-.85-.79,2.58,2.58,0,0,0-2.39,0,2.67,2.67,0,0,0-.85.79,4.37,4.37,0,0,0-.56,1.11,8.53,8.53,0,0,0-.33,1.28,10.57,10.57,0,0,0-.15,1.3Q28.23,119.4,28.23,119.91Z" transform="translate(-8.04 -19.9)"/><path class="cls-1" d="M45.27,114.24h-7.2v-1.76h9.35v1.72l-5.92,13.15H39.22Z" transform="translate(-8.04 -19.9)"/><path d="M254.27,113.29l-2.08,1.92-.9-1.07,3.15-2.61h1.36v11.33h-1.54Z" transform="translate(-8.04 -19.9)"/><path d="M259.39,117.2q0-.62.06-1.3a8.34,8.34,0,0,1,.23-1.32,7,7,0,0,1,.45-1.24,3.66,3.66,0,0,1,.72-1,3.37,3.37,0,0,1,1-.7,3.85,3.85,0,0,1,2.8,0,3.36,3.36,0,0,1,1,.7,3.66,3.66,0,0,1,.72,1,7,7,0,0,1,.45,1.24,8.45,8.45,0,0,1,.23,1.32q.06.67.06,1.3a12.49,12.49,0,0,1-.16,1.92,6.63,6.63,0,0,1-.59,1.9,4,4,0,0,1-1.19,1.46,3.62,3.62,0,0,1-3.92,0,4,4,0,0,1-1.19-1.46,6.6,6.6,0,0,1-.59-1.9A12.5,12.5,0,0,1,259.39,117.2Zm1.54,0q0,.56.07,1.33a6.49,6.49,0,0,0,.31,1.48,3.21,3.21,0,0,0,.71,1.21,1.88,1.88,0,0,0,2.54,0,3.19,3.19,0,0,0,.71-1.21,6.49,6.49,0,0,0,.31-1.48q.07-.77.07-1.33c0-.26,0-.55,0-.87a8,8,0,0,0-.11-1,6.55,6.55,0,0,0-.25-1,3.31,3.31,0,0,0-.42-.85,2,2,0,0,0-.65-.6,2,2,0,0,0-1.82,0,2.05,2.05,0,0,0-.65.6,3.31,3.31,0,0,0-.42.85,6.55,6.55,0,0,0-.25,1,8.21,8.21,0,0,0-.11,1Q260.93,116.81,260.93,117.2Z" transform="translate(-8.04 -19.9)"/><path d="M270,117.29a1.07,1.07,0,1,1,.74-.31A1,1,0,0,1,270,117.29Zm-1.06,4.61a1.07,1.07,0,1,1,.31.74A1,1,0,0,1,268.91,121.9Z" transform="translate(-8.04 -19.9)"/><path d="M274.56,120.09a2.73,2.73,0,0,0,.72,1.22,2,2,0,0,0,1.35.4,2.29,2.29,0,0,0,.84-.15,2.35,2.35,0,0,0,.69-.42,1.93,1.93,0,0,0,.48-.64,2.21,2.21,0,0,0-.12-2,1.88,1.88,0,0,0-.76-.64,3.3,3.3,0,0,0-1-.28,9.87,9.87,0,0,0-1.1-.06V116.2a7.07,7.07,0,0,0,1.44-.12,2.42,2.42,0,0,0,.88-.34,1.2,1.2,0,0,0,.45-.56,2.11,2.11,0,0,0,.13-.75,1.71,1.71,0,0,0-.54-1.38,2,2,0,0,0-1.36-.46,1.89,1.89,0,0,0-1.13.36,2.24,2.24,0,0,0-.76,1l-1.57-.53a3.15,3.15,0,0,1,1.37-1.61,4.11,4.11,0,0,1,2.06-.52,4.68,4.68,0,0,1,1.32.18A3.17,3.17,0,0,1,279,112a2.73,2.73,0,0,1,.76,1,3.14,3.14,0,0,1,.28,1.37,2.57,2.57,0,0,1-.54,1.6,2.67,2.67,0,0,1-1.4,1v0a2.69,2.69,0,0,1,.94.35,2.54,2.54,0,0,1,.7.64,2.74,2.74,0,0,1,.43.86,3.38,3.38,0,0,1,.14,1,3.13,3.13,0,0,1-.31,1.43,3,3,0,0,1-.83,1,3.66,3.66,0,0,1-1.2.62,4.91,4.91,0,0,1-1.43.21,4.33,4.33,0,0,1-2.28-.59,3.13,3.13,0,0,1-1.37-1.87Z" transform="translate(-8.04 -19.9)"/><path d="M281.63,117.2q0-.62.06-1.3a8.34,8.34,0,0,1,.23-1.32,7,7,0,0,1,.45-1.24,3.66,3.66,0,0,1,.72-1,3.37,3.37,0,0,1,1-.7,3.85,3.85,0,0,1,2.8,0,3.36,3.36,0,0,1,1,.7,3.66,3.66,0,0,1,.72,1,7,7,0,0,1,.45,1.24,8.45,8.45,0,0,1,.23,1.32q.06.67.06,1.3a12.49,12.49,0,0,1-.16,1.92,6.63,6.63,0,0,1-.59,1.9,4,4,0,0,1-1.19,1.46,3.62,3.62,0,0,1-3.92,0,4,4,0,0,1-1.19-1.46,6.6,6.6,0,0,1-.59-1.9A12.5,12.5,0,0,1,281.63,117.2Zm1.54,0q0,.56.07,1.33a6.49,6.49,0,0,0,.31,1.48,3.21,3.21,0,0,0,.71,1.21,1.88,1.88,0,0,0,2.54,0,3.19,3.19,0,0,0,.71-1.21,6.49,6.49,0,0,0,.31-1.48q.07-.77.07-1.33c0-.26,0-.55,0-.87a8,8,0,0,0-.11-1,6.55,6.55,0,0,0-.25-1,3.31,3.31,0,0,0-.42-.85,2,2,0,0,0-.65-.6,2,2,0,0,0-1.82,0,2.05,2.05,0,0,0-.65.6,3.31,3.31,0,0,0-.42.85,6.55,6.55,0,0,0-.25,1,8.21,8.21,0,0,0-.11,1Q283.17,116.81,283.17,117.2Z" transform="translate(-8.04 -19.9)"/><path d="M291.1,116.2a4,4,0,0,1,1.41-.84,4.82,4.82,0,0,1,1.6-.28,4.41,4.41,0,0,1,1.43.21,2.79,2.79,0,0,1,1,.56,2.22,2.22,0,0,1,.57.81,2.53,2.53,0,0,1,.18,1v3.87q0,.4,0,.74c0,.22,0,.44,0,.64h-1.28q0-.58,0-1.15h0a2.76,2.76,0,0,1-1.14,1,3.58,3.58,0,0,1-1.52.3,3.5,3.5,0,0,1-1-.14,2.46,2.46,0,0,1-.84-.43,2.07,2.07,0,0,1-.57-.71,2.21,2.21,0,0,1-.21-1,2.18,2.18,0,0,1,.33-1.23,2.48,2.48,0,0,1,.9-.81,4.32,4.32,0,0,1,1.33-.45,9.29,9.29,0,0,1,1.62-.14h1.06v-.32a1.58,1.58,0,0,0-.11-.58,1.55,1.55,0,0,0-.34-.52,1.61,1.61,0,0,0-.56-.37,2.15,2.15,0,0,0-.8-.14,2.93,2.93,0,0,0-.73.08,3.26,3.26,0,0,0-.57.2,2.53,2.53,0,0,0-.46.28l-.4.3Zm4.06,3a10.16,10.16,0,0,0-1,.06,4.09,4.09,0,0,0-1,.22,1.87,1.87,0,0,0-.72.45,1,1,0,0,0-.28.74,1,1,0,0,0,.44.94,2.15,2.15,0,0,0,1.19.29,2.3,2.3,0,0,0,1-.2,1.89,1.89,0,0,0,.67-.52,2,2,0,0,0,.37-.71,2.84,2.84,0,0,0,.11-.78v-.48Z" transform="translate(-8.04 -19.9)"/><path d="M299.38,115.28h1.34v1.18h0a1.25,1.25,0,0,1,.25-.4,2.54,2.54,0,0,1,.51-.46,3.16,3.16,0,0,1,.74-.37,2.75,2.75,0,0,1,.94-.15,2.69,2.69,0,0,1,1.42.35,2.62,2.62,0,0,1,.94,1.06,2.43,2.43,0,0,1,1-1.06,2.91,2.91,0,0,1,1.36-.35,3.15,3.15,0,0,1,1.44.29,2.32,2.32,0,0,1,.88.76,2.91,2.91,0,0,1,.44,1.07,6.31,6.31,0,0,1,.12,1.24v4.42h-1.44v-4.22a6,6,0,0,0-.06-.83,1.92,1.92,0,0,0-.23-.7,1.33,1.33,0,0,0-.5-.49,1.7,1.7,0,0,0-.85-.18,1.68,1.68,0,0,0-1.49.64,2.81,2.81,0,0,0-.45,1.65v4.14h-1.44v-4a8.1,8.1,0,0,0-.06-1,2.34,2.34,0,0,0-.22-.78,1.25,1.25,0,0,0-.48-.51,1.66,1.66,0,0,0-.84-.18,1.91,1.91,0,0,0-.74.15,1.76,1.76,0,0,0-.63.46,2.21,2.21,0,0,0-.43.78,3.45,3.45,0,0,0-.16,1.11v3.94h-1.44Z" transform="translate(-8.04 -19.9)"/><path d="M320.86,119.66h-3.94v-1.34h3.94Z" transform="translate(-8.04 -19.9)"/><path d="M330.19,113.29l-2.08,1.92-.9-1.07,3.15-2.61h1.36v11.33h-1.54Z" transform="translate(-8.04 -19.9)"/><path d="M337,117.29a1.07,1.07,0,1,1,.74-.31A1,1,0,0,1,337,117.29Zm-1.06,4.61a1.07,1.07,0,1,1,.31.74A1,1,0,0,1,335.94,121.9Z" transform="translate(-8.04 -19.9)"/><path d="M341.58,120.09a2.73,2.73,0,0,0,.72,1.22,2,2,0,0,0,1.35.4,2.29,2.29,0,0,0,.84-.15,2.35,2.35,0,0,0,.69-.42,1.93,1.93,0,0,0,.48-.64,2.21,2.21,0,0,0-.12-2,1.88,1.88,0,0,0-.76-.64,3.3,3.3,0,0,0-1-.28,9.87,9.87,0,0,0-1.1-.06V116.2a7.07,7.07,0,0,0,1.44-.12,2.42,2.42,0,0,0,.88-.34,1.2,1.2,0,0,0,.45-.56,2.11,2.11,0,0,0,.13-.75,1.71,1.71,0,0,0-.54-1.38,2,2,0,0,0-1.36-.46,1.89,1.89,0,0,0-1.13.36,2.24,2.24,0,0,0-.76,1l-1.57-.53a3.15,3.15,0,0,1,1.37-1.61,4.11,4.11,0,0,1,2.06-.52,4.68,4.68,0,0,1,1.32.18A3.17,3.17,0,0,1,346,112a2.73,2.73,0,0,1,.76,1,3.14,3.14,0,0,1,.28,1.37,2.57,2.57,0,0,1-.54,1.6,2.67,2.67,0,0,1-1.4,1v0a2.69,2.69,0,0,1,.94.35,2.54,2.54,0,0,1,.7.64,2.74,2.74,0,0,1,.43.86,3.38,3.38,0,0,1,.14,1,3.13,3.13,0,0,1-.31,1.43,3,3,0,0,1-.83,1,3.66,3.66,0,0,1-1.2.62,4.91,4.91,0,0,1-1.43.21,4.33,4.33,0,0,1-2.28-.59,3.13,3.13,0,0,1-1.37-1.87Z" transform="translate(-8.04 -19.9)"/><path d="M348.66,117.2q0-.62.06-1.3a8.34,8.34,0,0,1,.23-1.32,7,7,0,0,1,.45-1.24,3.66,3.66,0,0,1,.72-1,3.37,3.37,0,0,1,1-.7,3.85,3.85,0,0,1,2.8,0,3.36,3.36,0,0,1,1,.7,3.66,3.66,0,0,1,.72,1,7,7,0,0,1,.45,1.24,8.45,8.45,0,0,1,.23,1.32q.06.67.06,1.3a12.49,12.49,0,0,1-.16,1.92,6.63,6.63,0,0,1-.59,1.9,4,4,0,0,1-1.19,1.46,3.62,3.62,0,0,1-3.92,0,4,4,0,0,1-1.19-1.46,6.6,6.6,0,0,1-.59-1.9A12.5,12.5,0,0,1,348.66,117.2Zm1.54,0q0,.56.07,1.33a6.49,6.49,0,0,0,.31,1.48,3.21,3.21,0,0,0,.71,1.21,1.88,1.88,0,0,0,2.54,0,3.19,3.19,0,0,0,.71-1.21,6.49,6.49,0,0,0,.31-1.48q.07-.77.07-1.33c0-.26,0-.55,0-.87a8,8,0,0,0-.11-1,6.55,6.55,0,0,0-.25-1,3.31,3.31,0,0,0-.42-.85,2,2,0,0,0-.65-.6,2,2,0,0,0-1.82,0,2.05,2.05,0,0,0-.65.6,3.31,3.31,0,0,0-.42.85,6.55,6.55,0,0,0-.25,1,8.21,8.21,0,0,0-.11,1Q350.19,116.81,350.19,117.2Z" transform="translate(-8.04 -19.9)"/><path d="M358.1,115.28h1.44v1.09h0a2.75,2.75,0,0,1,1.14-.94,3.54,3.54,0,0,1,1.5-.34,4,4,0,0,1,1.59.3,3.51,3.51,0,0,1,1.22.85,3.82,3.82,0,0,1,.78,1.27,4.43,4.43,0,0,1,.27,1.56,4.48,4.48,0,0,1-.27,1.58,3.73,3.73,0,0,1-.78,1.26,3.56,3.56,0,0,1-1.22.84,4,4,0,0,1-1.59.3,3.52,3.52,0,0,1-1.54-.34,2.62,2.62,0,0,1-1.1-.94h0v5.6H358.1Zm3.94,1.15a2.61,2.61,0,0,0-1,.2,2.31,2.31,0,0,0-.78.54,2.39,2.39,0,0,0-.5.83,3.31,3.31,0,0,0,0,2.13,2.38,2.38,0,0,0,.5.83,2.28,2.28,0,0,0,.78.54,2.81,2.81,0,0,0,2.08,0,2.29,2.29,0,0,0,.78-.54,2.38,2.38,0,0,0,.5-.83,3.31,3.31,0,0,0,0-2.13,2.39,2.39,0,0,0-.5-.83,2.31,2.31,0,0,0-.78-.54A2.61,2.61,0,0,0,362,116.43Z" transform="translate(-8.04 -19.9)"/><path d="M367.87,115.28h1.34v1.18h0a1.25,1.25,0,0,1,.25-.4,2.54,2.54,0,0,1,.51-.46,3.16,3.16,0,0,1,.74-.37,2.75,2.75,0,0,1,.94-.15,2.69,2.69,0,0,1,1.42.35,2.62,2.62,0,0,1,.94,1.06,2.43,2.43,0,0,1,1-1.06,2.91,2.91,0,0,1,1.36-.35,3.15,3.15,0,0,1,1.44.29,2.32,2.32,0,0,1,.88.76,2.91,2.91,0,0,1,.44,1.07,6.31,6.31,0,0,1,.12,1.24v4.42h-1.44v-4.22a6,6,0,0,0-.06-.83,1.92,1.92,0,0,0-.23-.7,1.33,1.33,0,0,0-.5-.49,1.7,1.7,0,0,0-.85-.18,1.68,1.68,0,0,0-1.49.64,2.81,2.81,0,0,0-.45,1.65v4.14h-1.44v-4a8.1,8.1,0,0,0-.06-1,2.34,2.34,0,0,0-.22-.78,1.25,1.25,0,0,0-.48-.51,1.66,1.66,0,0,0-.84-.18,1.91,1.91,0,0,0-.74.15,1.76,1.76,0,0,0-.63.46,2.21,2.21,0,0,0-.43.78,3.45,3.45,0,0,0-.16,1.11v3.94h-1.44Z" transform="translate(-8.04 -19.9)"/><path d="M69.67,113.18H77v1.44H71.2V118h5.38v1.44H71.2v3.63h6.06v1.44h-7.6Z" transform="translate(-8.04 -19.9)"/><path d="M86.68,124.51H85.24v-1.09h0a2.74,2.74,0,0,1-1.14.95,3.56,3.56,0,0,1-1.5.34,4,4,0,0,1-1.59-.3,3.54,3.54,0,0,1-1.22-.85,3.84,3.84,0,0,1-.78-1.26,4.4,4.4,0,0,1-.27-1.57,4.45,4.45,0,0,1,.27-1.58,3.7,3.7,0,0,1,.78-1.26A3.54,3.54,0,0,1,81,117a4,4,0,0,1,1.59-.3,3.53,3.53,0,0,1,1.54.34,2.63,2.63,0,0,1,1.1.94h0v-5.6h1.44Zm-3.94-1.15a2.61,2.61,0,0,0,1-.2,2.28,2.28,0,0,0,.78-.54,2.41,2.41,0,0,0,.5-.83,3.31,3.31,0,0,0,0-2.13,2.4,2.4,0,0,0-.5-.83,2.33,2.33,0,0,0-.78-.54,2.81,2.81,0,0,0-2.08,0,2.33,2.33,0,0,0-.78.54,2.39,2.39,0,0,0-.5.83,3.31,3.31,0,0,0,0,2.13,2.4,2.4,0,0,0,.5.83,2.28,2.28,0,0,0,.78.54A2.61,2.61,0,0,0,82.74,123.36Z" transform="translate(-8.04 -19.9)"/><path d="M96.45,124.44a4.07,4.07,0,0,1-.3,1.58,3.59,3.59,0,0,1-.84,1.23,3.78,3.78,0,0,1-1.31.81,4.82,4.82,0,0,1-1.7.29,6.26,6.26,0,0,1-2-.3A4.81,4.81,0,0,1,88.6,127l1-1.22a4,4,0,0,0,1.22.92,3.4,3.4,0,0,0,1.49.31,3.28,3.28,0,0,0,1.33-.23,2.26,2.26,0,0,0,.84-.6,2.16,2.16,0,0,0,.44-.84,3.63,3.63,0,0,0,.13-1v-1.12h0a2.52,2.52,0,0,1-1.13,1,3.53,3.53,0,0,1-1.5.33,4,4,0,0,1-1.54-.29,3.67,3.67,0,0,1-1.22-.82,3.73,3.73,0,0,1-.8-1.23,4.08,4.08,0,0,1-.29-1.54,4.42,4.42,0,0,1,.27-1.56,3.8,3.8,0,0,1,.78-1.27,3.48,3.48,0,0,1,1.22-.85,4,4,0,0,1,1.59-.3,3.53,3.53,0,0,1,1.5.34A2.75,2.75,0,0,1,95,118h0v-1.09h1.44Zm-3.94-6.37a2.61,2.61,0,0,0-1,.2,2.33,2.33,0,0,0-.78.54,2.39,2.39,0,0,0-.5.83,3.12,3.12,0,0,0-.18,1.06,2.55,2.55,0,0,0,.67,1.85,2.74,2.74,0,0,0,3.65,0,2.55,2.55,0,0,0,.67-1.85,3.12,3.12,0,0,0-.18-1.06,2.4,2.4,0,0,0-.5-.83,2.33,2.33,0,0,0-.78-.54A2.61,2.61,0,0,0,92.52,118.08Z" transform="translate(-8.04 -19.9)"/><path d="M99.71,121.24a1.91,1.91,0,0,0,.22.9,2.26,2.26,0,0,0,.57.7,2.61,2.61,0,0,0,.82.45,3,3,0,0,0,1,.16,2.16,2.16,0,0,0,1.17-.31,3.8,3.8,0,0,0,.91-.82l1.09.83a4,4,0,0,1-3.36,1.55,4.17,4.17,0,0,1-1.62-.3,3.54,3.54,0,0,1-1.23-.84,3.71,3.71,0,0,1-.78-1.26,4.47,4.47,0,0,1-.27-1.58,4.14,4.14,0,0,1,.3-1.58,3.9,3.9,0,0,1,.82-1.26,3.7,3.7,0,0,1,1.24-.84,4,4,0,0,1,1.57-.3,3.75,3.75,0,0,1,1.7.35,3.37,3.37,0,0,1,1.14.92,3.64,3.64,0,0,1,.65,1.28,5.31,5.31,0,0,1,.2,1.45v.51Zm4.54-1.15a3.05,3.05,0,0,0-.15-.88,2,2,0,0,0-.41-.7,1.88,1.88,0,0,0-.68-.46,2.47,2.47,0,0,0-1-.17,2.32,2.32,0,0,0-1,.2,2.38,2.38,0,0,0-.74.52,2.42,2.42,0,0,0-.47.71,2,2,0,0,0-.17.78Z" transform="translate(-8.04 -19.9)"/><path d="M120.23,115.63a3.17,3.17,0,0,0-1.22-1,3.61,3.61,0,0,0-1.52-.34,4.1,4.1,0,0,0-1.74.36,4,4,0,0,0-1.33,1,4.47,4.47,0,0,0-.86,1.46,5.24,5.24,0,0,0-.3,1.8,5,5,0,0,0,.29,1.7,4.27,4.27,0,0,0,.83,1.41,3.91,3.91,0,0,0,1.33,1,4.29,4.29,0,0,0,1.78.35,3.54,3.54,0,0,0,1.71-.4,3.69,3.69,0,0,0,1.25-1.12l1.3,1a5.37,5.37,0,0,1-.45.5,4.53,4.53,0,0,1-.85.66,6.06,6.06,0,0,1-1.27.58,5.47,5.47,0,0,1-1.72.25,5.61,5.61,0,0,1-2.42-.51,5.94,5.94,0,0,1-3.4-5.35,6.66,6.66,0,0,1,.43-2.42,5.75,5.75,0,0,1,1.21-1.92,5.42,5.42,0,0,1,1.86-1.26,6.24,6.24,0,0,1,2.4-.45,5.9,5.9,0,0,1,2.2.43,4.1,4.1,0,0,1,1.77,1.33Z" transform="translate(-8.04 -19.9)"/><path d="M122.87,120.72a3.87,3.87,0,0,1,.31-1.55,4,4,0,0,1,.86-1.26,4.08,4.08,0,0,1,5.73,0,4,4,0,0,1,.86,1.26,3.87,3.87,0,0,1,.31,1.55,4,4,0,0,1-1.17,2.82,4.09,4.09,0,0,1-1.28.85,4.17,4.17,0,0,1-3.17,0,4.09,4.09,0,0,1-1.28-.85,4,4,0,0,1-1.17-2.82Zm1.54,0a3.13,3.13,0,0,0,.18,1.06,2.4,2.4,0,0,0,.5.83,2.28,2.28,0,0,0,.78.54,2.81,2.81,0,0,0,2.08,0,2.28,2.28,0,0,0,.78-.54,2.41,2.41,0,0,0,.5-.83,3.31,3.31,0,0,0,0-2.13,2.4,2.4,0,0,0-.5-.83,2.33,2.33,0,0,0-.78-.54,2.81,2.81,0,0,0-2.08,0,2.33,2.33,0,0,0-.78.54,2.39,2.39,0,0,0-.5.83A3.12,3.12,0,0,0,124.4,120.72Z" transform="translate(-8.04 -19.9)"/><path d="M132.74,116.92h1.34v1.18h0a1.26,1.26,0,0,1,.25-.4,2.57,2.57,0,0,1,.51-.46,3.16,3.16,0,0,1,.74-.37,2.75,2.75,0,0,1,.94-.15,2.69,2.69,0,0,1,1.42.35,2.62,2.62,0,0,1,.94,1.06,2.43,2.43,0,0,1,1-1.06,2.91,2.91,0,0,1,1.36-.35,3.15,3.15,0,0,1,1.44.29,2.32,2.32,0,0,1,.88.76,2.91,2.91,0,0,1,.44,1.07,6.31,6.31,0,0,1,.12,1.24v4.42h-1.44v-4.22a6,6,0,0,0-.06-.83,1.92,1.92,0,0,0-.23-.71,1.33,1.33,0,0,0-.5-.49,1.71,1.71,0,0,0-.85-.18,1.68,1.68,0,0,0-1.49.64,2.81,2.81,0,0,0-.45,1.65v4.14h-1.44v-4a8.09,8.09,0,0,0-.06-1,2.34,2.34,0,0,0-.22-.78,1.25,1.25,0,0,0-.48-.51,1.67,1.67,0,0,0-.84-.18,1.89,1.89,0,0,0-.74.15,1.77,1.77,0,0,0-.63.46,2.22,2.22,0,0,0-.43.78,3.45,3.45,0,0,0-.16,1.11v3.94h-1.44Z" transform="translate(-8.04 -19.9)"/><path d="M146.37,116.92h1.44V118h0a2.76,2.76,0,0,1,1.14-.94,3.53,3.53,0,0,1,1.5-.34,4,4,0,0,1,1.59.3,3.49,3.49,0,0,1,1.22.85,3.81,3.81,0,0,1,.78,1.27,4.44,4.44,0,0,1,.27,1.56,4.49,4.49,0,0,1-.27,1.58,3.74,3.74,0,0,1-.78,1.26,3.58,3.58,0,0,1-1.22.84,4,4,0,0,1-1.59.3,3.5,3.5,0,0,1-1.54-.35,2.62,2.62,0,0,1-1.1-.94h0V129h-1.44Zm3.94,1.15a2.61,2.61,0,0,0-1,.2,2.32,2.32,0,0,0-.78.54,2.37,2.37,0,0,0-.5.83,3.31,3.31,0,0,0,0,2.13,2.38,2.38,0,0,0,.5.83,2.27,2.27,0,0,0,.78.54,2.81,2.81,0,0,0,2.08,0,2.28,2.28,0,0,0,.78-.54,2.38,2.38,0,0,0,.5-.83,3.31,3.31,0,0,0,0-2.13,2.37,2.37,0,0,0-.5-.83,2.33,2.33,0,0,0-.78-.54A2.61,2.61,0,0,0,150.31,118.08Z" transform="translate(-8.04 -19.9)"/><path d="M162.87,124.51h-1.44v-1.17h0a2.12,2.12,0,0,1-.94,1,3.13,3.13,0,0,1-1.55.38,3.28,3.28,0,0,1-1.06-.17A2.39,2.39,0,0,1,157,124a2.49,2.49,0,0,1-.6-.9,3.44,3.44,0,0,1-.22-1.3v-4.88h1.44v4.48a2.54,2.54,0,0,0,.14.9,1.66,1.66,0,0,0,.38.61,1.44,1.44,0,0,0,.55.34,2,2,0,0,0,.65.1,2.36,2.36,0,0,0,.83-.14,1.72,1.72,0,0,0,.67-.46,2.13,2.13,0,0,0,.45-.79,3.62,3.62,0,0,0,.16-1.14v-3.9h1.44Z" transform="translate(-8.04 -19.9)"/><path d="M169.11,118.17H167v3.44q0,.32,0,.63a1.66,1.66,0,0,0,.12.56.91.91,0,0,0,.32.4,1.09,1.09,0,0,0,.63.15,3.11,3.11,0,0,0,.53,0,1.55,1.55,0,0,0,.5-.18v1.31a1.85,1.85,0,0,1-.66.2,5.06,5.06,0,0,1-.63.06,2.9,2.9,0,0,1-1.29-.23,1.58,1.58,0,0,1-.67-.6,1.94,1.94,0,0,1-.26-.82c0-.3,0-.61,0-.92v-4h-1.66v-1.25h1.66V114.8H167v2.13h2.06Z" transform="translate(-8.04 -19.9)"/><path d="M170.74,114.21a1.06,1.06,0,1,1,.31.74A1,1,0,0,1,170.74,114.21Zm.34,2.72h1.44v7.58h-1.44Z" transform="translate(-8.04 -19.9)"/><path d="M174.8,116.92h1.44v1.17h0a2.13,2.13,0,0,1,.94-1,3.13,3.13,0,0,1,1.55-.37,3.31,3.31,0,0,1,1,.17,2.36,2.36,0,0,1,.88.52,2.52,2.52,0,0,1,.6.9,3.45,3.45,0,0,1,.22,1.3v4.88h-1.44V120a2.5,2.5,0,0,0-.14-.9,1.65,1.65,0,0,0-.38-.61,1.46,1.46,0,0,0-.55-.34,2.06,2.06,0,0,0-.65-.1,2.36,2.36,0,0,0-.83.14,1.74,1.74,0,0,0-.67.46,2.17,2.17,0,0,0-.45.79,3.58,3.58,0,0,0-.16,1.13v3.9H174.8Z" transform="translate(-8.04 -19.9)"/><path d="M191.3,124.44A4.07,4.07,0,0,1,191,126a3.59,3.59,0,0,1-.84,1.23,3.78,3.78,0,0,1-1.31.81,4.82,4.82,0,0,1-1.7.29,6.26,6.26,0,0,1-2-.3,4.81,4.81,0,0,1-1.72-1.06l1-1.22a4,4,0,0,0,1.22.92,3.4,3.4,0,0,0,1.49.31,3.28,3.28,0,0,0,1.33-.23,2.26,2.26,0,0,0,.84-.6,2.16,2.16,0,0,0,.44-.84,3.63,3.63,0,0,0,.13-1v-1.12h0a2.52,2.52,0,0,1-1.13,1,3.53,3.53,0,0,1-1.5.33,4,4,0,0,1-1.54-.29,3.67,3.67,0,0,1-1.22-.82,3.73,3.73,0,0,1-.8-1.23,4.08,4.08,0,0,1-.29-1.54,4.42,4.42,0,0,1,.27-1.56,3.8,3.8,0,0,1,.78-1.27,3.48,3.48,0,0,1,1.22-.85,4,4,0,0,1,1.59-.3,3.53,3.53,0,0,1,1.5.34,2.75,2.75,0,0,1,1.14.94h0v-1.09h1.44Zm-3.94-6.37a2.61,2.61,0,0,0-1,.2,2.33,2.33,0,0,0-.78.54,2.39,2.39,0,0,0-.5.83,3.12,3.12,0,0,0-.18,1.06,2.55,2.55,0,0,0,.67,1.85,2.74,2.74,0,0,0,3.65,0,2.55,2.55,0,0,0,.67-1.85,3.12,3.12,0,0,0-.18-1.06,2.4,2.4,0,0,0-.5-.83,2.33,2.33,0,0,0-.78-.54A2.61,2.61,0,0,0,187.36,118.08Z" transform="translate(-8.04 -19.9)"/><rect x="0.5" y="132.84" width="45.03" height="21.68" rx="10.84" ry="10.84"/><path class="cls-1" d="M14.79,169l6-5.92a7.62,7.62,0,0,0,.61-.64,5.86,5.86,0,0,0,.52-.72,3.78,3.78,0,0,0,.37-.8,2.84,2.84,0,0,0,.14-.88,2.37,2.37,0,0,0-.2-1,2.17,2.17,0,0,0-.55-.75,2.51,2.51,0,0,0-.82-.47,3,3,0,0,0-1-.17,2.68,2.68,0,0,0-1.81.61,2.75,2.75,0,0,0-.9,1.68l-2.18-.19a4.67,4.67,0,0,1,.58-1.71,4.14,4.14,0,0,1,1.07-1.21,4.35,4.35,0,0,1,1.47-.71,6.66,6.66,0,0,1,1.8-.23,6.13,6.13,0,0,1,1.82.26,4.43,4.43,0,0,1,1.49.78,3.63,3.63,0,0,1,1,1.28,4.12,4.12,0,0,1,.37,1.8,4.18,4.18,0,0,1-.22,1.38,5.8,5.8,0,0,1-.58,1.21,7.5,7.5,0,0,1-.82,1.07q-.46.5-1,1l-4.89,4.73h7.48v1.76H14.79Z" transform="translate(-8.04 -19.9)"/><path class="cls-1" d="M26.22,163.66q0-.82.08-1.7a11.09,11.09,0,0,1,.3-1.73,9.19,9.19,0,0,1,.59-1.63,4.8,4.8,0,0,1,.95-1.35,4.43,4.43,0,0,1,1.36-.92,5,5,0,0,1,3.67,0,4.43,4.43,0,0,1,1.37.92,4.82,4.82,0,0,1,.94,1.35,9.23,9.23,0,0,1,.59,1.63,11.09,11.09,0,0,1,.3,1.73q.08.88.08,1.7a16.4,16.4,0,0,1-.21,2.52,8.67,8.67,0,0,1-.78,2.5,5.28,5.28,0,0,1-1.56,1.91,4.14,4.14,0,0,1-2.57.76,4.14,4.14,0,0,1-2.57-.76,5.27,5.27,0,0,1-1.56-1.91,8.67,8.67,0,0,1-.78-2.5A16.34,16.34,0,0,1,26.22,163.66Zm2,0q0,.74.09,1.74a8.56,8.56,0,0,0,.41,1.94,4.21,4.21,0,0,0,.93,1.58,2.47,2.47,0,0,0,3.34,0,4.21,4.21,0,0,0,.93-1.58,8.56,8.56,0,0,0,.41-1.94q.09-1,.09-1.74,0-.5,0-1.14a10.66,10.66,0,0,0-.15-1.3,8.65,8.65,0,0,0-.33-1.28,4.37,4.37,0,0,0-.56-1.11,2.68,2.68,0,0,0-.85-.79,2.58,2.58,0,0,0-2.39,0,2.67,2.67,0,0,0-.85.79,4.37,4.37,0,0,0-.56,1.11,8.53,8.53,0,0,0-.33,1.28,10.57,10.57,0,0,0-.15,1.3Q28.23,163.15,28.23,163.66Z" transform="translate(-8.04 -19.9)"/><path class="cls-1" d="M44.24,165.34h-.08a3.73,3.73,0,0,1-1.64.34,5.08,5.08,0,0,1-1.62-.27,4.3,4.3,0,0,1-1.48-.85,4.42,4.42,0,0,1-1.08-1.47,4.91,4.91,0,0,1-.42-2.11,5.32,5.32,0,0,1,.41-2.15,4.55,4.55,0,0,1,1.1-1.56,4.7,4.7,0,0,1,1.62-1,5.9,5.9,0,0,1,2-.33,5.74,5.74,0,0,1,2,.34,4.85,4.85,0,0,1,1.62,1,4.7,4.7,0,0,1,1.1,1.51,4.63,4.63,0,0,1,.41,2A7,7,0,0,1,48,162a6.06,6.06,0,0,1-.3,1.08,9,9,0,0,1-.47,1q-.27.5-.61,1l-3.76,5.94H40.5Zm1.87-4.51a3.39,3.39,0,0,0-.22-1.24,2.79,2.79,0,0,0-.63-1,2.93,2.93,0,0,0-1-.64,3.55,3.55,0,0,0-2.52,0,2.92,2.92,0,0,0-1,.64,2.79,2.79,0,0,0-.63,1,3.59,3.59,0,0,0,0,2.48,2.79,2.79,0,0,0,.63,1,2.91,2.91,0,0,0,1,.64,3.55,3.55,0,0,0,2.52,0,2.91,2.91,0,0,0,1-.64,2.79,2.79,0,0,0,.63-1A3.39,3.39,0,0,0,46.11,160.82Z" transform="translate(-8.04 -19.9)"/><path d="M254.27,157,252.19,159l-.9-1.07,3.15-2.61h1.36v11.33h-1.54Z" transform="translate(-8.04 -19.9)"/><path d="M259.39,160.95q0-.62.06-1.3a8.34,8.34,0,0,1,.23-1.32,7,7,0,0,1,.45-1.24,3.66,3.66,0,0,1,.72-1,3.37,3.37,0,0,1,1-.7,3.85,3.85,0,0,1,2.8,0,3.36,3.36,0,0,1,1,.7,3.66,3.66,0,0,1,.72,1,7,7,0,0,1,.45,1.24,8.45,8.45,0,0,1,.23,1.32q.06.67.06,1.3a12.49,12.49,0,0,1-.16,1.92,6.63,6.63,0,0,1-.59,1.9,4,4,0,0,1-1.19,1.46,3.62,3.62,0,0,1-3.92,0,4,4,0,0,1-1.19-1.46,6.6,6.6,0,0,1-.59-1.9A12.5,12.5,0,0,1,259.39,160.95Zm1.54,0q0,.56.07,1.33a6.49,6.49,0,0,0,.31,1.48A3.21,3.21,0,0,0,262,165a1.88,1.88,0,0,0,2.54,0,3.19,3.19,0,0,0,.71-1.21,6.49,6.49,0,0,0,.31-1.48q.07-.77.07-1.33c0-.26,0-.55,0-.87a8,8,0,0,0-.11-1,6.55,6.55,0,0,0-.25-1,3.31,3.31,0,0,0-.42-.85,2,2,0,0,0-.65-.6,2,2,0,0,0-1.82,0,2.05,2.05,0,0,0-.65.6,3.31,3.31,0,0,0-.42.85,6.55,6.55,0,0,0-.25,1,8.21,8.21,0,0,0-.11,1Q260.93,160.56,260.93,160.95Z" transform="translate(-8.04 -19.9)"/><path d="M270,161a1.07,1.07,0,1,1,.74-.31A1,1,0,0,1,270,161Zm-1.06,4.61a1.07,1.07,0,1,1,.31.74A1,1,0,0,1,268.91,165.65Z" transform="translate(-8.04 -19.9)"/><path d="M274.56,163.84a2.73,2.73,0,0,0,.72,1.22,2,2,0,0,0,1.35.4,2.29,2.29,0,0,0,.84-.15,2.35,2.35,0,0,0,.69-.42,1.93,1.93,0,0,0,.48-.64,2.21,2.21,0,0,0-.12-2,1.88,1.88,0,0,0-.76-.64,3.3,3.3,0,0,0-1-.28,9.87,9.87,0,0,0-1.1-.06V160a7.07,7.07,0,0,0,1.44-.12,2.42,2.42,0,0,0,.88-.34,1.2,1.2,0,0,0,.45-.56,2.11,2.11,0,0,0,.13-.75,1.71,1.71,0,0,0-.54-1.38,2,2,0,0,0-1.36-.46,1.89,1.89,0,0,0-1.13.36,2.24,2.24,0,0,0-.76,1l-1.57-.53a3.15,3.15,0,0,1,1.37-1.61,4.11,4.11,0,0,1,2.06-.52,4.68,4.68,0,0,1,1.32.18,3.17,3.17,0,0,1,1.11.57,2.73,2.73,0,0,1,.76,1,3.14,3.14,0,0,1,.28,1.37,2.57,2.57,0,0,1-.54,1.6,2.67,2.67,0,0,1-1.4,1v0a2.69,2.69,0,0,1,.94.35,2.54,2.54,0,0,1,.7.64,2.74,2.74,0,0,1,.43.86,3.38,3.38,0,0,1,.14,1A3.13,3.13,0,0,1,280,165a3,3,0,0,1-.83,1,3.66,3.66,0,0,1-1.2.62,4.91,4.91,0,0,1-1.43.21,4.33,4.33,0,0,1-2.28-.59,3.13,3.13,0,0,1-1.37-1.87Z" transform="translate(-8.04 -19.9)"/><path d="M281.63,160.95q0-.62.06-1.3a8.34,8.34,0,0,1,.23-1.32,7,7,0,0,1,.45-1.24,3.66,3.66,0,0,1,.72-1,3.37,3.37,0,0,1,1-.7,3.85,3.85,0,0,1,2.8,0,3.36,3.36,0,0,1,1,.7,3.66,3.66,0,0,1,.72,1,7,7,0,0,1,.45,1.24,8.45,8.45,0,0,1,.23,1.32q.06.67.06,1.3a12.49,12.49,0,0,1-.16,1.92,6.63,6.63,0,0,1-.59,1.9,4,4,0,0,1-1.19,1.46,3.62,3.62,0,0,1-3.92,0,4,4,0,0,1-1.19-1.46,6.6,6.6,0,0,1-.59-1.9A12.5,12.5,0,0,1,281.63,160.95Zm1.54,0q0,.56.07,1.33a6.49,6.49,0,0,0,.31,1.48,3.21,3.21,0,0,0,.71,1.21,1.88,1.88,0,0,0,2.54,0,3.19,3.19,0,0,0,.71-1.21,6.49,6.49,0,0,0,.31-1.48q.07-.77.07-1.33c0-.26,0-.55,0-.87a8,8,0,0,0-.11-1,6.55,6.55,0,0,0-.25-1,3.31,3.31,0,0,0-.42-.85,2,2,0,0,0-.65-.6,2,2,0,0,0-1.82,0,2.05,2.05,0,0,0-.65.6,3.31,3.31,0,0,0-.42.85,6.55,6.55,0,0,0-.25,1,8.21,8.21,0,0,0-.11,1Q283.17,160.56,283.17,160.95Z" transform="translate(-8.04 -19.9)"/><path d="M291.1,160a4,4,0,0,1,1.41-.84,4.82,4.82,0,0,1,1.6-.28,4.41,4.41,0,0,1,1.43.21,2.79,2.79,0,0,1,1,.56,2.22,2.22,0,0,1,.57.81,2.53,2.53,0,0,1,.18,1v3.87q0,.4,0,.74c0,.22,0,.44,0,.64h-1.28q0-.58,0-1.15h0a2.76,2.76,0,0,1-1.14,1,3.58,3.58,0,0,1-1.52.3,3.5,3.5,0,0,1-1-.14,2.46,2.46,0,0,1-.84-.43,2.07,2.07,0,0,1-.57-.71,2.21,2.21,0,0,1-.21-1,2.18,2.18,0,0,1,.33-1.23,2.48,2.48,0,0,1,.9-.81,4.32,4.32,0,0,1,1.33-.45,9.29,9.29,0,0,1,1.62-.14h1.06v-.32a1.58,1.58,0,0,0-.11-.58,1.55,1.55,0,0,0-.34-.52,1.61,1.61,0,0,0-.56-.37,2.15,2.15,0,0,0-.8-.14,2.93,2.93,0,0,0-.73.08,3.26,3.26,0,0,0-.57.2,2.53,2.53,0,0,0-.46.28l-.4.3Zm4.06,3a10.16,10.16,0,0,0-1,.06,4.09,4.09,0,0,0-1,.22,1.87,1.87,0,0,0-.72.45,1,1,0,0,0-.28.74,1,1,0,0,0,.44.94,2.15,2.15,0,0,0,1.19.29,2.3,2.3,0,0,0,1-.2,1.89,1.89,0,0,0,.67-.52,2,2,0,0,0,.37-.71,2.84,2.84,0,0,0,.11-.78V163Z" transform="translate(-8.04 -19.9)"/><path d="M299.38,159h1.34v1.18h0a1.25,1.25,0,0,1,.25-.4,2.54,2.54,0,0,1,.51-.46,3.16,3.16,0,0,1,.74-.37,2.75,2.75,0,0,1,.94-.15,2.69,2.69,0,0,1,1.42.35,2.62,2.62,0,0,1,.94,1.06,2.43,2.43,0,0,1,1-1.06,2.91,2.91,0,0,1,1.36-.35,3.15,3.15,0,0,1,1.44.29,2.32,2.32,0,0,1,.88.76,2.91,2.91,0,0,1,.44,1.07,6.31,6.31,0,0,1,.12,1.24v4.42h-1.44v-4.22a6,6,0,0,0-.06-.83,1.92,1.92,0,0,0-.23-.7,1.33,1.33,0,0,0-.5-.49,1.7,1.7,0,0,0-.85-.18,1.68,1.68,0,0,0-1.49.64,2.81,2.81,0,0,0-.45,1.65v4.14h-1.44v-4a8.1,8.1,0,0,0-.06-1,2.34,2.34,0,0,0-.22-.78,1.25,1.25,0,0,0-.48-.51,1.66,1.66,0,0,0-.84-.18,1.91,1.91,0,0,0-.74.15,1.76,1.76,0,0,0-.63.46,2.21,2.21,0,0,0-.43.78,3.45,3.45,0,0,0-.16,1.11v3.94h-1.44Z" transform="translate(-8.04 -19.9)"/><path d="M320.86,163.41h-3.94v-1.34h3.94Z" transform="translate(-8.04 -19.9)"/><path d="M330.19,157,328.11,159l-.9-1.07,3.15-2.61h1.36v11.33h-1.54Z" transform="translate(-8.04 -19.9)"/><path d="M335.5,165l4.54-4.51a5.83,5.83,0,0,0,.46-.49,4.39,4.39,0,0,0,.4-.55,2.81,2.81,0,0,0,.28-.61,2.16,2.16,0,0,0,.1-.67,1.8,1.8,0,0,0-.15-.75,1.66,1.66,0,0,0-.42-.57,1.89,1.89,0,0,0-.62-.36,2.24,2.24,0,0,0-.76-.13,2,2,0,0,0-1.38.46,2.1,2.1,0,0,0-.69,1.28l-1.66-.14a3.56,3.56,0,0,1,.44-1.3,3.17,3.17,0,0,1,.82-.92,3.35,3.35,0,0,1,1.12-.54,5.1,5.1,0,0,1,1.37-.18,4.68,4.68,0,0,1,1.38.2,3.41,3.41,0,0,1,1.14.59,2.77,2.77,0,0,1,.77,1,3.13,3.13,0,0,1,.28,1.37,3.22,3.22,0,0,1-.17,1,4.43,4.43,0,0,1-.44.92,5.73,5.73,0,0,1-.62.82q-.35.38-.74.75l-3.73,3.6h5.7v1.34H335.5Z" transform="translate(-8.04 -19.9)"/><path d="M345.89,161a1.07,1.07,0,1,1,.74-.31A1,1,0,0,1,345.89,161Zm-1.06,4.61a1.07,1.07,0,1,1,.31.74A1,1,0,0,1,344.83,165.65Z" transform="translate(-8.04 -19.9)"/><path d="M350.48,163.84a2.73,2.73,0,0,0,.72,1.22,2,2,0,0,0,1.35.4,2.29,2.29,0,0,0,.84-.15,2.35,2.35,0,0,0,.69-.42,1.93,1.93,0,0,0,.48-.64,2.21,2.21,0,0,0-.12-2,1.88,1.88,0,0,0-.76-.64,3.3,3.3,0,0,0-1-.28,9.87,9.87,0,0,0-1.1-.06V160a7.07,7.07,0,0,0,1.44-.12,2.42,2.42,0,0,0,.88-.34,1.2,1.2,0,0,0,.45-.56,2.11,2.11,0,0,0,.13-.75,1.71,1.71,0,0,0-.54-1.38,2,2,0,0,0-1.36-.46,1.89,1.89,0,0,0-1.13.36,2.24,2.24,0,0,0-.76,1l-1.57-.53a3.15,3.15,0,0,1,1.37-1.61,4.11,4.11,0,0,1,2.06-.52,4.68,4.68,0,0,1,1.32.18,3.17,3.17,0,0,1,1.11.57,2.73,2.73,0,0,1,.76,1,3.14,3.14,0,0,1,.28,1.37,2.57,2.57,0,0,1-.54,1.6,2.67,2.67,0,0,1-1.4,1v0a2.69,2.69,0,0,1,.94.35,2.54,2.54,0,0,1,.7.64,2.74,2.74,0,0,1,.43.86,3.38,3.38,0,0,1,.14,1A3.13,3.13,0,0,1,356,165a3,3,0,0,1-.83,1,3.66,3.66,0,0,1-1.2.62,4.91,4.91,0,0,1-1.43.21,4.33,4.33,0,0,1-2.28-.59,3.13,3.13,0,0,1-1.37-1.87Z" transform="translate(-8.04 -19.9)"/><path d="M357.55,160.95q0-.62.06-1.3a8.34,8.34,0,0,1,.23-1.32,7,7,0,0,1,.45-1.24,3.66,3.66,0,0,1,.72-1,3.37,3.37,0,0,1,1-.7,3.85,3.85,0,0,1,2.8,0,3.36,3.36,0,0,1,1,.7,3.66,3.66,0,0,1,.72,1,7,7,0,0,1,.45,1.24,8.45,8.45,0,0,1,.23,1.32q.06.67.06,1.3a12.49,12.49,0,0,1-.16,1.92,6.63,6.63,0,0,1-.59,1.9,4,4,0,0,1-1.19,1.46,3.62,3.62,0,0,1-3.92,0,4,4,0,0,1-1.19-1.46,6.6,6.6,0,0,1-.59-1.9A12.5,12.5,0,0,1,357.55,160.95Zm1.54,0q0,.56.07,1.33a6.49,6.49,0,0,0,.31,1.48,3.21,3.21,0,0,0,.71,1.21,1.88,1.88,0,0,0,2.54,0,3.19,3.19,0,0,0,.71-1.21,6.49,6.49,0,0,0,.31-1.48q.07-.77.07-1.33c0-.26,0-.55,0-.87a8,8,0,0,0-.11-1,6.55,6.55,0,0,0-.25-1,3.31,3.31,0,0,0-.42-.85,2,2,0,0,0-.65-.6,2,2,0,0,0-1.82,0,2.05,2.05,0,0,0-.65.6,3.31,3.31,0,0,0-.42.85,6.55,6.55,0,0,0-.25,1,8.21,8.21,0,0,0-.11,1Q359.09,160.56,359.09,160.95Z" transform="translate(-8.04 -19.9)"/><path d="M367,159h1.44v1.09h0a2.75,2.75,0,0,1,1.14-.94,3.54,3.54,0,0,1,1.5-.34,4,4,0,0,1,1.59.3,3.51,3.51,0,0,1,1.22.85,3.82,3.82,0,0,1,.78,1.27,4.43,4.43,0,0,1,.27,1.56,4.48,4.48,0,0,1-.27,1.58,3.73,3.73,0,0,1-.78,1.26,3.56,3.56,0,0,1-1.22.84,4,4,0,0,1-1.59.3,3.52,3.52,0,0,1-1.54-.34,2.62,2.62,0,0,1-1.1-.94h0v5.6H367Zm3.94,1.15a2.61,2.61,0,0,0-1,.2,2.31,2.31,0,0,0-.78.54,2.39,2.39,0,0,0-.5.83,3.31,3.31,0,0,0,0,2.13,2.38,2.38,0,0,0,.5.83,2.28,2.28,0,0,0,.78.54,2.81,2.81,0,0,0,2.08,0,2.29,2.29,0,0,0,.78-.54,2.38,2.38,0,0,0,.5-.83,3.31,3.31,0,0,0,0-2.13,2.39,2.39,0,0,0-.5-.83,2.31,2.31,0,0,0-.78-.54A2.61,2.61,0,0,0,370.93,160.18Z" transform="translate(-8.04 -19.9)"/><path d="M376.77,159h1.34v1.18h0a1.25,1.25,0,0,1,.25-.4,2.54,2.54,0,0,1,.51-.46,3.16,3.16,0,0,1,.74-.37,2.75,2.75,0,0,1,.94-.15,2.69,2.69,0,0,1,1.42.35,2.62,2.62,0,0,1,.94,1.06,2.43,2.43,0,0,1,1-1.06,2.91,2.91,0,0,1,1.36-.35,3.15,3.15,0,0,1,1.44.29,2.32,2.32,0,0,1,.88.76,2.91,2.91,0,0,1,.44,1.07,6.31,6.31,0,0,1,.12,1.24v4.42h-1.44v-4.22a6,6,0,0,0-.06-.83,1.92,1.92,0,0,0-.23-.7,1.33,1.33,0,0,0-.5-.49,1.7,1.7,0,0,0-.85-.18,1.68,1.68,0,0,0-1.49.64,2.81,2.81,0,0,0-.45,1.65v4.14h-1.44v-4a8.1,8.1,0,0,0-.06-1,2.34,2.34,0,0,0-.22-.78,1.25,1.25,0,0,0-.48-.51,1.66,1.66,0,0,0-.84-.18,1.91,1.91,0,0,0-.74.15,1.76,1.76,0,0,0-.63.46,2.21,2.21,0,0,0-.43.78,3.45,3.45,0,0,0-.16,1.11v3.94h-1.44Z" transform="translate(-8.04 -19.9)"/><path d="M69.3,160.68h1.34v1.18h0a1.25,1.25,0,0,1,.25-.4,2.54,2.54,0,0,1,.51-.46,3.16,3.16,0,0,1,.74-.37,2.75,2.75,0,0,1,.94-.15,2.69,2.69,0,0,1,1.42.35,2.62,2.62,0,0,1,.94,1.06,2.43,2.43,0,0,1,1-1.06,2.91,2.91,0,0,1,1.36-.35,3.15,3.15,0,0,1,1.44.29,2.32,2.32,0,0,1,.88.76,2.91,2.91,0,0,1,.44,1.07,6.31,6.31,0,0,1,.12,1.24v4.42H79.32V164a6,6,0,0,0-.06-.83,1.92,1.92,0,0,0-.23-.7,1.33,1.33,0,0,0-.5-.49,1.7,1.7,0,0,0-.85-.18,1.68,1.68,0,0,0-1.49.64,2.81,2.81,0,0,0-.45,1.65v4.14H74.31v-4a8.1,8.1,0,0,0-.06-1,2.34,2.34,0,0,0-.22-.78,1.25,1.25,0,0,0-.48-.51,1.66,1.66,0,0,0-.84-.18A1.91,1.91,0,0,0,72,162a1.76,1.76,0,0,0-.63.46,2.21,2.21,0,0,0-.43.78,3.45,3.45,0,0,0-.16,1.11v3.94H69.3Z" transform="translate(-8.04 -19.9)"/><path d="M82.93,160.68h1.34v1.18h0a1.25,1.25,0,0,1,.25-.4,2.54,2.54,0,0,1,.51-.46,3.16,3.16,0,0,1,.74-.37,2.75,2.75,0,0,1,.94-.15,2.69,2.69,0,0,1,1.42.35,2.62,2.62,0,0,1,.94,1.06,2.43,2.43,0,0,1,1-1.06,2.91,2.91,0,0,1,1.36-.35,3.15,3.15,0,0,1,1.44.29,2.32,2.32,0,0,1,.88.76,2.91,2.91,0,0,1,.44,1.07,6.31,6.31,0,0,1,.12,1.24v4.42H92.95V164a6,6,0,0,0-.06-.83,1.92,1.92,0,0,0-.23-.7,1.33,1.33,0,0,0-.5-.49,1.7,1.7,0,0,0-.85-.18,1.68,1.68,0,0,0-1.49.64,2.81,2.81,0,0,0-.45,1.65v4.14H87.94v-4a8.1,8.1,0,0,0-.06-1,2.34,2.34,0,0,0-.22-.78,1.25,1.25,0,0,0-.48-.51,1.66,1.66,0,0,0-.84-.18,1.91,1.91,0,0,0-.74.15,1.76,1.76,0,0,0-.63.46,2.21,2.21,0,0,0-.43.78,3.45,3.45,0,0,0-.16,1.11v3.94H82.93Z" transform="translate(-8.04 -19.9)"/><path d="M96.82,156.93h2.29l3.6,8.58h.06l3.57-8.58h2.29v11.33h-1.54v-9.31h0l-3.82,9.31h-1l-3.82-9.31h0v9.31H96.82Z" transform="translate(-8.04 -19.9)"/><path d="M111.09,161.6a4,4,0,0,1,1.41-.84,4.82,4.82,0,0,1,1.6-.28,4.41,4.41,0,0,1,1.43.21,2.79,2.79,0,0,1,1,.56,2.22,2.22,0,0,1,.57.81,2.53,2.53,0,0,1,.18,1v3.87q0,.4,0,.74c0,.22,0,.44,0,.64h-1.28q0-.58,0-1.15h0a2.76,2.76,0,0,1-1.14,1,3.58,3.58,0,0,1-1.52.3,3.5,3.5,0,0,1-1-.14,2.46,2.46,0,0,1-.84-.43,2.07,2.07,0,0,1-.57-.71,2.21,2.21,0,0,1-.21-1,2.18,2.18,0,0,1,.33-1.23,2.48,2.48,0,0,1,.9-.81,4.32,4.32,0,0,1,1.33-.45,9.29,9.29,0,0,1,1.62-.14h1.06v-.32a1.58,1.58,0,0,0-.11-.58,1.55,1.55,0,0,0-.34-.52,1.61,1.61,0,0,0-.56-.37,2.15,2.15,0,0,0-.8-.14,2.93,2.93,0,0,0-.73.08,3.26,3.26,0,0,0-.57.2,2.53,2.53,0,0,0-.46.28l-.4.3Zm4.06,3a10.16,10.16,0,0,0-1,.06,4.09,4.09,0,0,0-1,.22,1.87,1.87,0,0,0-.72.45,1,1,0,0,0-.28.74,1,1,0,0,0,.44.94,2.15,2.15,0,0,0,1.19.29,2.3,2.3,0,0,0,1-.2,1.89,1.89,0,0,0,.67-.52,2,2,0,0,0,.37-.71,2.84,2.84,0,0,0,.11-.78v-.48Z" transform="translate(-8.04 -19.9)"/><path d="M118.45,160.68h1.66l2.27,5.81,2.18-5.81h1.54l-3,7.58h-1.58Z" transform="translate(-8.04 -19.9)"/><path d="M128.45,165a1.9,1.9,0,0,0,.22.9,2.26,2.26,0,0,0,.57.7,2.61,2.61,0,0,0,.82.45,2.93,2.93,0,0,0,1,.16,2.15,2.15,0,0,0,1.17-.31,3.78,3.78,0,0,0,.91-.82l1.09.83a4,4,0,0,1-3.36,1.55,4.17,4.17,0,0,1-1.62-.3,3.52,3.52,0,0,1-1.23-.84,3.7,3.7,0,0,1-.78-1.26,4.46,4.46,0,0,1-.27-1.58,4.15,4.15,0,0,1,.3-1.58,3.91,3.91,0,0,1,.82-1.26,3.71,3.71,0,0,1,1.24-.84,4,4,0,0,1,1.57-.3,3.75,3.75,0,0,1,1.7.35,3.37,3.37,0,0,1,1.14.92,3.64,3.64,0,0,1,.65,1.28,5.31,5.31,0,0,1,.2,1.45V165Zm4.54-1.15a3.06,3.06,0,0,0-.15-.88,2,2,0,0,0-.41-.7,1.89,1.89,0,0,0-.68-.46,2.49,2.49,0,0,0-1-.17,2.31,2.31,0,0,0-1,.2,2.37,2.37,0,0,0-.74.52,2.41,2.41,0,0,0-.47.71,2,2,0,0,0-.17.78Z" transform="translate(-8.04 -19.9)"/><path d="M74.87,211.57a6.11,6.11,0,0,1-2.38-.46,5.54,5.54,0,0,1-1.86-1.26A5.8,5.8,0,0,1,69.4,208a6.5,6.5,0,0,1,0-4.7,5.8,5.8,0,0,1,1.22-1.89,5.54,5.54,0,0,1,1.86-1.26,6.46,6.46,0,0,1,4.77,0,5.55,5.55,0,0,1,1.86,1.26,5.84,5.84,0,0,1,1.22,1.89,6.51,6.51,0,0,1,0,4.7,5.83,5.83,0,0,1-1.22,1.89,5.55,5.55,0,0,1-1.86,1.26A6.11,6.11,0,0,1,74.87,211.57Zm0-1.44A4.11,4.11,0,0,0,78,208.8a4.26,4.26,0,0,0,.86-1.43,5.2,5.2,0,0,0,0-3.5,4.28,4.28,0,0,0-.86-1.43,4.24,4.24,0,0,0-6.21,0,4.27,4.27,0,0,0-.86,1.43,5.19,5.19,0,0,0,0,3.5,4.25,4.25,0,0,0,.86,1.43,4.11,4.11,0,0,0,3.1,1.33Z" transform="translate(-8.04 -19.9)"/><path d="M82.61,203.7h1.44v1.09h0a2.75,2.75,0,0,1,1.14-.94,3.54,3.54,0,0,1,1.5-.34,4,4,0,0,1,1.59.3,3.51,3.51,0,0,1,1.22.85,3.82,3.82,0,0,1,.78,1.27,4.43,4.43,0,0,1,.27,1.56,4.48,4.48,0,0,1-.27,1.58,3.73,3.73,0,0,1-.78,1.26,3.56,3.56,0,0,1-1.22.84,4,4,0,0,1-1.59.3,3.52,3.52,0,0,1-1.54-.34,2.62,2.62,0,0,1-1.1-.94h0v5.6H82.61Zm3.94,1.15a2.61,2.61,0,0,0-1,.2,2.31,2.31,0,0,0-.78.54,2.39,2.39,0,0,0-.5.83,3.31,3.31,0,0,0,0,2.13,2.38,2.38,0,0,0,.5.83,2.28,2.28,0,0,0,.78.54,2.81,2.81,0,0,0,2.08,0,2.29,2.29,0,0,0,.78-.54,2.38,2.38,0,0,0,.5-.83,3.31,3.31,0,0,0,0-2.13,2.39,2.39,0,0,0-.5-.83,2.31,2.31,0,0,0-.78-.54A2.61,2.61,0,0,0,86.55,204.85Z" transform="translate(-8.04 -19.9)"/><path d="M93.48,208a1.9,1.9,0,0,0,.22.9,2.26,2.26,0,0,0,.57.7,2.61,2.61,0,0,0,.82.45,2.93,2.93,0,0,0,1,.16,2.15,2.15,0,0,0,1.17-.31,3.78,3.78,0,0,0,.91-.82l1.09.83a4,4,0,0,1-3.36,1.55,4.17,4.17,0,0,1-1.62-.3,3.52,3.52,0,0,1-1.23-.84,3.7,3.7,0,0,1-.78-1.26,4.46,4.46,0,0,1-.27-1.58,4.15,4.15,0,0,1,.3-1.58,3.91,3.91,0,0,1,.82-1.26,3.71,3.71,0,0,1,1.24-.84,4,4,0,0,1,1.57-.3,3.75,3.75,0,0,1,1.7.35,3.37,3.37,0,0,1,1.14.92,3.64,3.64,0,0,1,.65,1.28,5.31,5.31,0,0,1,.2,1.45V208ZM98,206.86a3.06,3.06,0,0,0-.15-.88,2,2,0,0,0-.41-.7,1.89,1.89,0,0,0-.68-.46,2.49,2.49,0,0,0-1-.17,2.31,2.31,0,0,0-1,.2,2.37,2.37,0,0,0-.74.52,2.41,2.41,0,0,0-.47.71,2,2,0,0,0-.17.78Z" transform="translate(-8.04 -19.9)"/><path d="M101.28,203.7h1.44v1.17h0a2.13,2.13,0,0,1,.94-1,3.13,3.13,0,0,1,1.55-.38,3.31,3.31,0,0,1,1,.17,2.37,2.37,0,0,1,.88.52,2.51,2.51,0,0,1,.6.9,3.45,3.45,0,0,1,.22,1.3v4.88h-1.44V206.8a2.51,2.51,0,0,0-.14-.9,1.65,1.65,0,0,0-.38-.61,1.45,1.45,0,0,0-.55-.34,2,2,0,0,0-.65-.1,2.36,2.36,0,0,0-.83.14,1.73,1.73,0,0,0-.67.46,2.15,2.15,0,0,0-.45.79,3.58,3.58,0,0,0-.16,1.14v3.9h-1.44Z" transform="translate(-8.04 -19.9)"/><path d="M118.44,202.4a3.16,3.16,0,0,0-1.22-1,3.61,3.61,0,0,0-1.52-.34,4.09,4.09,0,0,0-1.74.36,4,4,0,0,0-1.33,1,4.48,4.48,0,0,0-.86,1.46,5.24,5.24,0,0,0-.3,1.8,5,5,0,0,0,.29,1.7,4.26,4.26,0,0,0,.83,1.41,3.9,3.9,0,0,0,1.33,1,4.29,4.29,0,0,0,1.78.35,3.53,3.53,0,0,0,1.71-.4,3.69,3.69,0,0,0,1.25-1.12l1.3,1a5.13,5.13,0,0,1-.45.5,4.53,4.53,0,0,1-.85.66,6,6,0,0,1-1.27.58,5.45,5.45,0,0,1-1.72.25,5.59,5.59,0,0,1-2.42-.51,5.94,5.94,0,0,1-3.4-5.34,6.66,6.66,0,0,1,.43-2.42,5.74,5.74,0,0,1,1.21-1.92,5.41,5.41,0,0,1,1.86-1.26,6.24,6.24,0,0,1,2.4-.45,5.88,5.88,0,0,1,2.2.43,4.11,4.11,0,0,1,1.77,1.33Z" transform="translate(-8.04 -19.9)"/><path d="M122.53,208a1.9,1.9,0,0,0,.22.9,2.26,2.26,0,0,0,.57.7,2.61,2.61,0,0,0,.82.45,2.93,2.93,0,0,0,1,.16,2.15,2.15,0,0,0,1.17-.31,3.78,3.78,0,0,0,.91-.82l1.09.83a4,4,0,0,1-3.36,1.55,4.17,4.17,0,0,1-1.62-.3,3.52,3.52,0,0,1-1.23-.84,3.7,3.7,0,0,1-.78-1.26,4.46,4.46,0,0,1-.27-1.58,4.15,4.15,0,0,1,.3-1.58,3.91,3.91,0,0,1,.82-1.26,3.71,3.71,0,0,1,1.24-.84,4,4,0,0,1,1.57-.3,3.75,3.75,0,0,1,1.7.35,3.37,3.37,0,0,1,1.14.92,3.64,3.64,0,0,1,.65,1.28,5.31,5.31,0,0,1,.2,1.45V208Zm4.54-1.15a3.06,3.06,0,0,0-.15-.88,2,2,0,0,0-.41-.7,1.89,1.89,0,0,0-.68-.46,2.49,2.49,0,0,0-1-.17,2.31,2.31,0,0,0-1,.2,2.37,2.37,0,0,0-.74.52,2.41,2.41,0,0,0-.47.71,2,2,0,0,0-.17.78Z" transform="translate(-8.04 -19.9)"/><path d="M130.45,199.18h1.44v12.1h-1.44Z" transform="translate(-8.04 -19.9)"/><path d="M134.29,199.18h1.44v12.1h-1.44Z" transform="translate(-8.04 -19.9)"/><path d="M144.74,211.28H143.3v-1.17h0a2.13,2.13,0,0,1-.94,1,3.13,3.13,0,0,1-1.55.38,3.28,3.28,0,0,1-1.06-.17,2.38,2.38,0,0,1-.87-.52,2.5,2.5,0,0,1-.6-.9,3.45,3.45,0,0,1-.22-1.3V203.7h1.44v4.48a2.53,2.53,0,0,0,.14.9,1.65,1.65,0,0,0,.38.61,1.45,1.45,0,0,0,.55.34,2,2,0,0,0,.65.1A2.36,2.36,0,0,0,142,210a1.73,1.73,0,0,0,.67-.46,2.14,2.14,0,0,0,.45-.79,3.61,3.61,0,0,0,.16-1.14v-3.9h1.44Z" transform="translate(-8.04 -19.9)"/><path d="M147,199.18h1.44v12.1H147Z" transform="translate(-8.04 -19.9)"/><path d="M150.79,204.62a4,4,0,0,1,1.41-.84,4.82,4.82,0,0,1,1.6-.28,4.41,4.41,0,0,1,1.43.21,2.79,2.79,0,0,1,1,.56,2.22,2.22,0,0,1,.57.81,2.53,2.53,0,0,1,.18,1v3.87q0,.4,0,.74c0,.22,0,.44,0,.64h-1.28q0-.58,0-1.15h0a2.76,2.76,0,0,1-1.14,1,3.58,3.58,0,0,1-1.52.3,3.5,3.5,0,0,1-1-.14,2.46,2.46,0,0,1-.84-.43,2.07,2.07,0,0,1-.57-.71,2.21,2.21,0,0,1-.21-1,2.18,2.18,0,0,1,.33-1.23,2.48,2.48,0,0,1,.9-.81,4.32,4.32,0,0,1,1.33-.45,9.29,9.29,0,0,1,1.62-.14h1.06v-.32a1.58,1.58,0,0,0-.11-.58,1.55,1.55,0,0,0-.34-.52,1.61,1.61,0,0,0-.56-.37,2.15,2.15,0,0,0-.8-.14,2.93,2.93,0,0,0-.73.08,3.26,3.26,0,0,0-.57.2,2.53,2.53,0,0,0-.46.28l-.4.3Zm4.06,3a10.16,10.16,0,0,0-1,.06,4.09,4.09,0,0,0-1,.22,1.87,1.87,0,0,0-.72.45,1,1,0,0,0-.28.74,1,1,0,0,0,.44.94,2.15,2.15,0,0,0,1.19.29,2.3,2.3,0,0,0,1-.2,1.89,1.89,0,0,0,.67-.52,2,2,0,0,0,.37-.71,2.84,2.84,0,0,0,.11-.78v-.48Z" transform="translate(-8.04 -19.9)"/><path d="M159.06,203.7h1.44v1.17h0a2.07,2.07,0,0,1,.38-.55,2.53,2.53,0,0,1,.54-.42,2.84,2.84,0,0,1,.65-.28,2.48,2.48,0,0,1,.7-.1,2,2,0,0,1,.64.1l-.06,1.55-.35-.08a2,2,0,0,0-.35,0,2.12,2.12,0,0,0-1.62.59,2.61,2.61,0,0,0-.56,1.84v3.81h-1.44Z" transform="translate(-8.04 -19.9)"/><rect x="0.5" y="226.32" width="45.03" height="21.68" rx="10.84" ry="10.84"/><path class="cls-2" d="M42.73,268.41H19.38a11.34,11.34,0,0,1,0-22.68H42.73a11.34,11.34,0,0,1,0,22.68ZM19.38,246.72a10.34,10.34,0,0,0,0,20.68H42.73a10.34,10.34,0,0,0,0-20.68Z" transform="translate(-8.04 -19.9)"/><path class="cls-1" d="M14.79,262.43l6-5.92a7.62,7.62,0,0,0,.61-.64,5.86,5.86,0,0,0,.52-.72,3.78,3.78,0,0,0,.37-.8,2.84,2.84,0,0,0,.14-.88,2.37,2.37,0,0,0-.2-1,2.17,2.17,0,0,0-.55-.75,2.51,2.51,0,0,0-.82-.47,3,3,0,0,0-1-.17,2.68,2.68,0,0,0-1.81.61,2.75,2.75,0,0,0-.9,1.68l-2.18-.19a4.67,4.67,0,0,1,.58-1.71,4.14,4.14,0,0,1,1.07-1.21,4.35,4.35,0,0,1,1.47-.71,6.66,6.66,0,0,1,1.8-.23,6.13,6.13,0,0,1,1.82.26,4.43,4.43,0,0,1,1.49.78,3.63,3.63,0,0,1,1,1.28,4.12,4.12,0,0,1,.37,1.8,4.18,4.18,0,0,1-.22,1.38,5.8,5.8,0,0,1-.58,1.21,7.5,7.5,0,0,1-.82,1.07q-.46.5-1,1l-4.89,4.73h7.48v1.76H14.79Z" transform="translate(-8.04 -19.9)"/><path class="cls-1" d="M31.17,252l-2.73,2.52-1.18-1.41,4.14-3.42h1.79v14.87h-2Z" transform="translate(-8.04 -19.9)"/><path class="cls-1" d="M38.15,262.43l6-5.92a7.62,7.62,0,0,0,.61-.64,5.86,5.86,0,0,0,.52-.72,3.78,3.78,0,0,0,.37-.8,2.84,2.84,0,0,0,.14-.88,2.37,2.37,0,0,0-.2-1,2.17,2.17,0,0,0-.55-.75,2.51,2.51,0,0,0-.82-.47,3,3,0,0,0-1-.17,2.68,2.68,0,0,0-1.81.61,2.75,2.75,0,0,0-.9,1.68l-2.18-.19a4.67,4.67,0,0,1,.58-1.71,4.14,4.14,0,0,1,1.07-1.21,4.35,4.35,0,0,1,1.47-.71,6.66,6.66,0,0,1,1.8-.23,6.13,6.13,0,0,1,1.82.26,4.43,4.43,0,0,1,1.49.78,3.63,3.63,0,0,1,1,1.28,4.12,4.12,0,0,1,.37,1.8,4.18,4.18,0,0,1-.22,1.38,5.8,5.8,0,0,1-.58,1.21,7.5,7.5,0,0,1-.82,1.07q-.46.5-1,1l-4.89,4.73h7.48v1.76H38.15Z" transform="translate(-8.04 -19.9)"/><path d="M68.39,254.16h1.66L72.32,260l2.18-5.81H76l-3,7.58H71.48Z" transform="translate(-8.04 -19.9)"/><path d="M77.67,250.41h4a4.66,4.66,0,0,1,1.79.3,3,3,0,0,1,1.11.75,2.56,2.56,0,0,1,.57,1,4,4,0,0,1,.16,1.1,2.92,2.92,0,0,1-.19,1,3,3,0,0,1-.55.91,3.15,3.15,0,0,1-.88.69,3.07,3.07,0,0,1-1.16.34l3.22,5.17H83.8l-2.88-5H79.2v5H77.67Zm1.54,5h2a5.52,5.52,0,0,0,.89-.07,2.38,2.38,0,0,0,.78-.26,1.46,1.46,0,0,0,.55-.55,2.21,2.21,0,0,0,0-1.87,1.46,1.46,0,0,0-.55-.55,2.38,2.38,0,0,0-.78-.26,5.52,5.52,0,0,0-.89-.07h-2Z" transform="translate(-8.04 -19.9)"/><path d="M91,250.41h1.39l4.85,11.33H95.44l-1.14-2.8H88.92l-1.12,2.8H86Zm2.75,7.18-2.11-5.2h0l-2.14,5.2Z" transform="translate(-8.04 -19.9)"/><path d="M98.71,250.41h2l6.24,9.31h0v-9.31h1.54v11.33h-2l-6.3-9.31h0v9.31H98.71Z" transform="translate(-8.04 -19.9)"/><path d="M115.89,250.41H123v1.44h-5.58v3.55h5.2v1.44h-5.2v4.9h-1.54Z" transform="translate(-8.04 -19.9)"/><path d="M124.71,254.16h1.44v1.17h0a2.07,2.07,0,0,1,.38-.55,2.53,2.53,0,0,1,.54-.42,2.84,2.84,0,0,1,.65-.28,2.48,2.48,0,0,1,.7-.1,2,2,0,0,1,.64.1l-.06,1.55-.35-.08a2,2,0,0,0-.35,0,2.12,2.12,0,0,0-1.62.59,2.61,2.61,0,0,0-.56,1.84v3.81h-1.44Z" transform="translate(-8.04 -19.9)"/><path d="M130,257.95a3.86,3.86,0,0,1,.31-1.55,4.05,4.05,0,0,1,.86-1.26,4.08,4.08,0,0,1,5.73,0,4.05,4.05,0,0,1,.86,1.26,3.86,3.86,0,0,1,.31,1.55,4,4,0,0,1-1.17,2.82,4.07,4.07,0,0,1-1.28.85,4.17,4.17,0,0,1-3.17,0,4.07,4.07,0,0,1-1.28-.85,4,4,0,0,1-1.17-2.82Zm1.54,0a3.12,3.12,0,0,0,.18,1.06,2.39,2.39,0,0,0,.5.83,2.29,2.29,0,0,0,.78.54,2.81,2.81,0,0,0,2.08,0,2.29,2.29,0,0,0,.78-.54,2.41,2.41,0,0,0,.5-.83,3.31,3.31,0,0,0,0-2.13,2.42,2.42,0,0,0-.5-.83,2.32,2.32,0,0,0-.78-.54,2.81,2.81,0,0,0-2.08,0,2.32,2.32,0,0,0-.78.54,2.41,2.41,0,0,0-.5.83A3.12,3.12,0,0,0,131.51,257.95Z" transform="translate(-8.04 -19.9)"/><path d="M139.84,254.16h1.44v1.17h0a2.13,2.13,0,0,1,.94-1,3.13,3.13,0,0,1,1.55-.38,3.31,3.31,0,0,1,1,.17,2.37,2.37,0,0,1,.88.52,2.51,2.51,0,0,1,.6.9,3.45,3.45,0,0,1,.22,1.3v4.88h-1.44v-4.48a2.51,2.51,0,0,0-.14-.9,1.65,1.65,0,0,0-.38-.61,1.45,1.45,0,0,0-.55-.34,2,2,0,0,0-.65-.1,2.36,2.36,0,0,0-.83.14,1.73,1.73,0,0,0-.67.46,2.15,2.15,0,0,0-.45.79,3.58,3.58,0,0,0-.16,1.14v3.9h-1.44Z" transform="translate(-8.04 -19.9)"/><path d="M152.8,255.41h-2.06v3.44q0,.32,0,.63a1.66,1.66,0,0,0,.12.56.91.91,0,0,0,.32.4,1.09,1.09,0,0,0,.63.15,3,3,0,0,0,.53,0,1.52,1.52,0,0,0,.5-.18v1.31a1.87,1.87,0,0,1-.66.2,5.06,5.06,0,0,1-.63.06,2.9,2.9,0,0,1-1.29-.23,1.57,1.57,0,0,1-.67-.6,1.93,1.93,0,0,1-.26-.82c0-.3,0-.61,0-.92v-4h-1.66v-1.25h1.66V252h1.44v2.13h2.06Z" transform="translate(-8.04 -19.9)"/><path d="M154.66,249.65h1.44v5.68h0a2.13,2.13,0,0,1,.94-1,3.13,3.13,0,0,1,1.55-.38,3.31,3.31,0,0,1,1,.17,2.37,2.37,0,0,1,.88.52,2.51,2.51,0,0,1,.6.9,3.45,3.45,0,0,1,.22,1.3v4.88h-1.44v-4.48a2.51,2.51,0,0,0-.14-.9,1.65,1.65,0,0,0-.38-.61,1.45,1.45,0,0,0-.55-.34,2,2,0,0,0-.65-.1,2.36,2.36,0,0,0-.83.14,1.73,1.73,0,0,0-.67.46,2.15,2.15,0,0,0-.45.79,3.58,3.58,0,0,0-.16,1.14v3.9h-1.44Z" transform="translate(-8.04 -19.9)"/><path d="M163.59,255.09a4,4,0,0,1,1.41-.84,4.82,4.82,0,0,1,1.6-.28,4.41,4.41,0,0,1,1.43.21,2.79,2.79,0,0,1,1,.56,2.22,2.22,0,0,1,.57.81,2.53,2.53,0,0,1,.18,1v3.87q0,.4,0,.74c0,.22,0,.44,0,.64h-1.28q0-.58,0-1.15h0a2.76,2.76,0,0,1-1.14,1,3.58,3.58,0,0,1-1.52.3,3.5,3.5,0,0,1-1-.14,2.46,2.46,0,0,1-.84-.43,2.07,2.07,0,0,1-.57-.71,2.21,2.21,0,0,1-.21-1,2.18,2.18,0,0,1,.33-1.23,2.48,2.48,0,0,1,.9-.81,4.32,4.32,0,0,1,1.33-.45,9.29,9.29,0,0,1,1.62-.14h1.06v-.32a1.58,1.58,0,0,0-.11-.58,1.55,1.55,0,0,0-.34-.52,1.61,1.61,0,0,0-.56-.37,2.15,2.15,0,0,0-.8-.14,2.93,2.93,0,0,0-.73.08,3.26,3.26,0,0,0-.57.2,2.53,2.53,0,0,0-.46.28l-.4.3Zm4.06,3a10.16,10.16,0,0,0-1,.06,4.09,4.09,0,0,0-1,.22,1.87,1.87,0,0,0-.72.45,1,1,0,0,0-.28.74,1,1,0,0,0,.44.94,2.15,2.15,0,0,0,1.19.29,2.3,2.3,0,0,0,1-.2,1.89,1.89,0,0,0,.67-.52,2,2,0,0,0,.37-.71,2.84,2.84,0,0,0,.11-.78v-.48Z" transform="translate(-8.04 -19.9)"/><path d="M178.58,261.74h-1.44v-1.17h0a2.13,2.13,0,0,1-.94,1,3.13,3.13,0,0,1-1.55.38,3.28,3.28,0,0,1-1.06-.17,2.38,2.38,0,0,1-.87-.52,2.5,2.5,0,0,1-.6-.9,3.45,3.45,0,0,1-.22-1.3v-4.88h1.44v4.48a2.53,2.53,0,0,0,.14.9,1.65,1.65,0,0,0,.38.61,1.45,1.45,0,0,0,.55.34,2,2,0,0,0,.65.1,2.36,2.36,0,0,0,.83-.14,1.73,1.73,0,0,0,.67-.46,2.14,2.14,0,0,0,.45-.79,3.61,3.61,0,0,0,.16-1.14v-3.9h1.44Z" transform="translate(-8.04 -19.9)"/><path d="M180.87,249.65h1.44v12.1h-1.44Z" transform="translate(-8.04 -19.9)"/><path d="M12.62,20.15H16.1a4.09,4.09,0,0,1,1.57.26,2.67,2.67,0,0,1,1,.66,2.23,2.23,0,0,1,.5.9,3.51,3.51,0,0,1,.14,1,2.55,2.55,0,0,1-.17.92,2.58,2.58,0,0,1-.48.8,2.74,2.74,0,0,1-.77.6,2.66,2.66,0,0,1-1,.3l2.81,4.52H18L15.46,25.7H14v4.37H12.62ZM14,24.52h1.76a4.81,4.81,0,0,0,.78-.06,2.07,2.07,0,0,0,.69-.23,1.26,1.26,0,0,0,.48-.48,1.94,1.94,0,0,0,0-1.64,1.26,1.26,0,0,0-.48-.48,2.09,2.09,0,0,0-.69-.23,4.81,4.81,0,0,0-.78-.06H14Z" transform="translate(-8.04 -19.9)"/><path d="M25.72,30.32a5.33,5.33,0,0,1-2.09-.4A4.84,4.84,0,0,1,22,28.82a5.08,5.08,0,0,1-1.06-1.65,5.69,5.69,0,0,1,0-4.12A5.08,5.08,0,0,1,22,21.4a4.84,4.84,0,0,1,1.63-1.1,5.65,5.65,0,0,1,4.17,0,4.85,4.85,0,0,1,1.63,1.1,5.09,5.09,0,0,1,1.06,1.65,5.69,5.69,0,0,1,0,4.12,5.09,5.09,0,0,1-1.06,1.65,4.85,4.85,0,0,1-1.63,1.1A5.33,5.33,0,0,1,25.72,30.32Zm0-1.26a3.61,3.61,0,0,0,2.72-1.16,3.75,3.75,0,0,0,.76-1.25,4.56,4.56,0,0,0,0-3.07,3.76,3.76,0,0,0-.76-1.25,3.71,3.71,0,0,0-5.43,0,3.75,3.75,0,0,0-.76,1.25,4.56,4.56,0,0,0,0,3.07A3.74,3.74,0,0,0,23,27.9a3.61,3.61,0,0,0,2.72,1.16Z" transform="translate(-8.04 -19.9)"/><path d="M37.37,30.32a5.33,5.33,0,0,1-2.09-.4,4.84,4.84,0,0,1-1.63-1.1,5.08,5.08,0,0,1-1.06-1.65,5.69,5.69,0,0,1,0-4.12,5.08,5.08,0,0,1,1.06-1.65,4.84,4.84,0,0,1,1.63-1.1,5.65,5.65,0,0,1,4.17,0,4.85,4.85,0,0,1,1.63,1.1,5.09,5.09,0,0,1,1.06,1.65,5.69,5.69,0,0,1,0,4.12,5.09,5.09,0,0,1-1.06,1.65,4.85,4.85,0,0,1-1.63,1.1A5.33,5.33,0,0,1,37.37,30.32Zm0-1.26a3.61,3.61,0,0,0,2.72-1.16,3.75,3.75,0,0,0,.76-1.25,4.56,4.56,0,0,0,0-3.07,3.76,3.76,0,0,0-.76-1.25,3.71,3.71,0,0,0-5.43,0,3.75,3.75,0,0,0-.76,1.25,4.56,4.56,0,0,0,0,3.07,3.74,3.74,0,0,0,.76,1.25,3.61,3.61,0,0,0,2.72,1.16Z" transform="translate(-8.04 -19.9)"/><path d="M44.37,20.15h2l3.15,7.5h.06l3.12-7.5h2v9.91H53.36V21.92h0L50,30.07h-.9l-3.35-8.15h0v8.15H44.37Z" transform="translate(-8.04 -19.9)"/><path d="M71.62,20.15H75.1a4.09,4.09,0,0,1,1.57.26,2.67,2.67,0,0,1,1,.66,2.23,2.23,0,0,1,.5.9,3.34,3.34,0,0,1,0,1.92,2.23,2.23,0,0,1-.5.9,2.66,2.66,0,0,1-1,.66,4.08,4.08,0,0,1-1.57.26H73v4.37H71.62ZM73,24.52h1.76a4.81,4.81,0,0,0,.78-.06,2.07,2.07,0,0,0,.69-.23,1.26,1.26,0,0,0,.48-.48,1.94,1.94,0,0,0,0-1.64,1.26,1.26,0,0,0-.48-.48,2.09,2.09,0,0,0-.69-.23,4.81,4.81,0,0,0-.78-.06H73Z" transform="translate(-8.04 -19.9)"/><path d="M79.92,20.15h3.49a4.09,4.09,0,0,1,1.57.26,2.67,2.67,0,0,1,1,.66,2.23,2.23,0,0,1,.5.9,3.51,3.51,0,0,1,.14,1,2.55,2.55,0,0,1-.17.92,2.58,2.58,0,0,1-.48.8,2.74,2.74,0,0,1-.77.6,2.66,2.66,0,0,1-1,.3L87,30.07H85.28L82.76,25.7h-1.5v4.37H79.92Zm1.34,4.37H83a4.81,4.81,0,0,0,.78-.06,2.07,2.07,0,0,0,.69-.23,1.26,1.26,0,0,0,.48-.48,1.94,1.94,0,0,0,0-1.64,1.26,1.26,0,0,0-.48-.48,2.09,2.09,0,0,0-.69-.23,4.81,4.81,0,0,0-.78-.06H81.26Z" transform="translate(-8.04 -19.9)"/><path d="M93,30.32a5.33,5.33,0,0,1-2.09-.4,4.84,4.84,0,0,1-1.63-1.1,5.08,5.08,0,0,1-1.06-1.65,5.69,5.69,0,0,1,0-4.12,5.08,5.08,0,0,1,1.06-1.65,4.84,4.84,0,0,1,1.63-1.1,5.65,5.65,0,0,1,4.17,0,4.85,4.85,0,0,1,1.63,1.1,5.09,5.09,0,0,1,1.06,1.65,5.69,5.69,0,0,1,0,4.12,5.09,5.09,0,0,1-1.06,1.65,4.85,4.85,0,0,1-1.63,1.1A5.33,5.33,0,0,1,93,30.32Zm0-1.26a3.61,3.61,0,0,0,2.72-1.16,3.75,3.75,0,0,0,.76-1.25,4.56,4.56,0,0,0,0-3.07,3.76,3.76,0,0,0-.76-1.25,3.71,3.71,0,0,0-5.43,0,3.75,3.75,0,0,0-.76,1.25,4.56,4.56,0,0,0,0,3.07,3.74,3.74,0,0,0,.76,1.25A3.61,3.61,0,0,0,93,29.06Z" transform="translate(-8.04 -19.9)"/><path d="M103.21,20.15h1.34v7.08a3.46,3.46,0,0,1-.29,1.53,2.65,2.65,0,0,1-.74.94,2.61,2.61,0,0,1-.94.48,3.64,3.64,0,0,1-.92.13,2.87,2.87,0,0,1-1.77-.54A2.49,2.49,0,0,1,99,28.15l1.32-.29a1.58,1.58,0,0,0,.46.88,1.29,1.29,0,0,0,.91.32,1.46,1.46,0,0,0,.8-.2,1.38,1.38,0,0,0,.47-.51,2.13,2.13,0,0,0,.22-.72,5.94,5.94,0,0,0,.06-.83Z" transform="translate(-8.04 -19.9)"/><path d="M106.87,20.15h6.4v1.26h-5.05v3h4.7v1.26h-4.7v3.18h5.31v1.26h-6.65Z" transform="translate(-8.04 -19.9)"/><path d="M122.32,22.3a2.77,2.77,0,0,0-1.06-.84,3.18,3.18,0,0,0-1.33-.29,3.57,3.57,0,0,0-1.52.32,3.5,3.5,0,0,0-1.16.86,3.94,3.94,0,0,0-.75,1.28,4.61,4.61,0,0,0-.27,1.58,4.35,4.35,0,0,0,.25,1.48,3.71,3.71,0,0,0,.73,1.23,3.39,3.39,0,0,0,1.16.84,3.75,3.75,0,0,0,1.55.31,3.09,3.09,0,0,0,1.5-.35,3.21,3.21,0,0,0,1.09-1l1.13.85a4.38,4.38,0,0,1-.39.44,4,4,0,0,1-.74.57,5.24,5.24,0,0,1-1.11.5,4.76,4.76,0,0,1-1.5.22,4.89,4.89,0,0,1-2.12-.45A5.11,5.11,0,0,1,115.16,27a5.17,5.17,0,0,1-.35-1.86,5.81,5.81,0,0,1,.38-2.12,5,5,0,0,1,1.06-1.68,4.73,4.73,0,0,1,1.63-1.1,5.48,5.48,0,0,1,2.1-.39,5.14,5.14,0,0,1,1.92.38,3.6,3.6,0,0,1,1.55,1.16Z" transform="translate(-8.04 -19.9)"/><path d="M127.35,21.41h-3.19V20.15h7.73v1.26h-3.19v8.65h-1.34Z" transform="translate(-8.04 -19.9)"/><path d="M145.65,24.52v4.89a4.5,4.5,0,0,1-.83.39,9.12,9.12,0,0,1-1,.29,8.3,8.3,0,0,1-1,.17,8.88,8.88,0,0,1-1,.06,5.69,5.69,0,0,1-2.25-.42,4.82,4.82,0,0,1-2.7-2.79,5.61,5.61,0,0,1-.36-2,5.43,5.43,0,0,1,.38-2.06A5.08,5.08,0,0,1,138,21.4a4.84,4.84,0,0,1,1.63-1.1,5.33,5.33,0,0,1,2.09-.4,6.18,6.18,0,0,1,2.24.34,4.13,4.13,0,0,1,1.46.95l-1,1a3.52,3.52,0,0,0-1.3-.82,4.48,4.48,0,0,0-1.44-.23A3.61,3.61,0,0,0,139,22.32a3.75,3.75,0,0,0-.76,1.25,4.41,4.41,0,0,0-.27,1.53,4.1,4.1,0,0,0,.29,1.56,3.88,3.88,0,0,0,.81,1.25,3.75,3.75,0,0,0,1.22.83,3.83,3.83,0,0,0,1.53.3,6.59,6.59,0,0,0,1.35-.13,3.79,3.79,0,0,0,1.08-.39V25.78h-2.2V24.52Z" transform="translate(-8.04 -19.9)"/><path d="M148.1,20.15h3.49a4.09,4.09,0,0,1,1.57.26,2.67,2.67,0,0,1,1,.66,2.23,2.23,0,0,1,.5.9,3.51,3.51,0,0,1,.14,1,2.55,2.55,0,0,1-.17.92,2.58,2.58,0,0,1-.48.8,2.74,2.74,0,0,1-.77.6,2.66,2.66,0,0,1-1,.3l2.81,4.52h-1.68l-2.52-4.37h-1.5v4.37H148.1Zm1.34,4.37h1.76a4.81,4.81,0,0,0,.78-.06,2.07,2.07,0,0,0,.69-.23,1.26,1.26,0,0,0,.48-.48,1.94,1.94,0,0,0,0-1.64,1.26,1.26,0,0,0-.48-.48,2.09,2.09,0,0,0-.69-.23,4.81,4.81,0,0,0-.78-.06h-1.76Z" transform="translate(-8.04 -19.9)"/><path d="M161.2,30.32a5.33,5.33,0,0,1-2.09-.4,4.84,4.84,0,0,1-1.63-1.1,5.08,5.08,0,0,1-1.06-1.65,5.69,5.69,0,0,1,0-4.12,5.08,5.08,0,0,1,1.06-1.65,4.84,4.84,0,0,1,1.63-1.1,5.65,5.65,0,0,1,4.17,0,4.85,4.85,0,0,1,1.63,1.1A5.09,5.09,0,0,1,166,23.05a5.69,5.69,0,0,1,0,4.12,5.09,5.09,0,0,1-1.06,1.65,4.85,4.85,0,0,1-1.63,1.1A5.33,5.33,0,0,1,161.2,30.32Zm0-1.26a3.61,3.61,0,0,0,2.72-1.16,3.75,3.75,0,0,0,.76-1.25,4.56,4.56,0,0,0,0-3.07,3.76,3.76,0,0,0-.76-1.25,3.71,3.71,0,0,0-5.43,0,3.75,3.75,0,0,0-.76,1.25,4.56,4.56,0,0,0,0,3.07,3.74,3.74,0,0,0,.76,1.25,3.61,3.61,0,0,0,2.72,1.16Z" transform="translate(-8.04 -19.9)"/><path d="M169.46,20.15v6.08a3.9,3.9,0,0,0,.13,1,2.8,2.8,0,0,0,.42.92,2.26,2.26,0,0,0,.77.69,2.73,2.73,0,0,0,2.35,0,2.28,2.28,0,0,0,.77-.69,2.77,2.77,0,0,0,.42-.92,3.9,3.9,0,0,0,.13-1V20.15h1.34v6.29a4.06,4.06,0,0,1-.29,1.58,3.74,3.74,0,0,1-.81,1.22,3.59,3.59,0,0,1-1.22.8,4.22,4.22,0,0,1-3,0,3.57,3.57,0,0,1-1.22-.8,3.74,3.74,0,0,1-.81-1.22,4.08,4.08,0,0,1-.29-1.58V20.15Z" transform="translate(-8.04 -19.9)"/><path d="M178.15,20.15h3.49a4.09,4.09,0,0,1,1.57.26,2.67,2.67,0,0,1,1,.66,2.23,2.23,0,0,1,.5.9,3.34,3.34,0,0,1,0,1.92,2.23,2.23,0,0,1-.5.9,2.66,2.66,0,0,1-1,.66,4.08,4.08,0,0,1-1.57.26H179.5v4.37h-1.34Zm1.34,4.37h1.76a4.81,4.81,0,0,0,.78-.06,2.07,2.07,0,0,0,.69-.23,1.26,1.26,0,0,0,.48-.48,1.94,1.94,0,0,0,0-1.64,1.26,1.26,0,0,0-.48-.48,2.09,2.09,0,0,0-.69-.23,4.81,4.81,0,0,0-.78-.06H179.5Z" transform="translate(-8.04 -19.9)"/><path d="M251.91,28a2.21,2.21,0,0,0,.93.81,2.78,2.78,0,0,0,1.17.26,2.37,2.37,0,0,0,.69-.11,2.08,2.08,0,0,0,.64-.31,1.71,1.71,0,0,0,.47-.52,1.38,1.38,0,0,0,.18-.71,1.07,1.07,0,0,0-.36-.87,3.17,3.17,0,0,0-.9-.5q-.54-.2-1.18-.39a4.78,4.78,0,0,1-1.18-.53,2.87,2.87,0,0,1-.9-.9,2.81,2.81,0,0,1-.36-1.53,2.64,2.64,0,0,1,.78-1.82,3.28,3.28,0,0,1,1-.68,3.87,3.87,0,0,1,1.53-.27,5.38,5.38,0,0,1,1.55.22,2.67,2.67,0,0,1,1.3.91l-1.09,1a1.82,1.82,0,0,0-.71-.63,2.26,2.26,0,0,0-1-.24,2.54,2.54,0,0,0-.93.15,1.67,1.67,0,0,0-.59.38,1.33,1.33,0,0,0-.31.5,1.5,1.5,0,0,0-.09.49,1.25,1.25,0,0,0,.36,1,2.83,2.83,0,0,0,.9.55,11,11,0,0,0,1.18.38,5.06,5.06,0,0,1,1.18.47,2.74,2.74,0,0,1,.9.81,2.39,2.39,0,0,1,.36,1.41,3,3,0,0,1-.27,1.29,2.85,2.85,0,0,1-.74,1,3.26,3.26,0,0,1-1.09.6,4.23,4.23,0,0,1-1.34.21,4.89,4.89,0,0,1-1.81-.34,3,3,0,0,1-1.36-1Z" transform="translate(-8.04 -19.9)"/><path d="M259.4,20.15h6.4v1.26h-5.05v3h4.7v1.26h-4.7v3.18h5.31v1.26H259.4Z" transform="translate(-8.04 -19.9)"/><path d="M268.25,28a2.21,2.21,0,0,0,.93.81,2.78,2.78,0,0,0,1.17.26A2.37,2.37,0,0,0,271,29a2.08,2.08,0,0,0,.64-.31,1.71,1.71,0,0,0,.47-.52,1.38,1.38,0,0,0,.18-.71,1.07,1.07,0,0,0-.36-.87,3.17,3.17,0,0,0-.9-.5q-.54-.2-1.18-.39a4.78,4.78,0,0,1-1.18-.53,2.87,2.87,0,0,1-.9-.9,2.81,2.81,0,0,1-.36-1.53,2.64,2.64,0,0,1,.78-1.82,3.28,3.28,0,0,1,1-.68,3.87,3.87,0,0,1,1.53-.27,5.38,5.38,0,0,1,1.55.22,2.67,2.67,0,0,1,1.3.91l-1.09,1a1.82,1.82,0,0,0-.71-.63,2.26,2.26,0,0,0-1-.24,2.54,2.54,0,0,0-.93.15,1.67,1.67,0,0,0-.59.38,1.33,1.33,0,0,0-.31.5,1.5,1.5,0,0,0-.09.49,1.25,1.25,0,0,0,.36,1,2.83,2.83,0,0,0,.9.55,11,11,0,0,0,1.18.38,5.06,5.06,0,0,1,1.18.47,2.74,2.74,0,0,1,.9.81,2.39,2.39,0,0,1,.36,1.41,3,3,0,0,1-.27,1.29,2.85,2.85,0,0,1-.74,1,3.26,3.26,0,0,1-1.09.6,4.23,4.23,0,0,1-1.34.21A4.89,4.89,0,0,1,268.5,30a3,3,0,0,1-1.36-1Z" transform="translate(-8.04 -19.9)"/><path d="M276,28a2.21,2.21,0,0,0,.93.81,2.78,2.78,0,0,0,1.17.26,2.37,2.37,0,0,0,.69-.11,2.08,2.08,0,0,0,.64-.31,1.71,1.71,0,0,0,.47-.52,1.38,1.38,0,0,0,.18-.71,1.07,1.07,0,0,0-.36-.87,3.17,3.17,0,0,0-.9-.5q-.54-.2-1.18-.39a4.78,4.78,0,0,1-1.18-.53,2.87,2.87,0,0,1-.9-.9,2.81,2.81,0,0,1-.36-1.53,2.64,2.64,0,0,1,.78-1.82,3.28,3.28,0,0,1,1-.68,3.87,3.87,0,0,1,1.53-.27,5.38,5.38,0,0,1,1.55.22,2.67,2.67,0,0,1,1.3.91l-1.09,1a1.82,1.82,0,0,0-.71-.63,2.26,2.26,0,0,0-1-.24,2.54,2.54,0,0,0-.93.15,1.67,1.67,0,0,0-.59.38,1.33,1.33,0,0,0-.31.5,1.5,1.5,0,0,0-.09.49,1.25,1.25,0,0,0,.36,1,2.83,2.83,0,0,0,.9.55,11,11,0,0,0,1.18.38,5.06,5.06,0,0,1,1.18.47,2.74,2.74,0,0,1,.9.81,2.39,2.39,0,0,1,.36,1.41,3,3,0,0,1-.27,1.29,2.85,2.85,0,0,1-.74,1,3.26,3.26,0,0,1-1.09.6,4.23,4.23,0,0,1-1.34.21,4.89,4.89,0,0,1-1.81-.34,3,3,0,0,1-1.36-1Z" transform="translate(-8.04 -19.9)"/><path d="M283.52,20.15h1.34v9.91h-1.34Z" transform="translate(-8.04 -19.9)"/><path d="M292,30.32a5.33,5.33,0,0,1-2.09-.4,4.84,4.84,0,0,1-1.63-1.1,5.08,5.08,0,0,1-1.06-1.65,5.69,5.69,0,0,1,0-4.12,5.08,5.08,0,0,1,1.06-1.65,4.84,4.84,0,0,1,1.63-1.1,5.65,5.65,0,0,1,4.17,0,4.85,4.85,0,0,1,1.63,1.1,5.09,5.09,0,0,1,1.06,1.65,5.69,5.69,0,0,1,0,4.12,5.09,5.09,0,0,1-1.06,1.65,4.85,4.85,0,0,1-1.63,1.1A5.33,5.33,0,0,1,292,30.32Zm0-1.26a3.61,3.61,0,0,0,2.72-1.16,3.75,3.75,0,0,0,.76-1.25,4.56,4.56,0,0,0,0-3.07,3.76,3.76,0,0,0-.76-1.25,3.71,3.71,0,0,0-5.43,0,3.75,3.75,0,0,0-.76,1.25,4.56,4.56,0,0,0,0,3.07,3.74,3.74,0,0,0,.76,1.25A3.61,3.61,0,0,0,292,29.06Z" transform="translate(-8.04 -19.9)"/><path d="M299.06,20.15h1.76l5.46,8.15h0V20.15h1.34v9.91H306l-5.52-8.15h0v8.15h-1.34Z" transform="translate(-8.04 -19.9)"/><path d="M316.17,21.41H313V20.15h7.73v1.26h-3.19v8.65h-1.34Z" transform="translate(-8.04 -19.9)"/><path d="M322.13,20.15h1.34v9.91h-1.34Z" transform="translate(-8.04 -19.9)"/><path d="M325.93,20.15h2l3.15,7.5h.06l3.12-7.5h2v9.91h-1.34V21.92h0l-3.35,8.15h-.9l-3.35-8.15h0v8.15h-1.34Z" transform="translate(-8.04 -19.9)"/><path d="M338.71,20.15h6.4v1.26h-5.05v3h4.7v1.26h-4.7v3.18h5.31v1.26h-6.65Z" transform="translate(-8.04 -19.9)"/></svg>