<?xml version="1.0" encoding="utf-8"?>
<!-- Generator: Adobe Illustrator 16.0.4, SVG Export Plug-In . SVG Version: 6.00 Build 0)  -->
<!DOCTYPE svg PUBLIC "-//W3C//DTD SVG 1.1//EN" "http://www.w3.org/Graphics/SVG/1.1/DTD/svg11.dtd">
<svg version="1.1" id="Layer_1" xmlns="http://www.w3.org/2000/svg" xmlns:xlink="http://www.w3.org/1999/xlink" x="0px" y="0px"
	 width="190.108px" height="18.863px" viewBox="0 0 190.108 18.863" enable-background="new 0 0 190.108 18.863"
	 xml:space="preserve">
<g>
	<path fill="#ACCAE9" d="M142.808,1.938c-0.45,0-0.702-0.172-0.702-0.623s0-1.211,0-1.211s0.791,0,1.181,0
		c0.391,0,0.718,0.149,0.718,0.66c0,0.36,0,1.175,0,1.175S143.257,1.938,142.808,1.938z M142.899,15.367
		c-0.406,0-0.686-0.259-0.686-0.709s0-10.449,0-10.449s0.488,0,0.939,0c0.45,0,0.723,0.197,0.723,0.693c0,0.496,0,10.465,0,10.465
		S143.306,15.367,142.899,15.367z"/>
	<path fill="#ACCAE9" d="M75.806,15.626c-4.359,0-7.576-3.432-7.576-7.792C68.23,3.518,71.424,0,75.871,0
		c2.74,0,4.381,0.972,5.892,2.396c0,0-0.318,0.357-0.659,0.708c-0.341,0.35-0.776,0.291-1.067,0.045
		c-1.127-0.949-2.432-1.573-4.187-1.573C72.504,1.575,70,4.273,70,7.791c0,3.519,2.525,6.259,5.849,6.259
		c1.775,0,3.022-0.592,4.259-1.622c0.332-0.276,0.828-0.346,1.218,0.03c0.39,0.376,0.523,0.514,0.523,0.514
		C80.273,14.568,78.547,15.626,75.806,15.626z"/>
	<path fill="#ACCAE9" d="M109.1,3.971c2.568,0,4.145,1.727,4.145,4.489v6.906c0,0-0.33,0-0.885,0c-0.661,0-0.777-0.364-0.777-0.829
		c0-0.466,0-5.689,0-5.689c0-2.158-1.08-3.367-2.893-3.367c-1.684,0-3.086,1.252-3.086,3.453v6.432c0,0-0.501,0-0.898,0
		s-0.742-0.184-0.742-0.724c0-0.541,0-5.837,0-5.837c0-2.093-1.101-3.323-2.87-3.323c-1.771,0-3.108,1.467-3.108,3.518
		c0,0,0,5.085,0,5.672c0,0.587-0.211,0.695-0.699,0.695s-0.963,0-0.963,0V4.208c0,0,0.369,0,0.899,0c0.53,0,0.763,0.335,0.763,0.774
		s0,1.104,0,1.104c0.733-1.101,1.727-2.115,3.604-2.115c1.813,0,2.979,0.971,3.583,2.223C105.971,4.964,107.158,3.971,109.1,3.971z"
		/>
	<path fill="#ACCAE9" d="M122.243,15.604c-2.071,0-3.41-1.123-4.273-2.375v5.59c0,0-0.54,0-0.961,0s-0.701-0.23-0.701-0.741
		s0-13.871,0-13.871s0.373,0,0.81,0c0.54,0,0.853,0.249,0.853,0.79c0,0.435,0,1.455,0,1.455c0.906-1.338,2.222-2.482,4.273-2.482
		c2.677,0,5.331,2.115,5.331,5.806C127.574,13.446,124.942,15.604,122.243,15.604z M121.941,5.46c-2.072,0-4.036,1.727-4.036,4.317
		c0,2.612,1.964,4.338,4.036,4.338c2.158,0,3.929-1.597,3.929-4.316C125.87,7.144,124.057,5.46,121.941,5.46z"/>
	<path fill="#ACCAE9" d="M152.133,18.863c-1.856,0-3.583-0.518-5.072-1.554c0,0,0.114-0.212,0.406-0.696
		c0.293-0.484,0.65-0.365,1.145-0.087c1.063,0.6,2.227,0.914,3.5,0.914c2.46,0,4.057-1.36,4.057-3.972v-1.316
		c-0.971,1.294-2.331,2.352-4.381,2.352c-2.676,0-5.244-1.986-5.244-5.245c0-3.28,2.59-5.288,5.244-5.288
		c2.093,0,3.454,1.036,4.36,2.245c0,0,0-0.789,0-1.254s0.436-0.753,0.752-0.753c0.316,0,0.908,0,0.908,0v9.216
		C157.809,17.028,155.565,18.863,152.133,18.863z M152.112,5.438c-2.115,0-3.863,1.446-3.863,3.777c0,2.288,1.792,3.82,3.863,3.82
		c2.115,0,4.101-1.511,4.101-3.798C156.212,6.928,154.227,5.438,152.112,5.438z"/>
	<path fill="#ACCAE9" d="M162.644,15.367h-1.662V4.208c0,0,0.516,0,0.899,0c0.392,0,0.763,0.227,0.763,0.678s0,1.265,0,1.265
		c0.734-1.208,1.899-2.18,3.82-2.18c2.698,0,4.274,1.813,4.274,4.467v6.928c0,0-0.553,0-1.012,0s-0.65-0.214-0.65-0.694
		c0-0.48,0-5.824,0-5.824c0-2.072-1.123-3.367-3.086-3.367c-1.921,0-3.345,1.402-3.345,3.496V15.367z"/>
	<path fill="#ACCAE9" d="M134.502,4.058c-1.619,0-2.828,0.367-4.058,0.928c0,0,0.177,0.505,0.325,0.888
		c0.146,0.383,0.588,0.286,0.798,0.203c0.837-0.331,1.71-0.551,2.762-0.551c2.086,0,3.314,1.029,3.323,3.023l-0.006,2.718
		c0,1.77-1.656,3.021-3.706,3.021c-1.511,0-2.806-0.82-2.806-2.245c0-1.425,1.166-2.212,3.259-2.212c0.38,0,0.897,0,1.226,0
		c0.495,0,0.736-0.218,0.736-0.682s0-0.55,0-0.55c-0.527,0-1.46-0.001-2.134-0.001c-2.826,0-4.769,1.136-4.769,3.51
		c0,2.331,2.094,3.497,4.165,3.497c1.964,0,3.259-0.907,4.036-1.921c0,0,0,0.61,0,1.038s0.184,0.646,0.68,0.646
		c0.395,0,0.917,0,0.917,0v-6.82C139.25,5.611,137.545,4.058,134.502,4.058z"/>
	<path fill="#ACCAE9" d="M88.568,4.058c-1.619,0-2.827,0.367-4.058,0.928c0,0,0.177,0.505,0.324,0.888
		c0.147,0.383,0.588,0.286,0.799,0.203c0.837-0.331,1.71-0.551,2.762-0.551c2.086,0,3.314,1.029,3.323,3.023l-0.003,2.718
		c0,1.77-1.658,3.021-3.708,3.021c-1.511,0-2.806-0.82-2.806-2.245c0-1.425,1.166-2.212,3.259-2.212c0.38,0,0.896,0,1.225,0
		c0.496,0,0.736-0.218,0.736-0.682s0-0.55,0-0.55c-0.527,0-1.46-0.001-2.134-0.001c-2.827,0-4.77,1.136-4.77,3.51
		c0,2.331,2.094,3.497,4.165,3.497c1.964,0,3.259-0.907,4.037-1.921c0,0,0,0.61,0,1.038s0.184,0.646,0.679,0.646
		c0.395,0,0.918,0,0.918,0v-6.82C93.317,5.611,91.612,4.058,88.568,4.058z"/>
</g>
<g>
	<path fill="#2B61AD" d="M189.531,10.542c0.447-0.311,0.577-0.718,0.577-1.108c0-0.391,0,0.373,0-0.172
		c0-0.406-0.224-0.723-0.578-0.977c-0.299-0.215-11.146-7.755-11.146-7.755s0,0.979,0,1.604c0,0.558,0.301,0.743,0.681,1.011
		c0.546,0.385,9.015,6.266,9.015,6.266s-8.582,5.93-9.095,6.271c-0.533,0.354-0.601,0.597-0.601,1.064c0,0.469,0,1.501,0,1.501
		S189.046,10.877,189.531,10.542z"/>
	<path fill="#2B61AD" d="M178.385,5.846c0,0.434,0,1.103,0,1.103s3.348,2.339,3.997,2.769c0.554,0.367,1.021,0.338,1.584-0.079
		c0.351-0.259,0.68-0.486,0.68-0.486s-4.879-3.385-5.394-3.726C178.841,5.155,178.385,5.349,178.385,5.846z"/>
	<path fill="#2B61AD" d="M24.29,15.626c-3.259,0-5.72-2.655-5.72-5.806c0-3.173,2.46-5.849,5.72-5.849
		c2.115,0,3.432,0.884,4.468,1.985c0,0-0.332,0.355-0.618,0.654c-0.331,0.346-0.654,0.293-1.083-0.065
		c-0.755-0.631-1.607-1.106-2.789-1.106c-2.266,0-3.993,1.921-3.993,4.338c0,2.439,1.77,4.36,4.101,4.36
		c1.156,0,2.1-0.47,2.887-1.154c0.183-0.159,0.662-0.392,1.032-0.029c0.371,0.364,0.549,0.513,0.549,0.513
		C27.722,14.719,26.383,15.626,24.29,15.626z"/>
	<path fill="#2B61AD" d="M39.969,1.938c-0.45,0-0.702-0.172-0.702-0.623s0-1.211,0-1.211s0.79,0,1.182,0
		c0.391,0,0.718,0.251,0.718,0.761c0,0.36,0,1.074,0,1.074S40.419,1.938,39.969,1.938z M40.061,15.367
		c-0.407,0-0.686-0.259-0.686-0.709s0-10.449,0-10.449s0.488,0,0.939,0c0.451,0,0.723,0.197,0.723,0.693c0,0.496,0,10.465,0,10.465
		S40.468,15.367,40.061,15.367z"/>
	<path fill="#2B61AD" d="M52.388,4.791c0.188-0.429,0.504-0.582,0.909-0.582c0.405,0,1.121,0,1.121,0s-4.44,10.235-4.619,10.634
		c-0.178,0.399-0.449,0.545-0.823,0.545c-0.286,0,0.014,0-0.225,0c-0.421,0-0.702-0.075-0.869-0.493
		C47.714,14.477,43.26,4.208,43.26,4.208s0.73,0,1.151,0s0.771,0.176,0.934,0.615c0.163,0.438,3.504,8.59,3.504,8.59
		S52.2,5.219,52.388,4.791z"/>
	<path fill="#2B61AD" d="M64.167,10.491c1.306,0,1.723-0.84,1.628-1.821c-0.259-2.718-2.229-4.699-5.112-4.699
		c-3.086,0-5.353,2.589-5.353,5.827c0,3.475,2.503,5.828,5.568,5.828c2.115,0,3.475-0.842,4.597-2.094c0,0-0.242-0.233-0.545-0.488
		c-0.358-0.3-0.724-0.204-0.94-0.011c-0.801,0.72-1.781,1.146-3.069,1.146c-1.964,0-3.69-1.36-3.928-3.777
		c0,0-0.025-0.241-0.025-0.594c0-0.353,0.025-0.637,0.025-0.637c0.216-2.18,1.684-3.798,3.626-3.798c2.003,0,3.32,1.396,3.48,3.204
		c0.083,0.404-0.062,0.594-0.351,0.594c-1.299,0-4.088,0-4.486,0c-0.439,0-0.704,0.243-0.704,0.688c0,0.423,0,0.63,0,0.63
		C60.834,10.491,63.699,10.491,64.167,10.491z"/>
	<path fill="#2B61AD" d="M11.199,0.653c-0.208-0.444-0.436-0.563-0.872-0.563c-0.436,0-0.089,0-0.433,0S9.262,0.263,9.101,0.604
		C8.939,0.945,2.449,15.367,2.449,15.367s0.57,0,1.05,0c0.481,0,0.781-0.214,1.008-0.692s1.48-3.3,1.48-3.3s4.331,0,5.047,0
		c0.543,0,0.866-0.331,0.866-0.793c0-0.462,0-0.739,0-0.739H6.657l3.453-7.767c0,0,5.411,12.252,5.625,12.738
		c0.214,0.487,0.73,0.553,1.136,0.553c0.405,0,0.943,0,0.943,0S11.407,1.097,11.199,0.653z"/>
	<path fill="#2B61AD" d="M32.929,12.192c0,1.36,0.755,1.856,1.878,1.856c0.412,0,0.704-0.056,1.109-0.172
		c0.361-0.103,0.811-0.03,0.811,0.496c0,0.39-0.03,0.72-0.03,0.72c-0.583,0.302-1.48,0.467-2.279,0.467
		c-1.792,0-3.151-0.885-3.151-3.15V0.101c0,0,0.495,0,0.812,0c0.465,0,0.851,0.245,0.851,0.77s0,3.335,0,3.335s2.271,0,2.677,0
		c0.406,0,0.862,0.207,0.862,0.762c0,0.375,0,0.707,0,0.707h-3.539V12.192z"/>
</g>
</svg>
