<?xml version="1.0" encoding="utf-8"?>
<!-- Generator: Adobe Illustrator 19.0.1, SVG Export Plug-In . SVG Version: 6.00 Build 0)  -->
<!DOCTYPE svg PUBLIC "-//W3C//DTD SVG 1.1//EN" "http://www.w3.org/Graphics/SVG/1.1/DTD/svg11.dtd">
<svg version="1.1" id="Layer_1" xmlns="http://www.w3.org/2000/svg" xmlns:xlink="http://www.w3.org/1999/xlink" x="0px" y="0px"
	 viewBox="0 0 417.9 202.8" style="enable-background:new 0 0 417.9 202.8;" xml:space="preserve">
<style type="text/css">
	.st0{fill:#D5D9DB;}
	.st1{opacity:0;fill:#D5D9DB;}
</style>
<g>
	<circle class="st0" cx="12.3" cy="113.8" r="0.3"/>
	<circle class="st0" cx="12.3" cy="126.4" r="0.3"/>
	<circle class="st0" cx="25" cy="113.8" r="0.3"/>
	<circle class="st0" cx="25" cy="126.4" r="0.3"/>
	<circle class="st0" cx="12.3" cy="139.1" r="0.3"/>
	<circle class="st0" cx="25" cy="139.1" r="0.3"/>
	<circle class="st0" cx="12.3" cy="151.8" r="0.3"/>
	<circle class="st0" cx="25" cy="151.8" r="0.3"/>
	<circle class="st0" cx="12.3" cy="164.5" r="0.3"/>
	<circle class="st0" cx="25" cy="164.5" r="0.3"/>
	<circle class="st0" cx="37.7" cy="113.8" r="0.3"/>
	<circle class="st0" cx="37.7" cy="126.4" r="0.3"/>
	<circle class="st0" cx="50.4" cy="113.8" r="0.3"/>
	<circle class="st0" cx="50.4" cy="126.4" r="0.3"/>
	<circle class="st0" cx="37.7" cy="139.1" r="0.3"/>
	<circle class="st0" cx="50.4" cy="139.1" r="0.3"/>
	<circle class="st0" cx="37.7" cy="151.8" r="0.3"/>
	<circle class="st0" cx="50.4" cy="151.8" r="0.3"/>
	<circle class="st0" cx="37.7" cy="164.5" r="0.3"/>
	<circle class="st0" cx="50.4" cy="164.5" r="0.3"/>
	<circle class="st0" cx="63" cy="113.8" r="0.3"/>
	<circle class="st0" cx="63" cy="126.4" r="0.3"/>
	<circle class="st0" cx="75.7" cy="113.8" r="0.3"/>
	<circle class="st0" cx="75.7" cy="126.4" r="0.3"/>
	<circle class="st0" cx="63" cy="139.1" r="0.3"/>
	<circle class="st0" cx="75.7" cy="139.1" r="0.3"/>
	<circle class="st0" cx="63" cy="151.8" r="0.3"/>
	<circle class="st0" cx="75.7" cy="151.8" r="0.3"/>
	<circle class="st0" cx="63" cy="164.5" r="0.3"/>
	<circle class="st0" cx="75.7" cy="164.5" r="0.3"/>
	<circle class="st0" cx="88.4" cy="113.8" r="0.3"/>
	<circle class="st0" cx="88.4" cy="126.4" r="0.3"/>
	<circle class="st0" cx="101" cy="113.8" r="0.3"/>
	<circle class="st0" cx="101" cy="126.4" r="0.3"/>
	<circle class="st0" cx="88.4" cy="139.1" r="0.3"/>
	<circle class="st0" cx="101" cy="139.1" r="0.3"/>
	<circle class="st0" cx="88.4" cy="151.8" r="0.3"/>
	<circle class="st0" cx="101" cy="151.8" r="0.3"/>
	<circle class="st0" cx="88.4" cy="164.5" r="0.3"/>
	<circle class="st0" cx="101" cy="164.5" r="0.3"/>
	<circle class="st0" cx="12.3" cy="177.1" r="0.3"/>
	<circle class="st0" cx="25" cy="177.1" r="0.3"/>
	<circle class="st0" cx="12.3" cy="189.8" r="0.3"/>
	<circle class="st0" cx="25" cy="189.8" r="0.3"/>
	<circle class="st0" cx="12.3" cy="202.5" r="0.3"/>
	<circle class="st0" cx="25" cy="202.5" r="0.3"/>
	<circle class="st0" cx="37.7" cy="177.1" r="0.3"/>
	<circle class="st0" cx="50.4" cy="177.1" r="0.3"/>
	<circle class="st0" cx="37.7" cy="189.8" r="0.3"/>
	<circle class="st0" cx="50.4" cy="189.8" r="0.3"/>
	<circle class="st0" cx="37.7" cy="202.5" r="0.3"/>
	<circle class="st0" cx="50.4" cy="202.5" r="0.3"/>
	<circle class="st0" cx="63" cy="177.1" r="0.3"/>
	<circle class="st0" cx="75.7" cy="177.1" r="0.3"/>
	<circle class="st0" cx="63" cy="189.8" r="0.3"/>
	<circle class="st0" cx="75.7" cy="189.8" r="0.3"/>
	<circle class="st0" cx="63" cy="202.5" r="0.3"/>
	<circle class="st0" cx="75.7" cy="202.5" r="0.3"/>
	<circle class="st0" cx="88.4" cy="177.1" r="0.3"/>
	<circle class="st0" cx="101" cy="177.1" r="0.3"/>
	<circle class="st0" cx="88.4" cy="189.8" r="0.3"/>
	<circle class="st0" cx="101" cy="189.8" r="0.3"/>
	<circle class="st0" cx="88.4" cy="202.5" r="0.3"/>
	<circle class="st0" cx="101" cy="202.5" r="0.3"/>
	<circle class="st0" cx="12.3" cy="12.3" r="0.3"/>
	<circle class="st0" cx="12.3" cy="25" r="0.3"/>
	<circle class="st0" cx="25" cy="12.3" r="0.3"/>
	<circle class="st0" cx="25" cy="25" r="0.3"/>
	<circle class="st0" cx="12.3" cy="37.7" r="0.3"/>
	<circle class="st0" cx="25" cy="37.7" r="0.3"/>
	<circle class="st0" cx="12.3" cy="50.4" r="0.3"/>
	<circle class="st0" cx="25" cy="50.4" r="0.3"/>
	<circle class="st0" cx="12.3" cy="63.1" r="0.3"/>
	<circle class="st0" cx="25" cy="63.1" r="0.3"/>
	<circle class="st0" cx="37.7" cy="12.3" r="0.3"/>
	<circle class="st0" cx="37.7" cy="25" r="0.3"/>
	<circle class="st0" cx="50.4" cy="12.3" r="0.3"/>
	<circle class="st0" cx="50.4" cy="25" r="0.3"/>
	<circle class="st0" cx="37.7" cy="37.7" r="0.3"/>
	<circle class="st0" cx="50.4" cy="37.7" r="0.3"/>
	<circle class="st0" cx="37.7" cy="50.4" r="0.3"/>
	<circle class="st0" cx="50.4" cy="50.4" r="0.3"/>
	<circle class="st0" cx="37.7" cy="63.1" r="0.3"/>
	<circle class="st0" cx="50.4" cy="63.1" r="0.3"/>
	<circle class="st0" cx="63" cy="12.3" r="0.3"/>
	<circle class="st0" cx="63" cy="25" r="0.3"/>
	<circle class="st0" cx="75.7" cy="12.3" r="0.3"/>
	<circle class="st0" cx="75.7" cy="25" r="0.3"/>
	<circle class="st0" cx="63" cy="37.7" r="0.3"/>
	<circle class="st0" cx="75.7" cy="37.7" r="0.3"/>
	<circle class="st0" cx="63" cy="50.4" r="0.3"/>
	<circle class="st0" cx="75.7" cy="50.4" r="0.3"/>
	<circle class="st0" cx="63" cy="63.1" r="0.3"/>
	<circle class="st0" cx="75.7" cy="63.1" r="0.3"/>
	<circle class="st0" cx="88.4" cy="12.3" r="0.3"/>
	<circle class="st0" cx="88.4" cy="25" r="0.3"/>
	<circle class="st0" cx="101" cy="12.3" r="0.3"/>
	<circle class="st0" cx="101" cy="25" r="0.3"/>
	<circle class="st0" cx="88.4" cy="37.7" r="0.3"/>
	<circle class="st0" cx="101" cy="37.7" r="0.3"/>
	<circle class="st0" cx="88.4" cy="50.4" r="0.3"/>
	<circle class="st0" cx="101" cy="50.4" r="0.3"/>
	<circle class="st0" cx="88.4" cy="63.1" r="0.3"/>
	<circle class="st0" cx="101" cy="63.1" r="0.3"/>
	<circle class="st0" cx="12.3" cy="75.7" r="0.3"/>
	<circle class="st0" cx="25" cy="75.7" r="0.3"/>
	<circle class="st0" cx="12.3" cy="88.4" r="0.3"/>
	<circle class="st0" cx="25" cy="88.4" r="0.3"/>
	<circle class="st0" cx="12.3" cy="101.1" r="0.3"/>
	<circle class="st0" cx="25" cy="101.1" r="0.3"/>
	<circle class="st0" cx="37.7" cy="75.7" r="0.3"/>
	<circle class="st0" cx="50.4" cy="75.7" r="0.3"/>
	<circle class="st0" cx="37.7" cy="88.4" r="0.3"/>
	<circle class="st0" cx="50.4" cy="88.4" r="0.3"/>
	<circle class="st0" cx="37.7" cy="101.1" r="0.3"/>
	<circle class="st0" cx="50.4" cy="101.1" r="0.3"/>
	<circle class="st0" cx="63" cy="75.7" r="0.3"/>
	<circle class="st0" cx="75.7" cy="75.7" r="0.3"/>
	<circle class="st0" cx="63" cy="88.4" r="0.3"/>
	<circle class="st0" cx="75.7" cy="88.4" r="0.3"/>
	<circle class="st0" cx="63" cy="101.1" r="0.3"/>
	<circle class="st0" cx="75.7" cy="101.1" r="0.3"/>
	<circle class="st0" cx="88.4" cy="75.7" r="0.3"/>
	<circle class="st0" cx="101" cy="75.7" r="0.3"/>
	<circle class="st0" cx="88.4" cy="88.4" r="0.3"/>
	<circle class="st0" cx="101" cy="88.4" r="0.3"/>
	<circle class="st0" cx="88.4" cy="101.1" r="0.3"/>
	<circle class="st0" cx="101" cy="101.1" r="0.3"/>
	<circle class="st0" cx="113.7" cy="113.8" r="0.3"/>
	<circle class="st0" cx="113.7" cy="126.4" r="0.3"/>
	<circle class="st0" cx="126.4" cy="113.8" r="0.3"/>
	<circle class="st0" cx="126.4" cy="126.4" r="0.3"/>
	<circle class="st0" cx="113.7" cy="139.1" r="0.3"/>
	<circle class="st0" cx="126.4" cy="139.1" r="0.3"/>
	<circle class="st0" cx="113.7" cy="151.8" r="0.3"/>
	<circle class="st0" cx="126.4" cy="151.8" r="0.3"/>
	<circle class="st0" cx="113.7" cy="164.5" r="0.3"/>
	<circle class="st0" cx="126.4" cy="164.5" r="0.3"/>
	<circle class="st0" cx="139.1" cy="113.8" r="0.3"/>
	<circle class="st0" cx="139.1" cy="126.4" r="0.3"/>
	<circle class="st0" cx="151.7" cy="113.8" r="0.3"/>
	<circle class="st0" cx="151.7" cy="126.4" r="0.3"/>
	<circle class="st0" cx="139.1" cy="139.1" r="0.3"/>
	<circle class="st0" cx="151.7" cy="139.1" r="0.3"/>
	<circle class="st0" cx="139.1" cy="151.8" r="0.3"/>
	<circle class="st0" cx="151.7" cy="151.8" r="0.3"/>
	<circle class="st0" cx="139.1" cy="164.5" r="0.3"/>
	<circle class="st0" cx="151.7" cy="164.5" r="0.3"/>
	<circle class="st0" cx="164.4" cy="113.8" r="0.3"/>
	<circle class="st0" cx="164.4" cy="126.4" r="0.3"/>
	<circle class="st0" cx="177.1" cy="113.8" r="0.3"/>
	<circle class="st0" cx="177.1" cy="126.4" r="0.3"/>
	<circle class="st0" cx="164.4" cy="139.1" r="0.3"/>
	<circle class="st0" cx="177.1" cy="139.1" r="0.3"/>
	<circle class="st0" cx="164.4" cy="151.8" r="0.3"/>
	<circle class="st0" cx="177.1" cy="151.8" r="0.3"/>
	<circle class="st0" cx="164.4" cy="164.5" r="0.3"/>
	<circle class="st0" cx="177.1" cy="164.5" r="0.3"/>
	<circle class="st0" cx="189.7" cy="113.8" r="0.3"/>
	<circle class="st0" cx="189.7" cy="126.4" r="0.3"/>
	<circle class="st0" cx="202.4" cy="113.8" r="0.3"/>
	<circle class="st0" cx="202.4" cy="126.4" r="0.3"/>
	<circle class="st0" cx="189.7" cy="139.1" r="0.3"/>
	<circle class="st0" cx="202.4" cy="139.1" r="0.3"/>
	<circle class="st0" cx="189.7" cy="151.8" r="0.3"/>
	<circle class="st0" cx="202.4" cy="151.8" r="0.3"/>
	<circle class="st0" cx="189.7" cy="164.5" r="0.3"/>
	<circle class="st0" cx="202.4" cy="164.5" r="0.3"/>
	<circle class="st0" cx="113.7" cy="177.1" r="0.3"/>
	<circle class="st0" cx="126.4" cy="177.1" r="0.3"/>
	<circle class="st0" cx="113.7" cy="189.8" r="0.3"/>
	<circle class="st0" cx="126.4" cy="189.8" r="0.3"/>
	<circle class="st0" cx="113.7" cy="202.5" r="0.3"/>
	<circle class="st0" cx="126.4" cy="202.5" r="0.3"/>
	<circle class="st0" cx="139.1" cy="177.1" r="0.3"/>
	<circle class="st0" cx="151.7" cy="177.1" r="0.3"/>
	<circle class="st0" cx="139.1" cy="189.8" r="0.3"/>
	<circle class="st0" cx="151.7" cy="189.8" r="0.3"/>
	<circle class="st0" cx="139.1" cy="202.5" r="0.3"/>
	<circle class="st0" cx="151.7" cy="202.5" r="0.3"/>
	<circle class="st0" cx="164.4" cy="177.1" r="0.3"/>
	<circle class="st0" cx="177.1" cy="177.1" r="0.3"/>
	<circle class="st0" cx="164.4" cy="189.8" r="0.3"/>
	<circle class="st0" cx="177.1" cy="189.8" r="0.3"/>
	<circle class="st0" cx="164.4" cy="202.5" r="0.3"/>
	<circle class="st0" cx="177.1" cy="202.5" r="0.3"/>
	<circle class="st0" cx="189.7" cy="177.1" r="0.3"/>
	<circle class="st0" cx="202.4" cy="177.1" r="0.3"/>
	<circle class="st0" cx="189.7" cy="189.8" r="0.3"/>
	<circle class="st0" cx="202.4" cy="189.8" r="0.3"/>
	<circle class="st0" cx="189.7" cy="202.5" r="0.3"/>
	<circle class="st0" cx="202.4" cy="202.5" r="0.3"/>
	<circle class="st0" cx="113.7" cy="12.3" r="0.3"/>
	<circle class="st0" cx="113.7" cy="25" r="0.3"/>
	<circle class="st0" cx="126.4" cy="12.3" r="0.3"/>
	<circle class="st0" cx="126.4" cy="25" r="0.3"/>
	<circle class="st0" cx="113.7" cy="37.7" r="0.3"/>
	<circle class="st0" cx="126.4" cy="37.7" r="0.3"/>
	<circle class="st0" cx="113.7" cy="50.4" r="0.3"/>
	<circle class="st0" cx="126.4" cy="50.4" r="0.3"/>
	<circle class="st0" cx="113.7" cy="63.1" r="0.3"/>
	<circle class="st0" cx="126.4" cy="63.1" r="0.3"/>
	<circle class="st0" cx="139.1" cy="12.3" r="0.3"/>
	<circle class="st0" cx="139.1" cy="25" r="0.3"/>
	<circle class="st0" cx="151.7" cy="12.3" r="0.3"/>
	<circle class="st0" cx="151.7" cy="25" r="0.3"/>
	<circle class="st0" cx="139.1" cy="37.7" r="0.3"/>
	<circle class="st0" cx="151.7" cy="37.7" r="0.3"/>
	<circle class="st0" cx="139.1" cy="50.4" r="0.3"/>
	<circle class="st0" cx="151.7" cy="50.4" r="0.3"/>
	<circle class="st0" cx="139.1" cy="63.1" r="0.3"/>
	<circle class="st0" cx="151.7" cy="63.1" r="0.3"/>
	<circle class="st0" cx="164.4" cy="12.3" r="0.3"/>
	<circle class="st0" cx="164.4" cy="25" r="0.3"/>
	<circle class="st0" cx="177.1" cy="12.3" r="0.3"/>
	<circle class="st0" cx="177.1" cy="25" r="0.3"/>
	<circle class="st0" cx="164.4" cy="37.7" r="0.3"/>
	<circle class="st0" cx="177.1" cy="37.7" r="0.3"/>
	<circle class="st0" cx="164.4" cy="50.4" r="0.3"/>
	<circle class="st0" cx="177.1" cy="50.4" r="0.3"/>
	<circle class="st0" cx="164.4" cy="63.1" r="0.3"/>
	<circle class="st0" cx="177.1" cy="63.1" r="0.3"/>
	<circle class="st0" cx="189.7" cy="12.3" r="0.3"/>
	<circle class="st0" cx="189.7" cy="25" r="0.3"/>
	<circle class="st0" cx="202.4" cy="12.3" r="0.3"/>
	<circle class="st0" cx="202.4" cy="25" r="0.3"/>
	<circle class="st0" cx="189.7" cy="37.7" r="0.3"/>
	<circle class="st0" cx="202.4" cy="37.7" r="0.3"/>
	<circle class="st0" cx="189.7" cy="50.4" r="0.3"/>
	<circle class="st0" cx="202.4" cy="50.4" r="0.3"/>
	<circle class="st0" cx="189.7" cy="63.1" r="0.3"/>
	<circle class="st0" cx="202.4" cy="63.1" r="0.3"/>
	<circle class="st0" cx="113.7" cy="75.7" r="0.3"/>
	<circle class="st0" cx="126.4" cy="75.7" r="0.3"/>
	<circle class="st0" cx="113.7" cy="88.4" r="0.3"/>
	<circle class="st0" cx="126.4" cy="88.4" r="0.3"/>
	<circle class="st0" cx="113.7" cy="101.1" r="0.3"/>
	<circle class="st0" cx="126.4" cy="101.1" r="0.3"/>
	<circle class="st0" cx="139.1" cy="75.7" r="0.3"/>
	<circle class="st0" cx="151.7" cy="75.7" r="0.3"/>
	<circle class="st0" cx="139.1" cy="88.4" r="0.3"/>
	<circle class="st0" cx="151.7" cy="88.4" r="0.3"/>
	<circle class="st0" cx="139.1" cy="101.1" r="0.3"/>
	<circle class="st0" cx="151.7" cy="101.1" r="0.3"/>
	<circle class="st0" cx="164.4" cy="75.7" r="0.3"/>
	<circle class="st0" cx="177.1" cy="75.7" r="0.3"/>
	<circle class="st0" cx="164.4" cy="88.4" r="0.3"/>
	<circle class="st0" cx="177.1" cy="88.4" r="0.3"/>
	<circle class="st0" cx="164.4" cy="101.1" r="0.3"/>
	<circle class="st0" cx="177.1" cy="101.1" r="0.3"/>
	<circle class="st0" cx="189.7" cy="75.7" r="0.3"/>
	<circle class="st0" cx="202.4" cy="75.7" r="0.3"/>
	<circle class="st0" cx="189.7" cy="88.4" r="0.3"/>
	<circle class="st0" cx="202.4" cy="88.4" r="0.3"/>
	<circle class="st0" cx="189.7" cy="101.1" r="0.3"/>
	<circle class="st0" cx="202.4" cy="101.1" r="0.3"/>
	<circle class="st0" cx="215.4" cy="113.8" r="0.3"/>
	<circle class="st0" cx="228.1" cy="113.8" r="0.3"/>
	<circle class="st0" cx="215.4" cy="126.4" r="0.3"/>
	<circle class="st0" cx="228.1" cy="126.4" r="0.3"/>
	<circle class="st0" cx="240.8" cy="113.8" r="0.3"/>
	<circle class="st0" cx="240.8" cy="126.4" r="0.3"/>
	<circle class="st0" cx="215.4" cy="139.1" r="0.3"/>
	<circle class="st0" cx="228.1" cy="139.1" r="0.3"/>
	<circle class="st0" cx="240.8" cy="139.1" r="0.3"/>
	<circle class="st0" cx="215.4" cy="151.8" r="0.3"/>
	<circle class="st0" cx="228.1" cy="151.8" r="0.3"/>
	<circle class="st0" cx="240.8" cy="151.8" r="0.3"/>
	<circle class="st0" cx="215.4" cy="164.5" r="0.3"/>
	<circle class="st0" cx="228.1" cy="164.5" r="0.3"/>
	<circle class="st0" cx="240.8" cy="164.5" r="0.3"/>
	<circle class="st0" cx="253.5" cy="113.8" r="0.3"/>
	<circle class="st0" cx="253.5" cy="126.4" r="0.3"/>
	<circle class="st0" cx="266.1" cy="113.8" r="0.3"/>
	<circle class="st0" cx="266.1" cy="126.4" r="0.3"/>
	<circle class="st0" cx="253.5" cy="139.1" r="0.3"/>
	<circle class="st0" cx="266.1" cy="139.1" r="0.3"/>
	<circle class="st0" cx="253.5" cy="151.8" r="0.3"/>
	<circle class="st0" cx="266.1" cy="151.8" r="0.3"/>
	<circle class="st0" cx="253.5" cy="164.5" r="0.3"/>
	<circle class="st0" cx="266.1" cy="164.5" r="0.3"/>
	<circle class="st0" cx="278.8" cy="113.8" r="0.3"/>
	<circle class="st0" cx="278.8" cy="126.4" r="0.3"/>
	<circle class="st0" cx="291.5" cy="113.8" r="0.3"/>
	<circle class="st0" cx="291.5" cy="126.4" r="0.3"/>
	<circle class="st0" cx="278.8" cy="139.1" r="0.3"/>
	<circle class="st0" cx="291.5" cy="139.1" r="0.3"/>
	<circle class="st0" cx="278.8" cy="151.8" r="0.3"/>
	<circle class="st0" cx="291.5" cy="151.8" r="0.3"/>
	<circle class="st0" cx="278.8" cy="164.5" r="0.3"/>
	<circle class="st0" cx="291.5" cy="164.5" r="0.3"/>
	<circle class="st0" cx="304.2" cy="113.8" r="0.3"/>
	<circle class="st0" cx="304.2" cy="126.4" r="0.3"/>
	<circle class="st0" cx="316.8" cy="113.8" r="0.3"/>
	<circle class="st0" cx="316.8" cy="126.4" r="0.3"/>
	<circle class="st0" cx="304.2" cy="139.1" r="0.3"/>
	<circle class="st0" cx="316.8" cy="139.1" r="0.3"/>
	<circle class="st0" cx="304.2" cy="151.8" r="0.3"/>
	<circle class="st0" cx="316.8" cy="151.8" r="0.3"/>
	<circle class="st0" cx="304.2" cy="164.5" r="0.3"/>
	<circle class="st0" cx="316.8" cy="164.5" r="0.3"/>
	<circle class="st0" cx="215.4" cy="177.1" r="0.3"/>
	<circle class="st0" cx="228.1" cy="177.1" r="0.3"/>
	<circle class="st0" cx="240.8" cy="177.1" r="0.3"/>
	<circle class="st0" cx="215.4" cy="189.8" r="0.3"/>
	<circle class="st0" cx="228.1" cy="189.8" r="0.3"/>
	<circle class="st0" cx="240.8" cy="189.8" r="0.3"/>
	<circle class="st0" cx="215.4" cy="202.5" r="0.3"/>
	<circle class="st0" cx="228.1" cy="202.5" r="0.3"/>
	<circle class="st0" cx="240.8" cy="202.5" r="0.3"/>
	<circle class="st0" cx="253.5" cy="177.1" r="0.3"/>
	<circle class="st0" cx="266.1" cy="177.1" r="0.3"/>
	<circle class="st0" cx="253.5" cy="189.8" r="0.3"/>
	<circle class="st0" cx="266.1" cy="189.8" r="0.3"/>
	<circle class="st0" cx="253.5" cy="202.5" r="0.3"/>
	<circle class="st0" cx="266.1" cy="202.5" r="0.3"/>
	<circle class="st0" cx="278.8" cy="177.1" r="0.3"/>
	<circle class="st0" cx="291.5" cy="177.1" r="0.3"/>
	<circle class="st0" cx="278.8" cy="189.8" r="0.3"/>
	<circle class="st0" cx="291.5" cy="189.8" r="0.3"/>
	<circle class="st0" cx="278.8" cy="202.5" r="0.3"/>
	<circle class="st0" cx="291.5" cy="202.5" r="0.3"/>
	<circle class="st0" cx="304.2" cy="177.1" r="0.3"/>
	<circle class="st0" cx="316.8" cy="177.1" r="0.3"/>
	<circle class="st0" cx="304.2" cy="189.8" r="0.3"/>
	<circle class="st0" cx="316.8" cy="189.8" r="0.3"/>
	<circle class="st0" cx="304.2" cy="202.5" r="0.3"/>
	<circle class="st0" cx="316.8" cy="202.5" r="0.3"/>
	<circle class="st0" cx="215.4" cy="12.3" r="0.3"/>
	<circle class="st0" cx="228.1" cy="12.3" r="0.3"/>
	<circle class="st0" cx="215.4" cy="25" r="0.3"/>
	<circle class="st0" cx="228.1" cy="25" r="0.3"/>
	<circle class="st0" cx="240.8" cy="12.3" r="0.3"/>
	<circle class="st0" cx="240.8" cy="25" r="0.3"/>
	<circle class="st0" cx="215.4" cy="37.7" r="0.3"/>
	<circle class="st0" cx="228.1" cy="37.7" r="0.3"/>
	<circle class="st0" cx="240.8" cy="37.7" r="0.3"/>
	<circle class="st0" cx="215.4" cy="50.4" r="0.3"/>
	<circle class="st0" cx="228.1" cy="50.4" r="0.3"/>
	<circle class="st0" cx="240.8" cy="50.4" r="0.3"/>
	<circle class="st0" cx="215.4" cy="63.1" r="0.3"/>
	<circle class="st0" cx="228.1" cy="63.1" r="0.3"/>
	<circle class="st0" cx="240.8" cy="63.1" r="0.3"/>
	<circle class="st0" cx="253.5" cy="12.3" r="0.3"/>
	<circle class="st0" cx="253.5" cy="25" r="0.3"/>
	<circle class="st0" cx="266.1" cy="12.3" r="0.3"/>
	<circle class="st0" cx="266.1" cy="25" r="0.3"/>
	<circle class="st0" cx="253.5" cy="37.7" r="0.3"/>
	<circle class="st0" cx="266.1" cy="37.7" r="0.3"/>
	<circle class="st0" cx="253.5" cy="50.4" r="0.3"/>
	<circle class="st0" cx="266.1" cy="50.4" r="0.3"/>
	<circle class="st0" cx="253.5" cy="63.1" r="0.3"/>
	<circle class="st0" cx="266.1" cy="63.1" r="0.3"/>
	<circle class="st0" cx="278.8" cy="12.3" r="0.3"/>
	<circle class="st0" cx="278.8" cy="25" r="0.3"/>
	<circle class="st0" cx="291.5" cy="12.3" r="0.3"/>
	<circle class="st0" cx="291.5" cy="25" r="0.3"/>
	<circle class="st0" cx="278.8" cy="37.7" r="0.3"/>
	<circle class="st0" cx="291.5" cy="37.7" r="0.3"/>
	<circle class="st0" cx="278.8" cy="50.4" r="0.3"/>
	<circle class="st0" cx="291.5" cy="50.4" r="0.3"/>
	<circle class="st0" cx="278.8" cy="63.1" r="0.3"/>
	<circle class="st0" cx="291.5" cy="63.1" r="0.3"/>
	<circle class="st0" cx="304.2" cy="12.3" r="0.3"/>
	<circle class="st0" cx="304.2" cy="25" r="0.3"/>
	<circle class="st0" cx="316.8" cy="12.3" r="0.3"/>
	<circle class="st0" cx="316.8" cy="25" r="0.3"/>
	<circle class="st0" cx="304.2" cy="37.7" r="0.3"/>
	<circle class="st0" cx="316.8" cy="37.7" r="0.3"/>
	<circle class="st0" cx="304.2" cy="50.4" r="0.3"/>
	<circle class="st0" cx="316.8" cy="50.4" r="0.3"/>
	<circle class="st0" cx="304.2" cy="63.1" r="0.3"/>
	<circle class="st0" cx="316.8" cy="63.1" r="0.3"/>
	<circle class="st0" cx="215.4" cy="75.7" r="0.3"/>
	<circle class="st0" cx="228.1" cy="75.7" r="0.3"/>
	<circle class="st0" cx="240.8" cy="75.7" r="0.3"/>
	<circle class="st0" cx="215.4" cy="88.4" r="0.3"/>
	<circle class="st0" cx="228.1" cy="88.4" r="0.3"/>
	<circle class="st0" cx="240.8" cy="88.4" r="0.3"/>
	<circle class="st0" cx="215.4" cy="101.1" r="0.3"/>
	<circle class="st0" cx="228.1" cy="101.1" r="0.3"/>
	<circle class="st0" cx="240.8" cy="101.1" r="0.3"/>
	<circle class="st0" cx="253.5" cy="75.7" r="0.3"/>
	<circle class="st0" cx="266.1" cy="75.7" r="0.3"/>
	<circle class="st0" cx="253.5" cy="88.4" r="0.3"/>
	<circle class="st0" cx="266.1" cy="88.4" r="0.3"/>
	<circle class="st0" cx="253.5" cy="101.1" r="0.3"/>
	<circle class="st0" cx="266.1" cy="101.1" r="0.3"/>
	<circle class="st0" cx="278.8" cy="75.7" r="0.3"/>
	<circle class="st0" cx="291.5" cy="75.7" r="0.3"/>
	<circle class="st0" cx="278.8" cy="88.4" r="0.3"/>
	<circle class="st0" cx="291.5" cy="88.4" r="0.3"/>
	<circle class="st0" cx="278.8" cy="101.1" r="0.3"/>
	<circle class="st0" cx="291.5" cy="101.1" r="0.3"/>
	<circle class="st0" cx="304.2" cy="75.7" r="0.3"/>
	<circle class="st0" cx="316.8" cy="75.7" r="0.3"/>
	<circle class="st0" cx="304.2" cy="88.4" r="0.3"/>
	<circle class="st0" cx="316.8" cy="88.4" r="0.3"/>
	<circle class="st0" cx="304.2" cy="101.1" r="0.3"/>
	<circle class="st0" cx="316.8" cy="101.1" r="0.3"/>
	<circle class="st0" cx="329.5" cy="113.8" r="0.3"/>
	<circle class="st0" cx="329.5" cy="126.4" r="0.3"/>
	<circle class="st0" cx="342.2" cy="113.8" r="0.3"/>
	<circle class="st0" cx="342.2" cy="126.4" r="0.3"/>
	<circle class="st0" cx="329.5" cy="139.1" r="0.3"/>
	<circle class="st0" cx="342.2" cy="139.1" r="0.3"/>
	<circle class="st0" cx="329.5" cy="151.8" r="0.3"/>
	<circle class="st0" cx="342.2" cy="151.8" r="0.3"/>
	<circle class="st0" cx="329.5" cy="164.5" r="0.3"/>
	<circle class="st0" cx="342.2" cy="164.5" r="0.3"/>
	<circle class="st0" cx="354.8" cy="113.8" r="0.3"/>
	<circle class="st0" cx="354.8" cy="126.4" r="0.3"/>
	<circle class="st0" cx="367.5" cy="113.8" r="0.3"/>
	<circle class="st0" cx="367.5" cy="126.4" r="0.3"/>
	<circle class="st0" cx="354.8" cy="139.1" r="0.3"/>
	<circle class="st0" cx="367.5" cy="139.1" r="0.3"/>
	<circle class="st0" cx="354.8" cy="151.8" r="0.3"/>
	<circle class="st0" cx="367.5" cy="151.8" r="0.3"/>
	<circle class="st0" cx="354.8" cy="164.5" r="0.3"/>
	<circle class="st0" cx="367.5" cy="164.5" r="0.3"/>
	<circle class="st0" cx="380.2" cy="113.8" r="0.3"/>
	<circle class="st0" cx="380.2" cy="126.4" r="0.3"/>
	<circle class="st0" cx="392.8" cy="113.8" r="0.3"/>
	<circle class="st0" cx="392.8" cy="126.4" r="0.3"/>
	<circle class="st0" cx="380.2" cy="139.1" r="0.3"/>
	<circle class="st0" cx="392.8" cy="139.1" r="0.3"/>
	<circle class="st0" cx="380.2" cy="151.8" r="0.3"/>
	<circle class="st0" cx="392.8" cy="151.8" r="0.3"/>
	<circle class="st0" cx="380.2" cy="164.5" r="0.3"/>
	<circle class="st0" cx="392.8" cy="164.5" r="0.3"/>
	<circle class="st0" cx="405.5" cy="113.8" r="0.3"/>
	<circle class="st0" cx="405.5" cy="126.4" r="0.3"/>
	<circle class="st0" cx="405.5" cy="139.1" r="0.3"/>
	<circle class="st0" cx="405.5" cy="151.8" r="0.3"/>
	<circle class="st0" cx="405.5" cy="164.5" r="0.3"/>
	<circle class="st0" cx="329.5" cy="177.1" r="0.3"/>
	<circle class="st0" cx="342.2" cy="177.1" r="0.3"/>
	<circle class="st0" cx="329.5" cy="189.8" r="0.3"/>
	<circle class="st0" cx="342.2" cy="189.8" r="0.3"/>
	<circle class="st0" cx="329.5" cy="202.5" r="0.3"/>
	<circle class="st0" cx="342.2" cy="202.5" r="0.3"/>
	<circle class="st0" cx="354.8" cy="177.1" r="0.3"/>
	<circle class="st0" cx="367.5" cy="177.1" r="0.3"/>
	<circle class="st0" cx="354.8" cy="189.8" r="0.3"/>
	<circle class="st0" cx="367.5" cy="189.8" r="0.3"/>
	<circle class="st0" cx="354.8" cy="202.5" r="0.3"/>
	<circle class="st0" cx="367.5" cy="202.5" r="0.3"/>
	<circle class="st0" cx="380.2" cy="177.1" r="0.3"/>
	<circle class="st0" cx="392.8" cy="177.1" r="0.3"/>
	<circle class="st0" cx="380.2" cy="189.8" r="0.3"/>
	<circle class="st0" cx="392.8" cy="189.8" r="0.3"/>
	<circle class="st0" cx="380.2" cy="202.5" r="0.3"/>
	<circle class="st0" cx="392.8" cy="202.5" r="0.3"/>
	<circle class="st0" cx="405.5" cy="177.1" r="0.3"/>
	<circle class="st0" cx="405.5" cy="189.8" r="0.3"/>
	<circle class="st0" cx="405.5" cy="202.5" r="0.3"/>
	<circle class="st0" cx="329.5" cy="12.3" r="0.3"/>
	<circle class="st0" cx="329.5" cy="25" r="0.3"/>
	<circle class="st0" cx="342.2" cy="12.3" r="0.3"/>
	<circle class="st0" cx="342.2" cy="25" r="0.3"/>
	<circle class="st0" cx="329.5" cy="37.7" r="0.3"/>
	<circle class="st0" cx="342.2" cy="37.7" r="0.3"/>
	<circle class="st0" cx="329.5" cy="50.4" r="0.3"/>
	<circle class="st0" cx="342.2" cy="50.4" r="0.3"/>
	<circle class="st0" cx="329.5" cy="63.1" r="0.3"/>
	<circle class="st0" cx="342.2" cy="63.1" r="0.3"/>
	<circle class="st0" cx="354.8" cy="12.3" r="0.3"/>
	<circle class="st0" cx="354.8" cy="25" r="0.3"/>
	<circle class="st0" cx="367.5" cy="12.3" r="0.3"/>
	<circle class="st0" cx="367.5" cy="25" r="0.3"/>
	<circle class="st0" cx="354.8" cy="37.7" r="0.3"/>
	<circle class="st0" cx="367.5" cy="37.7" r="0.3"/>
	<circle class="st0" cx="354.8" cy="50.4" r="0.3"/>
	<circle class="st0" cx="367.5" cy="50.4" r="0.3"/>
	<circle class="st0" cx="354.8" cy="63.1" r="0.3"/>
	<circle class="st0" cx="367.5" cy="63.1" r="0.3"/>
	<circle class="st0" cx="380.2" cy="12.3" r="0.3"/>
	<circle class="st0" cx="380.2" cy="25" r="0.3"/>
	<circle class="st0" cx="392.8" cy="12.3" r="0.3"/>
	<circle class="st0" cx="392.8" cy="25" r="0.3"/>
	<circle class="st0" cx="380.2" cy="37.7" r="0.3"/>
	<circle class="st0" cx="392.8" cy="37.7" r="0.3"/>
	<circle class="st0" cx="380.2" cy="50.4" r="0.3"/>
	<circle class="st0" cx="392.8" cy="50.4" r="0.3"/>
	<circle class="st0" cx="380.2" cy="63.1" r="0.3"/>
	<circle class="st0" cx="392.8" cy="63.1" r="0.3"/>
	<circle class="st0" cx="405.5" cy="12.3" r="0.3"/>
	<circle class="st0" cx="405.5" cy="25" r="0.3"/>
	<circle class="st0" cx="405.5" cy="37.7" r="0.3"/>
	<circle class="st0" cx="405.5" cy="50.4" r="0.3"/>
	<circle class="st0" cx="405.5" cy="63.1" r="0.3"/>
	<circle class="st0" cx="329.5" cy="75.7" r="0.3"/>
	<circle class="st0" cx="342.2" cy="75.7" r="0.3"/>
	<circle class="st0" cx="329.5" cy="88.4" r="0.3"/>
	<circle class="st0" cx="342.2" cy="88.4" r="0.3"/>
	<circle class="st0" cx="329.5" cy="101.1" r="0.3"/>
	<circle class="st0" cx="342.2" cy="101.1" r="0.3"/>
	<circle class="st0" cx="354.8" cy="75.7" r="0.3"/>
	<circle class="st0" cx="367.5" cy="75.7" r="0.3"/>
	<circle class="st0" cx="354.8" cy="88.4" r="0.3"/>
	<circle class="st0" cx="367.5" cy="88.4" r="0.3"/>
	<circle class="st0" cx="354.8" cy="101.1" r="0.3"/>
	<circle class="st0" cx="367.5" cy="101.1" r="0.3"/>
	<circle class="st0" cx="380.2" cy="75.7" r="0.3"/>
	<circle class="st0" cx="392.8" cy="75.7" r="0.3"/>
	<circle class="st0" cx="380.2" cy="88.4" r="0.3"/>
	<circle class="st0" cx="392.8" cy="88.4" r="0.3"/>
	<circle class="st0" cx="380.2" cy="101.1" r="0.3"/>
	<circle class="st0" cx="392.8" cy="101.1" r="0.3"/>
	<circle class="st0" cx="405.5" cy="75.7" r="0.3"/>
	<circle class="st0" cx="405.5" cy="88.4" r="0.3"/>
	<circle class="st0" cx="405.5" cy="101.1" r="0.3"/>
</g>
<circle class="st1" cx="12.3" cy="0.3" r="0.3"/>
<circle class="st1" cx="25" cy="0.3" r="0.3"/>
<circle class="st1" cx="37.7" cy="0.3" r="0.3"/>
<circle class="st1" cx="50.4" cy="0.3" r="0.3"/>
<circle class="st1" cx="63" cy="0.3" r="0.3"/>
<circle class="st1" cx="75.7" cy="0.3" r="0.3"/>
<circle class="st1" cx="88.4" cy="0.3" r="0.3"/>
<circle class="st1" cx="101" cy="0.3" r="0.3"/>
<circle class="st1" cx="113.7" cy="0.3" r="0.3"/>
<circle class="st1" cx="126.4" cy="0.3" r="0.3"/>
<circle class="st1" cx="139.1" cy="0.3" r="0.3"/>
<circle class="st1" cx="151.7" cy="0.3" r="0.3"/>
<circle class="st1" cx="164.4" cy="0.3" r="0.3"/>
<circle class="st1" cx="177.1" cy="0.3" r="0.3"/>
<circle class="st1" cx="189.7" cy="0.3" r="0.3"/>
<circle class="st1" cx="202.4" cy="0.3" r="0.3"/>
<circle class="st1" cx="215.4" cy="0.3" r="0.3"/>
<circle class="st1" cx="228.1" cy="0.3" r="0.3"/>
<circle class="st1" cx="240.8" cy="0.3" r="0.3"/>
<circle class="st1" cx="253.5" cy="0.3" r="0.3"/>
<circle class="st1" cx="266.1" cy="0.3" r="0.3"/>
<circle class="st1" cx="278.8" cy="0.3" r="0.3"/>
<circle class="st1" cx="291.5" cy="0.3" r="0.3"/>
<circle class="st1" cx="304.2" cy="0.3" r="0.3"/>
<circle class="st1" cx="316.8" cy="0.3" r="0.3"/>
<circle class="st1" cx="329.5" cy="0.3" r="0.3"/>
<circle class="st1" cx="342.2" cy="0.3" r="0.3"/>
<circle class="st1" cx="354.8" cy="0.3" r="0.3"/>
<circle class="st1" cx="367.5" cy="0.3" r="0.3"/>
<circle class="st1" cx="380.2" cy="0.3" r="0.3"/>
<circle class="st1" cx="392.8" cy="0.3" r="0.3"/>
<circle class="st1" cx="405.5" cy="0.3" r="0.3"/>
</svg>
