<?xml version="1.0" encoding="utf-8"?>
<!-- Generator: Adobe Illustrator 19.0.1, SVG Export Plug-In . SVG Version: 6.00 Build 0)  -->
<!DOCTYPE svg PUBLIC "-//W3C//DTD SVG 1.1//EN" "http://www.w3.org/Graphics/SVG/1.1/DTD/svg11.dtd">
<svg version="1.1" id="Layer_1" xmlns="http://www.w3.org/2000/svg" xmlns:xlink="http://www.w3.org/1999/xlink" x="0px" y="0px"
	 viewBox="0 0 300 48.9" style="enable-background:new 0 0 300 48.9;" xml:space="preserve">
<style type="text/css">
	.st0{fill:#B5D451;}
	.st1{fill:#3BA9B6;}
	.st2{fill:#231F20;}
</style>
<g>
	<g>
		<polygon class="st0" points="31.6,38.2 32.5,39.1 45.7,25.9 44,25.9 		"/>
		<polygon class="st0" points="44,23 45.7,23 32.5,9.8 31.6,10.6 		"/>
		<polygon class="st0" points="22.7,1.7 30.8,9.8 31.6,8.9 22.7,0 -0.2,23 1.5,23 		"/>
		<polygon class="st0" points="22.7,47.1 1.5,25.9 -0.2,25.9 22.7,48.9 31.6,39.9 30.8,39.1 		"/>
	</g>
	<g>
		<polygon class="st1" points="40.5,47.1 32.5,39.1 31.6,38.2 19.3,25.9 17.6,25.9 30.8,39.1 31.6,39.9 40.5,48.9 63.5,25.9 
			61.8,25.9 		"/>
		<polygon class="st1" points="31.6,10.6 32.5,9.8 40.5,1.7 61.8,23 63.5,23 40.5,0 31.6,8.9 30.8,9.8 17.6,23 19.3,23 		"/>
	</g>
</g>
<g>
	<path class="st2" d="M80.4,30.3v-10h-3.6v-1.8H86v1.8h-3.6v10H80.4z"/>
	<path class="st2" d="M88.3,30.3V18.5h8.1v1.8h-6v3h5.9v1.8h-5.9v3.3h6v1.8H88.3z"/>
	<path class="st2" d="M98.9,30.3V18.5h2.1v10h5.2v1.8H98.9z"/>
	<path class="st2" d="M108.5,30.3V18.5h8.1v1.8h-6v3h5.9v1.8h-5.9v3.3h6v1.8H108.5z"/>
	<path class="st2" d="M118.8,24.4c0-3.6,2.7-6.1,6.2-6.1c2.4,0,3.8,1.2,4.7,2.6l-1.7,0.9c-0.6-1-1.7-1.7-3-1.7
		c-2.3,0-4.1,1.8-4.1,4.3c0,2.5,1.7,4.3,4.1,4.3c1.3,0,2.4-0.7,3-1.7l1.8,0.9c-0.9,1.4-2.4,2.7-4.7,2.7
		C121.5,30.5,118.8,28,118.8,24.4z"/>
	<path class="st2" d="M131.4,24.4c0-3.5,2.5-6.1,6-6.1c3.5,0,6,2.6,6,6.1s-2.5,6.1-6,6.1C133.9,30.5,131.4,27.9,131.4,24.4z
		 M141.3,24.4c0-2.4-1.5-4.3-3.9-4.3c-2.4,0-3.9,1.8-3.9,4.3c0,2.4,1.5,4.3,3.9,4.3C139.8,28.7,141.3,26.8,141.3,24.4z"/>
	<path class="st2" d="M156.1,30.3v-9.1l-3.6,9.1h-0.9l-3.6-9.1v9.1H146V18.5h2.9l3.2,8.1l3.2-8.1h2.9v11.8H156.1z"/>
	<path class="st2" d="M166.4,30.3V18.5h2.1v11.8H166.4z"/>
	<path class="st2" d="M179.7,30.3l-6.1-8.4v8.4h-2.1V18.5h2.1l6,8.2v-8.2h2.1v11.8H179.7z"/>
	<path class="st2" d="M184.8,30.3V18.5h8.1v1.8h-6v3h5.9v1.8h-5.9v5.1H184.8z"/>
	<path class="st2" d="M202,30.3l-2.6-4.4h-2.1v4.4h-2.1V18.5h5.2c2.3,0,3.9,1.5,3.9,3.7c0,2.1-1.4,3.2-2.8,3.5l2.9,4.6H202z
		 M202.2,22.2c0-1.1-0.8-1.9-2-1.9h-2.8v3.7h2.8C201.4,24.1,202.2,23.4,202.2,22.2z"/>
	<path class="st2" d="M215.2,30.3l-0.9-2.3h-5.4l-0.9,2.3h-2.3l4.6-11.8h2.6l4.6,11.8H215.2z M211.6,20.6l-2.1,5.6h4.2L211.6,20.6z"
		/>
	<path class="st2" d="M224.7,30.3V18.5h4.4c2.3,0,3.5,1.6,3.5,3.4c0,1.9-1.3,3.4-3.5,3.4h-3.4v4.9H224.7z M231.6,22
		c0-1.5-1-2.5-2.6-2.5h-3.3v5h3.3C230.6,24.5,231.6,23.4,231.6,22z"/>
	<path class="st2" d="M242.3,30.3l-3.3-4.9h-2.6v4.9h-1V18.5h4.4c2,0,3.6,1.3,3.6,3.4c0,2.1-1.5,3.3-3.3,3.4l3.4,4.9H242.3z
		 M242.3,22c0-1.5-1-2.5-2.6-2.5h-3.3v5.1h3.3C241.3,24.5,242.3,23.5,242.3,22z"/>
	<path class="st2" d="M246,24.4c0-3.4,2.3-6.1,5.7-6.1c3.4,0,5.7,2.6,5.7,6.1c0,3.4-2.3,6.1-5.7,6.1C248.2,30.5,246,27.9,246,24.4z
		 M256.4,24.4c0-3-1.8-5.2-4.7-5.2c-2.8,0-4.7,2.2-4.7,5.2c0,3,1.8,5.2,4.7,5.2C254.5,29.6,256.4,27.4,256.4,24.4z"/>
	<path class="st2" d="M258.9,29.1l0.6-0.8c0.5,0.7,1.3,1.3,2.3,1.3c1.6,0,2.6-1.1,2.6-2.7v-8.4h1v8.4c0,2.5-1.6,3.6-3.6,3.6
		C260.6,30.5,259.7,30.1,258.9,29.1z"/>
	<path class="st2" d="M269,30.3V18.5h7.5v0.9H270v4.4h6.3v0.9H270v4.7h6.5v0.9H269z"/>
	<path class="st2" d="M279,24.4c0-3.6,2.6-6.1,6-6.1c1.9,0,3.3,0.8,4.3,2.1l-0.8,0.5c-0.7-1-2-1.7-3.4-1.7c-2.8,0-4.9,2.1-4.9,5.2
		c0,3,2.2,5.2,4.9,5.2c1.4,0,2.7-0.7,3.4-1.7l0.9,0.5c-1.1,1.3-2.4,2.1-4.3,2.1C281.7,30.5,279,28,279,24.4z"/>
	<path class="st2" d="M294.9,30.3V19.4H291v-0.9h8.7v0.9h-3.8v10.9H294.9z"/>
</g>
</svg>
